<?xml version="1.0" encoding="iso-8859-1"?>
<!-- Generator: Adobe Illustrator 18.0.0, SVG Export Plug-In . SVG Version: 6.00 Build 0)  -->
<!DOCTYPE svg PUBLIC "-//W3C//DTD SVG 1.1//EN" "http://www.w3.org/Graphics/SVG/1.1/DTD/svg11.dtd">
<svg version="1.1" id="Capa_1" xmlns="http://www.w3.org/2000/svg" xmlns:xlink="http://www.w3.org/1999/xlink" x="0px" y="0px"
	 viewBox="0 0 480.865 480.865" style="enable-background:new 0 0 480.865 480.865;" xml:space="preserve">
<g>
	<path d="M432.852,193.865l-11.91-34.844c-2.035-5.954-3.434-12.082-4.188-18.303c-0.362-2.983,0.086-5.977,1.061-8.819
		c1.139-3.318,0.964-7.054-0.722-10.397l-17.02-33.752l3.459-4.228c1.156-1.413,1.757-3.198,1.69-5.022
		c-0.019-0.496-1.801-49.806-1.09-70.758c0.107-3.174-1.802-6.134-4.894-7.291c-2.012-0.752-4.26-0.53-6.177,0.439
		c-15.816,7.999-33.189,33.027-39.767,43.151c-11.324-1.578-22.741-1.579-34.065,0c-6.578-10.124-23.952-35.152-39.767-43.151
		c-1.917-0.969-4.165-1.191-6.177-0.439c-3.092,1.156-5.001,4.117-4.894,7.291c0.711,20.948-1.071,70.262-1.09,70.758
		c-0.066,1.824,0.534,3.61,1.69,5.023l3.46,4.229l-17.021,33.752c-1.686,3.344-1.86,7.08-0.721,10.398
		c0.975,2.842,1.423,5.836,1.061,8.819c-0.754,6.218-2.151,12.344-4.184,18.294l-86.775,53.909
		c-2.773,1.722-4.188,5.101-3.258,8.438c0.463,1.661,1.552,3.081,2.944,4.1l9.845,7.212l-56.648,53.098
		c-0.718,0.673-1.332,1.462-1.737,2.36c-1.401,3.109-0.583,6.547,1.73,8.678l9.569,8.816l-32.663,47.413
		c-2.016,2.927-1.701,6.867,0.754,9.437l2.931,3.067c-16.586,1.022-35.765,7.814-45.248,28.236
		c-3.548,6.483-5.422,13.809-5.422,21.205c0,5.533,1.025,10.958,3.049,16.132c4.625,11.775,12.472,21.94,22.694,29.4
		c10.217,7.444,22.292,11.806,34.922,12.613l120.99,7.67c0.726,0.046,1.449,0.069,2.171,0.069c6.382,0,12.569-1.792,18.016-5.237
		c6.355-4.023,11.042-9.909,13.573-16.712c4.428,5.985,11.535,9.875,19.535,9.875h29.42c6.51,0,12.425-2.579,16.79-6.762
		c4.365,4.184,10.281,6.762,16.79,6.762h29.42c6.5,0,12.602-2.531,17.165-7.108c4.595-4.58,7.125-10.682,7.125-17.182
		c0-9.772-3.979-18.977-11-25.639V305.285c1.25-0.943,2.205-2.275,2.676-3.862l10.793-36.402l12.114-3.529
		c3.27-0.953,5.487-3.989,5.399-7.394l-1.146-44.545l11.477-6.813C432.636,200.928,434,197.224,432.852,193.865z M388.968,22.814
		c0.063,18.867,0.807,42.763,1.124,52.196l-23.555-23.805C371.434,43.825,380.28,31.5,388.968,22.814z M305.987,51.204
		L282.432,75.01c0.317-9.433,1.061-33.329,1.124-52.197C292.245,31.5,301.09,43.825,305.987,51.204z M287.508,91.207l31.66-31.997
		c11.353-1.81,22.834-1.811,34.188,0l31.661,31.997l18.082,35.858c-9.256,6.724-36.159,25.407-58.531,37.575
		c-5.2,2.828-11.41,2.829-16.612,0c-22.375-12.169-49.276-30.852-58.531-37.575L287.508,91.207z M241.431,462.953
		c-3.322,2.101-7.304,3.122-11.217,2.874l-120.986-7.67c-9.779-0.625-19.13-4.002-27.038-9.764
		c-7.913-5.774-13.988-13.646-17.566-22.755c-1.337-3.416-2.015-7.001-2.015-10.657c0-4.95,1.271-9.852,3.675-14.175
		c0.095-0.171,0.184-0.346,0.265-0.525c7.604-16.617,24.025-19.878,35.746-19.878c2.636,0,5.035,0.165,7.042,0.38
		c-0.035,1.137-0.022,8.827,0.071,10.767c0.163,3.385,2.575,6.241,5.886,6.966l108.891,23.866c3.999,0.888,7.809,2.353,11.341,4.365
		c3.525,1.995,6.731,4.515,9.533,7.494c3.289,3.494,5.101,8.05,5.101,12.829C250.159,453.556,246.896,459.493,241.431,462.953z
		 M269.27,418.866c-3.144,2.995-5.746,6.579-7.604,10.496c-0.234,0.497-0.451,1.003-0.662,1.511c-1.363-2.48-3.04-4.805-5.022-6.911
		c-3.833-4.075-8.23-7.53-13.05-10.258c-4.818-2.745-10.033-4.752-15.518-5.97L124.27,385.128v-0.804
		c0.03-3.192,0.16-6.317,0.388-9.29c0.168-2.19-0.632-4.255-2.061-5.751l0.005-0.005l-12.194-12.759l32.894-47.748
		c2.119-3.075,1.652-7.24-1.094-9.771l-8.42-7.758l57.409-53.811c1.628-1.526,2.492-3.698,2.357-5.925s-1.254-4.279-3.054-5.597
		l-8.339-6.109l61.764-38.37l-4.25,12.433c-1.148,3.359,0.216,7.063,3.269,8.875l11.477,6.813l-1.146,44.545
		c-0.088,3.405,2.13,6.441,5.399,7.394l12.114,3.529l10.793,36.402c0.96,3.238,3.915,5.437,7.343,5.367l14.495-0.294l14.373,36.541
		c0.867,2.204,2.724,3.869,5.009,4.491c0.649,0.177,1.312,0.263,1.971,0.263c1.657,0,3.289-0.55,4.624-1.595l6.869-5.379
		l6.868,5.379c1.865,1.46,4.312,1.954,6.595,1.332c2.285-0.622,4.142-2.287,5.009-4.491l14.373-36.542l4.162,0.085v51.19
		l-5.575,4.629l-10.554-4.438c-2.811-1.182-6.054-0.545-8.211,1.61l-17.66,17.661l-17.66-17.661
		c-2.155-2.155-5.397-2.792-8.211-1.611l-8.276,3.48l-8.383-16.766c-1.852-3.705-6.354-5.206-10.063-3.354
		c-3.704,1.852-5.206,6.357-3.354,10.062l11.523,23.048c1.768,3.534,5.973,5.091,9.615,3.56l10.104-4.249l14.703,14.704v26.346h-37
		v-16.06c0-8.869-3.908-17.21-10.719-22.882c-7.424-6.187-13.585-13.601-18.313-22.039c-0.779-1.449-2.036-2.65-3.653-3.343
		c-0.473-0.203-12.352-2.939-12.352-2.939l5.462-35.902c0.082-0.444,0.125-0.901,0.125-1.365c0-0.121-0.003-0.242-0.009-0.363
		l-1.55-31.97c-0.2-4.137-3.709-7.335-7.854-7.128c-4.137,0.201-7.329,3.717-7.128,7.854l1.513,31.204l-6.436,42.305
		c-0.591,3.885,1.917,7.567,5.748,8.44l14.687,3.348c5.386,8.885,12.156,16.753,20.161,23.423c3.381,2.815,5.319,6.954,5.319,11.356
		V418.866z M336.27,414.791v-21.374c0.102-0.091,0.207-0.178,0.304-0.275l19.399-19.4l10.104,4.248
		c2.385,1.004,5.096,0.686,7.193-0.78v37.581H336.27z M311.98,453.791h-29.42c-5.122,0-9.29-4.167-9.29-9.29
		c0-2.995,0.679-6.018,1.956-8.726c1.076-2.267,2.551-4.263,4.356-5.984h41.688v14.71
		C321.27,449.624,317.102,453.791,311.98,453.791z M381.538,451.076c-1.745,1.751-4.074,2.715-6.559,2.715h-29.42
		c-5.122,0-9.29-4.167-9.29-9.29v-14.71h41.714c4.01,3.834,6.286,9.108,6.286,14.71C384.27,446.985,383.306,449.314,381.538,451.076
		z M406.668,198.9c-2.336,1.386-3.739,3.927-3.669,6.642l1.109,43.165l-10.495,3.058c-2.449,0.713-4.368,2.623-5.093,5.069
		l-10.331,34.843l-13.998-0.284c-0.052-0.001-0.103-0.001-0.153-0.001c-3.076,0-5.849,1.882-6.979,4.755l-12.602,32.038
		l-3.571-2.797c-2.714-2.126-6.532-2.127-9.248,0l-3.572,2.797l-12.602-32.038c-1.148-2.92-4.001-4.813-7.132-4.753l-13.998,0.284
		l-10.331-34.843c-0.725-2.446-2.644-4.355-5.093-5.069l-10.495-3.058l1.109-43.165c0.07-2.715-1.333-5.256-3.669-6.642
		l-10.02-5.948l9.94-29.079c1.998-5.843,3.455-11.833,4.398-17.909c12.842,8.901,33.046,22.298,50.615,31.853
		c4.845,2.635,10.157,3.952,15.473,3.952c5.313,0,10.628-1.318,15.472-3.952c17.567-9.554,37.772-22.953,50.615-31.854
		c0.943,6.075,2.401,12.065,4.398,17.909l9.939,29.079L406.668,198.9z"/>
	<path d="M373.702,189.338c-0.527-4.109-4.283-7.009-8.394-6.486c-4.108,0.527-7.012,4.284-6.485,8.393l4.123,32.158l-7.255,1.555
		c-1.892,0.405-3.554,1.526-4.638,3.127l-14.791,21.834l-14.791-21.834c-1.084-1.602-2.746-2.722-4.638-3.127l-7.255-1.555
		l4.123-32.158c0.526-4.108-2.377-7.866-6.485-8.393c-4.107-0.525-7.866,2.376-8.394,6.486l-5,39
		c-0.495,3.868,2.055,7.47,5.868,8.287l11.053,2.368l19.31,28.504c1.395,2.06,3.721,3.294,6.209,3.294s4.814-1.234,6.209-3.294
		l19.31-28.504l11.053-2.368c3.813-0.817,6.363-4.419,5.868-8.287L373.702,189.338z"/>
</g>
<g>
</g>
<g>
</g>
<g>
</g>
<g>
</g>
<g>
</g>
<g>
</g>
<g>
</g>
<g>
</g>
<g>
</g>
<g>
</g>
<g>
</g>
<g>
</g>
<g>
</g>
<g>
</g>
<g>
</g>
</svg>
