<?xml version="1.0" encoding="iso-8859-1"?>
<!-- Generator: Adobe Illustrator 18.0.0, SVG Export Plug-In . SVG Version: 6.00 Build 0)  -->
<!DOCTYPE svg PUBLIC "-//W3C//DTD SVG 1.1//EN" "http://www.w3.org/Graphics/SVG/1.1/DTD/svg11.dtd">
<svg version="1.1" id="Capa_1" xmlns="http://www.w3.org/2000/svg" xmlns:xlink="http://www.w3.org/1999/xlink" x="0px" y="0px"
	 viewBox="0 0 457.917 457.917" style="enable-background:new 0 0 457.917 457.917;" xml:space="preserve">
<path d="M456.973,411.037l-7.5-13.499c-1.125-2.026-3.124-3.418-5.415-3.77l-15.339-2.36c-13.626-32.831-33.15-83.95-36.348-102.854
	c0.778-0.479,1.535-0.993,2.274-1.536l21.821,15.385l-5.448,23.351c-1.404,6.02,0.243,12.341,4.405,16.911
	c3.593,3.945,8.623,6.134,13.862,6.134c0.957,0,1.921-0.073,2.885-0.222c6.236-0.963,11.538-4.959,14.183-10.689l2.148-4.655
	c6.42-13.91,7.349-29.595,2.613-44.167l-12.423-38.224l7.874-34.357c5.103-22.27,1.27-45.495-10.488-64.842
	c13.115-11.157,18.443-29.415,12.687-46.135c-1.383-4.017-2.688-7.237-3.382-8.885l-2.72-31.464
	c-0.858-9.942-5.347-19.17-12.635-25.983c-4.95-4.628-12.655-4.577-17.546,0.116c-4.686,4.498-5.245,11.782-1.304,16.943
	c0.339,0.444,0.65,0.906,0.933,1.385c-1.111,2.32-4.878,5.745-9.811,8.355c-10.287-2.342-20.993-2.342-31.28,0
	c-4.938-2.614-8.702-6.037-9.813-8.355c0.283-0.479,0.594-0.941,0.932-1.384c3.942-5.162,3.383-12.446-1.302-16.943
	c-4.889-4.693-12.596-4.745-17.545-0.118c-7.29,6.814-11.778,16.042-12.637,25.984l-2.72,31.464
	c-0.693,1.649-1.999,4.869-3.382,8.886c-3.88,11.27-2.719,23.239,2.462,33.262l-122.784,69.69
	c-14.565,8.267-26.255,21.21-32.913,36.446c-30.14,68.953-62.764,92.229-79.527,99.966c-31.316,14.454-48.878,13.534-54.87,7.854
	c-3.934-3.728-2.39-9.637-1.119-12.828c2.271-5.707,1.222-12.048-2.734-16.543l-0.202-0.229c-3.622-4.053-8.996-5.957-14.384-5.087
	c-5.442,0.877-10.002,4.418-12.196,9.473c-9.672,22.285-8.143,40.36,4.308,50.895c8.678,7.343,23.756,15.419,48.08,15.419
	c21.357-0.001,49.849-6.236,87.382-24.656c1.068,4.096,3.109,7.903,6.042,11.139l16.551,18.264
	c10.141,11.189,24.617,17.606,39.718,17.606l61.182,0c7.425,0,13.521-4.864,15.172-12.104c1.649-7.239-1.738-14.264-8.431-17.481
	l-26.009-12.502l68.041-33.567c8.517-4.205,14.444-11.953,16.265-21.259c1.201-6.143,0.498-12.309-1.9-17.82l0.526-0.279
	c13.331,40.891,54.422,96.711,67.486,113.84c3.425,4.491,8.84,7.172,14.485,7.172h35.233c2.657,0,5.116-1.406,6.464-3.697
	C458.229,416.192,458.264,413.36,456.973,411.037z M338.738,110.391c1.766-5.128,3.405-8.842,3.42-8.875
	c0.338-0.76,0.547-1.571,0.618-2.4L345.6,66.45c0.153-1.763,0.487-3.49,0.991-5.158c3.358,11.336,17.47,18.11,20.577,19.48
	c1.571,0.692,3.331,0.825,4.987,0.375c9.488-2.573,19.519-2.573,29.009,0c1.658,0.45,3.417,0.317,4.987-0.375
	c3.107-1.369,17.219-8.143,20.578-19.479c0.504,1.667,0.838,3.394,0.99,5.156l2.823,32.665c0.071,0.826,0.28,1.638,0.616,2.396
	c0.017,0.037,1.657,3.751,3.422,8.879c4.292,12.467-0.962,26.272-12.494,32.824c-11.387,6.47-23.215,11.72-31.133,14.985
	c-2.771,1.143-5.82,1.143-8.589,0c-7.921-3.266-19.751-8.518-31.133-14.985C339.701,136.662,334.446,122.858,338.738,110.391z
	 M319.864,316.387c-0.914,4.676-3.897,8.571-8.182,10.687l-81.85,40.38c-2.573,1.27-4.196,3.896-4.182,6.764
	c0.015,2.869,1.665,5.479,4.251,6.722l39.889,19.174c0.276,0.133,0.402,0.194,0.304,0.63c-0.1,0.436-0.24,0.436-0.547,0.436
	l-30.935,0l-30.94-25.415l71.427-35.237c7.802-3.849,13.464-10.791,15.734-19.036l24.495-12.972
	C320.178,310.997,320.392,313.691,319.864,316.387z M415.184,407.179c-1.011,0-1.943-0.462-2.558-1.268
	c-42.821-56.145-62.887-97.446-67.388-117.377c-10.167-45.023-10.315-77.525-10.315-77.844c0-4.142-3.357-7.5-7.5-7.5
	s-7.5,3.358-7.5,7.5c0,1.325,0.118,31.757,9.456,75.534l-34.76,18.408c-1.631-5.345-4.739-10.21-9.104-13.993l-41.675-36.119
	c-3.13-2.713-7.867-2.375-10.58,0.755c-2.713,3.13-2.374,7.867,0.756,10.58l41.675,36.12c3.913,3.391,5.778,8.281,5.118,13.416
	s-3.702,9.395-8.346,11.685l-81.852,40.38c-2.284,1.127-3.841,3.337-4.133,5.868c-0.291,2.531,0.722,5.037,2.69,6.654l25.813,21.203
	h-6.615c-10.875,0-21.3-4.622-28.603-12.679l-16.551-18.263c-2.132-2.353-3.195-5.393-2.996-8.56c0.2-3.168,1.637-6.05,4.047-8.116
	l37.547-32.183c3.145-2.695,3.509-7.43,0.813-10.575c-2.694-3.144-7.43-3.51-10.575-0.813l-37.547,32.183
	c-3.09,2.649-5.48,5.885-7.065,9.494C118.389,366.724,53.425,395,20.283,366.956c-9.396-7.95-4.182-24.384-0.237-33.472
	c0.194-0.447,0.555-0.593,0.823-0.636c0.491-0.083,0.725,0.175,0.813,0.274l0.12,0.136c0.205,0.233,0.231,0.672,0.064,1.092
	c-4.484,11.262-2.714,22.201,4.735,29.262c12.75,12.086,38.133,10.269,71.475-5.121c43.56-20.104,73.196-76.03,86.986-107.578
	c5.37-12.286,14.807-22.73,26.573-29.408l124.611-70.727c2.279,2.063,4.809,3.906,7.575,5.478
	c12.059,6.852,24.506,12.379,32.824,15.81c3.229,1.332,6.62,1.997,10.014,1.997c3.392,0,6.784-0.666,10.013-1.997
	c6.906-2.847,16.66-7.145,26.679-12.446c9.652,15.987,12.803,35.138,8.593,53.512l-8.337,36.378
	c-0.303,1.323-0.241,2.703,0.178,3.993l13.063,40.196c3.564,10.968,2.865,22.774-1.967,33.245l-2.148,4.655
	c-0.739,1.602-2.104,2.035-2.854,2.15c-0.748,0.116-2.182,0.114-3.368-1.189c-0.838-0.919-1.169-2.192-0.887-3.402l6.597-28.271
	c0.694-2.975-0.485-6.073-2.981-7.833l-24.555-17.314c4.957-8.196,8.209-19.117,9.69-32.743c1.945-17.893,0.072-34.018-0.009-34.696
	c-0.489-4.113-4.222-7.056-8.334-6.561c-4.113,0.49-7.051,4.221-6.561,8.334c1.77,14.861,2.29,59.096-17.837,67.146
	c-2.848,1.139-4.715,3.896-4.715,6.963c0,21.876,35.53,107.234,39.582,116.895c1.009,2.407,3.196,4.116,5.775,4.512l10.311,1.586
	H415.184z"/>
<g>
</g>
<g>
</g>
<g>
</g>
<g>
</g>
<g>
</g>
<g>
</g>
<g>
</g>
<g>
</g>
<g>
</g>
<g>
</g>
<g>
</g>
<g>
</g>
<g>
</g>
<g>
</g>
<g>
</g>
</svg>
