<?xml version="1.0" encoding="iso-8859-1"?>
<!-- Generator: Adobe Illustrator 18.0.0, SVG Export Plug-In . SVG Version: 6.00 Build 0)  -->
<!DOCTYPE svg PUBLIC "-//W3C//DTD SVG 1.1//EN" "http://www.w3.org/Graphics/SVG/1.1/DTD/svg11.dtd">
<svg version="1.1" id="Capa_1" xmlns="http://www.w3.org/2000/svg" xmlns:xlink="http://www.w3.org/1999/xlink" x="0px" y="0px"
	 viewBox="0 0 486.32 486.32" style="enable-background:new 0 0 486.32 486.32;" xml:space="preserve">
<path d="M456.687,153.76l-6.34-25.768c9.049-10.078,10.581-23.715,10.735-30.419c0.154-6.709-0.762-13.091-2.726-19.011
	c4.734-18.641,3.301-65.744,3.112-71.316c-0.069-2.02-0.95-3.927-2.444-5.289c-1.493-1.362-3.469-2.061-5.492-1.944
	c-7.585,0.446-14.636,4.122-19.344,10.086l-17.116,21.68c-15.568-1.243-31.292-1.243-46.86,0l-17.116-21.68
	c-4.708-5.964-11.759-9.64-19.344-10.086c-2.025-0.118-3.999,0.583-5.492,1.944c-1.494,1.362-2.375,3.269-2.444,5.289
	c-0.188,5.572-1.622,52.676,3.112,71.316c-1.964,5.92-2.88,12.302-2.726,19.011c0.149,6.464,1.581,19.374,9.794,29.323L295.5,184.74
	l-11.572,3.73c-47.992,15.469-92.009,39.628-130.828,71.807c-31.587,26.184-58.593,56.735-80.543,91.071
	c1.755-38.896,10.473-112.872,48.802-179.154c16.736-28.943,21.209-55.219,13.294-78.099c-10.732-31.023-41.578-47.349-59.009-54.32
	c-5.199-2.079-10.871-1.962-15.97,0.328c-5.086,2.284-8.929,6.43-10.821,11.675c-3.648,10.111,1.223,21.374,11.091,25.641
	c10.205,4.413,28.222,14.412,34.229,31.8c4.343,12.569,1.911,27.477-7.228,44.312c-50.778,93.539-70.79,175.677-59.478,244.132
	c4.945,29.906,22.711,45.936,50.443,45.936c1.783,0,3.614-0.074,5.48-0.208c3.935,4.52,8.151,7.981,12.637,10.345
	c-0.958,8.262-1.093,16.43,0.1,23.889c0.488,3.052,2.799,5.492,5.821,6.146c8.782,1.899,28.571,2.55,51.588,2.55
	c28.423,0,61.768-0.993,85.376-1.857c5.619-0.205,10.649-2.994,13.799-7.65c3.152-4.659,3.869-10.369,1.968-15.665
	c-3.89-10.837-13.823-18.373-25.308-19.199l-29.433-2.117c7.168-4.721,14.138-10.22,20.281-16.575l99.298-39.754l8.931,18.178
	l-4.401,40.783c-0.652,6.046,1.098,11.976,4.929,16.699c3.83,4.722,9.272,7.659,15.322,8.268l17.309,1.742l1.034,2.104
	c3.778,7.692,11.759,12.663,20.329,12.663h35.955c5.343,0,10.118-2.768,12.775-7.404c2.656-4.636,2.629-10.156-0.072-14.766
	c-4.262-7.27-11.463-12.288-19.759-13.77l-4.166-0.744l-17.571-74.585l49.243-88.879C461.392,244.055,467.54,197.875,456.687,153.76
	z M340.552,18.513c0.271,0.279,0.527,0.573,0.771,0.881l19.623,24.855c1.576,1.996,4.052,3.059,6.589,2.82
	c17.323-1.629,34.891-1.629,52.216,0c2.536,0.239,5.013-0.824,6.589-2.82l19.623-24.855c0.243-0.308,0.5-0.602,0.771-0.881
	c0.313,21.178-0.303,49.155-3.338,57.802c-0.594,1.693-0.562,3.542,0.091,5.213c1.856,4.75,2.73,10.033,2.601,15.701
	c-0.216,9.382-2.944,21.511-14.715,26.017c-4.491,1.72-8.584,4.344-12.161,7.799l-7.712,7.446
	c-2.402,2.209-14.227,8.724-17.856,9.29c-3.63-0.566-15.453-7.081-17.841-9.276l-7.726-7.459c-3.578-3.456-7.671-6.079-12.162-7.799
	c-11.771-4.506-14.499-16.635-14.715-26.017c-0.13-5.668,0.745-10.951,2.601-15.701c0.652-1.671,0.685-3.52,0.091-5.213
	C340.855,67.667,340.239,39.691,340.552,18.513z M42.265,395.217c-10.754-65.085,8.713-143.992,57.862-234.529
	c11.231-20.689,13.998-39.654,8.223-56.367c-4.126-11.941-14.811-28.665-42.279-40.594c-2.566-1.114-4.065-4.277-3.093-6.9
	c0.565-1.525,1.757-2.693,3.323-3.23c1.276-0.437,2.678-0.333,3.93,0.169c15.081,6.053,41.494,19.934,50.246,45.233
	c6.428,18.581,2.356,40.681-12.104,65.686C78.485,216.371,66.213,271.98,61.181,309.528c-2.561,19.113-3.57,35.467-3.913,47.556
	c-0.512,18.05,2.161,36.065,8.203,53.081c0.056,0.158,0.112,0.315,0.169,0.473c2.379,6.632,4.966,12.562,7.744,17.811
	C55.737,427.011,45.74,416.226,42.265,395.217z M345.799,452.505c-2.043-0.206-3.881-1.197-5.175-2.792
	c-1.294-1.595-1.885-3.598-1.664-5.64l1.857-17.213l12.996,26.453L345.799,452.505z M385.016,350.953l-5.649-23.981
	c-1.61-6.837-0.493-13.911,3.146-19.919l34.768-57.395c2.146-3.543,1.014-8.155-2.529-10.301c-3.541-2.145-8.154-1.015-10.301,2.529
	l-34.768,57.394c-5.688,9.389-7.435,20.445-4.916,31.131l29.466,125.08c0.686,2.912,3.036,5.138,5.981,5.664l9.018,1.61
	c3.808,0.68,7.134,2.917,9.2,6.173h-35.463c-2.895,0-5.59-1.679-6.866-4.277l-67.673-137.74c-1.786-3.637-2.73-7.701-2.73-11.753
	v-58.73c0-4.142-3.357-7.5-7.5-7.5s-7.5,3.358-7.5,7.5v58.73c0,6.331,1.476,12.682,4.268,18.366l17.916,36.465l-77.037,30.842
	c2.029-4.419,3.638-9.102,4.704-14.075c4.417-20.598-2.57-36.143-2.869-36.795c-1.723-3.747-6.138-5.379-9.895-3.679
	c-3.758,1.699-5.429,6.135-3.752,9.903c0.87,1.955,20.297,47.924-51.329,81.675l-21.967-1.58c-4.128-0.296-7.722,2.811-8.019,6.943
	c-0.297,4.131,2.811,7.721,6.942,8.019l78.633,5.657c5.566,0.4,10.381,4.053,12.266,9.306c0.365,1.016-0.015,1.809-0.274,2.192
	c-0.258,0.381-0.851,1.026-1.923,1.065c-63.111,2.309-109.655,2.44-128,0.426c-1.824-30.556,18.34-73.67,18.614-74.25
	c1.773-3.743,0.176-8.216-3.567-9.989c-3.741-1.773-8.215-0.176-9.988,3.567c-0.664,1.401-10.998,23.451-16.602,48.387
	c-14.53-12.015-23.247-42.776-26.093-57.245c23.03-41.643,53.281-78.152,89.946-108.545c37.344-30.957,79.689-54.198,125.857-69.079
	l13.971-4.503c1.556-0.501,2.905-1.498,3.843-2.837l41.524-59.313c0.864,0.409,1.749,0.803,2.683,1.16
	c2.597,0.994,4.987,2.535,7.106,4.581l7.727,7.46c3.276,3.164,20.068,13.501,28.259,13.501c8.191,0,24.983-10.338,28.26-13.502
	l7.728-7.46c2.118-2.045,4.509-3.586,7.105-4.58c0.138-0.053,0.266-0.113,0.402-0.167l4.984,20.256
	c9.948,40.433,4.313,82.758-15.866,119.178L385.016,350.953z"/>
<g>
</g>
<g>
</g>
<g>
</g>
<g>
</g>
<g>
</g>
<g>
</g>
<g>
</g>
<g>
</g>
<g>
</g>
<g>
</g>
<g>
</g>
<g>
</g>
<g>
</g>
<g>
</g>
<g>
</g>
</svg>
