<?xml version="1.0" encoding="iso-8859-1"?>
<!-- Generator: Adobe Illustrator 18.0.0, SVG Export Plug-In . SVG Version: 6.00 Build 0)  -->
<!DOCTYPE svg PUBLIC "-//W3C//DTD SVG 1.1//EN" "http://www.w3.org/Graphics/SVG/1.1/DTD/svg11.dtd">
<svg version="1.1" id="Capa_1" xmlns="http://www.w3.org/2000/svg" xmlns:xlink="http://www.w3.org/1999/xlink" x="0px" y="0px"
	 viewBox="0 0 461.709 461.709" style="enable-background:new 0 0 461.709 461.709;" xml:space="preserve">
<path d="M455.944,434.244c-11.729-21.257-33.041-36.14-57.014-39.812c-22.513-3.448-54.016-7.862-90.629-11.854
	c2.611-18.337,1.5-38.58-3.291-60.612c1.056-15.597,16.263-45.024,42.1-81.336c9.027-12.688,13.038-28.201,11.293-43.681
	l-6.533-57.925c2.053-0.887,4.085-1.894,6.086-3.05c19.12-11.028,30.997-31.726,30.997-54.017c0-12.964-3.939-25.448-11.393-36.106
	c-1.188-1.697-2.938-3.926-5.202-6.623c-0.043-0.052-0.177-0.21-0.112-0.493c0.033-0.148,0.097-0.224,0.178-0.277
	c3.048-0.789,5.326-3.43,5.591-6.645c0.069-0.844,0.119-3.317-0.915-8.037c-2.274-10.394-10.884-18.392-21.425-19.901
	c-4.883-0.698-10.097-1.069-15.541-1.101l-0.825-0.004c-8.507,0-15.404,0.828-18.622,1.295c-1.935-0.613-3.864-1.168-5.75-1.652
	c-2.533-0.658-5.138-1.232-7.743-1.708c-5.146-0.939-10.478-0.94-15.634,0c-2.604,0.476-5.209,1.05-7.724,1.703
	c-1.898,0.488-3.832,1.043-5.768,1.657c-3.218-0.468-10.115-1.295-18.622-1.295l-0.87,0.004c-5.4,0.032-10.614,0.403-15.497,1.101
	c-10.542,1.509-19.151,9.507-21.423,19.897c-1.035,4.723-0.985,7.196-0.916,8.04c0.263,3.198,2.519,5.828,5.542,6.632
	c0.026,0.031,0.051,0.079,0.071,0.16c0.032,0.129,0.058,0.383-0.146,0.631c-1.752,2.139-3.439,4.365-5.014,6.617
	c-7.452,10.656-11.392,23.141-11.392,36.104c0,2.159,0.114,4.302,0.333,6.424l-4.976,7.933c-5.02,8.003-14.009,12.775-23.443,12.447
	c-19.225-0.662-37.667,6.012-51.95,18.795c-25.934,23.21-64.636,62.433-101.738,117.479C0.583,285.75-4.073,337.018,15.571,382.179
	c4.982,11.453,10.117,23.47,15.263,35.718c6.684,15.91,19.906,27.882,36.278,32.845c16.501,5.003,44.51,10.967,84.232,10.967
	c61.355,0,236.986-1.105,289.354-1.444c6.247-0.04,11.862-3.282,15.021-8.673C458.879,446.201,458.962,439.715,455.944,434.244z
	 M233.487,54.448c1.357-1.941,2.812-3.861,4.324-5.707c3.154-3.851,4.305-9.024,3.078-13.839c-0.773-3.038-2.391-5.68-4.633-7.674
	c0.018-0.081,0.035-0.164,0.054-0.248c0.942-4.312,4.517-7.63,8.894-8.256c4.211-0.602,8.741-0.922,13.418-0.95l0.825-0.004
	c10.172,0,17.822,1.352,17.891,1.364c1.243,0.226,2.523,0.134,3.723-0.268c2.187-0.732,4.377-1.382,6.528-1.935
	c2.179-0.566,4.421-1.06,6.664-1.469c3.381-0.617,6.872-0.616,10.249,0c2.244,0.409,4.487,0.904,6.684,1.474
	c2.134,0.548,4.324,1.198,6.511,1.93c1.193,0.4,2.474,0.492,3.715,0.269c0.076-0.014,7.727-1.365,17.898-1.365l0.78,0.004
	c4.721,0.029,9.251,0.348,13.462,0.95c4.377,0.626,7.951,3.945,8.896,8.26c0.016,0.072,0.031,0.143,0.046,0.213
	c-2.429,2.12-4.142,4.972-4.878,8.234c-1.081,4.788,0.104,9.686,3.254,13.439c1.956,2.33,3.478,4.26,4.401,5.579
	c5.681,8.123,8.684,17.635,8.684,27.508c0,16.946-9.001,32.665-23.494,41.025c-5.25,3.031-10.68,4.795-16.137,5.244
	c-6.203,0.509-12.273,2.723-18.144,4.865c-5.988,2.185-11.646,4.249-16.802,4.364c-5.154-0.115-10.813-2.179-16.801-4.364
	c-5.87-2.141-11.94-4.356-18.143-4.865c-5.458-0.449-10.888-2.213-16.141-5.246c-14.49-8.358-23.491-24.077-23.491-41.023
	C224.802,72.084,227.805,62.572,233.487,54.448z M442.778,444.009c-0.272,0.466-0.918,1.248-2.177,1.257
	c-52.355,0.339-227.947,1.444-289.257,1.444c-37.885,0-64.351-5.613-79.881-10.321c-12.083-3.664-21.852-12.521-26.8-24.3
	c-5.17-12.306-10.331-24.382-15.338-35.892c-17.589-40.436-13.424-86.333,11.14-122.777c36.241-53.766,74.006-92.043,99.305-114.686
	c11.386-10.19,26.116-15.511,41.429-14.981c13.348,0.457,26.05-5.583,34.174-15.956c5.275,11.674,14.073,21.63,25.423,28.176
	c7.185,4.148,14.724,6.572,22.41,7.204c4.188,0.344,9.065,2.123,14.229,4.007c6.936,2.53,14.108,5.146,21.819,5.272
	c0.04,0.001,0.081,0.001,0.122,0.001s0.082,0,0.122-0.001c7.712-0.126,14.885-2.742,21.82-5.272
	c5.164-1.884,10.041-3.663,14.23-4.007c0.559-0.046,1.115-0.122,1.671-0.187l6.275,55.64c1.331,11.803-1.726,23.631-8.609,33.304
	c-19.527,27.445-30.94,47.778-37.377,62.788c-6.488-19.675-15.554-40.577-27.208-62.651c-24.336-46.099-50.754-79.543-51.867-80.944
	c-2.576-3.244-7.291-3.785-10.536-1.209c-3.243,2.575-3.785,7.292-1.211,10.537c1.027,1.295,100.265,127.672,86.665,220.549
	c-48.699-4.951-104.985-8.898-160.66-8.898c-4.143,0-7.5,3.358-7.5,7.5s3.357,7.5,7.5,7.5c103.82,0,209.946,13.881,263.966,22.155
	c19.403,2.972,36.656,15.021,46.151,32.232C443.419,442.595,443.051,443.542,442.778,444.009z"/>
<g>
</g>
<g>
</g>
<g>
</g>
<g>
</g>
<g>
</g>
<g>
</g>
<g>
</g>
<g>
</g>
<g>
</g>
<g>
</g>
<g>
</g>
<g>
</g>
<g>
</g>
<g>
</g>
<g>
</g>
</svg>
