<?xml version="1.0" encoding="iso-8859-1"?>
<!-- Generator: Adobe Illustrator 18.0.0, SVG Export Plug-In . SVG Version: 6.00 Build 0)  -->
<!DOCTYPE svg PUBLIC "-//W3C//DTD SVG 1.1//EN" "http://www.w3.org/Graphics/SVG/1.1/DTD/svg11.dtd">
<svg version="1.1" id="Capa_1" xmlns="http://www.w3.org/2000/svg" xmlns:xlink="http://www.w3.org/1999/xlink" x="0px" y="0px"
	 viewBox="0 0 464.854 464.854" style="enable-background:new 0 0 464.854 464.854;" xml:space="preserve">
<path d="M459.959,183.13l-2.494-0.924c-7.507-2.78-12.771-9.733-13.409-17.713c-0.205-2.568-1.714-4.851-3.996-6.046
	c-0.603-0.316-13.12-6.778-28.026-7.424c-1.425-9.345-2.35-20.773-2.361-20.915c-0.231-2.892-2.11-5.391-4.823-6.417
	c-2.714-1.026-5.776-0.395-7.862,1.62c-2.215,2.139-20.586,20.38-22.838,38.985c-8.341,6.99-31.564,25.869-38.899,31.827
	c-6.53-0.286-22.613-0.578-39.796,2.241c-13.078,2.146-26.797,1.274-39.674-2.52c-20.531-6.05-50.9-7.375-87.822-3.836
	c-21.839,2.094-39.769,5.499-54.176,8.235c-11.797,2.241-26.351,5.005-30.211,3.587l-16.205-30.91
	c-11.779-22.467-8.955-49.625,7.196-69.187c11.98-14.511,29.643-22.833,48.46-22.833h16.284c9.665,0,17.528-7.863,17.528-17.529
	s-7.863-17.529-17.528-17.529h-16.553c-29.976,0-58.068,13.295-77.072,36.477c-24.655,30.074-29.539,72.075-12.441,107.003
	l23.491,47.989l0.279,3.436c-9.835,19.027-12.145,41.238-6.428,61.852L4.65,321.478c-3.185,1.309-5.069,4.618-4.57,8.025
	l12.178,83.094c0.54,3.683,3.699,6.412,7.421,6.412h33.667c4.142,0,7.5-3.358,7.5-7.5v-5.014c0-10.291-6.717-19.042-15.998-22.099
	l-0.909-23.625l59.21-1.659l-0.124,1.662c-0.997,13.36,5.368,26.186,16.612,33.471c25.006,16.201,53.972,24.764,83.767,24.764h6.1
	c4.142,0,7.5-3.358,7.5-7.5v-0.716c0-11.099-6.605-21.065-16.828-25.388c-1.691-0.716-22.308-9.388-34.341-14.449l10.326-14.695
	c6.679,1.424,19.36,3.465,37.216,3.465c8.857,0,18.995-0.508,30.29-1.837l14.464,54.125c0.877,3.281,3.849,5.564,7.246,5.564h37.249
	c4.142,0,7.5-3.358,7.5-7.5v-2.149c0-11.946-8.528-21.937-19.815-24.208l-2.82-5.642l3.141-19.632l23.974-12.072l59.726,68.626
	c1.424,1.637,3.488,2.576,5.658,2.576h33.67c4.142,0,7.5-3.358,7.5-7.5c0-7.169-2.794-13.91-7.867-18.983
	c-3.746-3.746-8.405-6.247-13.477-7.297l-24.252-68.4c11.018-7.208,18.279-19.132,19.405-32.51
	c2.146-25.483,19.295-46.909,43.69-54.583c14.329-4.508,24.417-17.091,25.699-32.058l0.466-5.44
	C465.114,187.442,463.122,184.302,459.959,183.13z M396.607,149.068c0.214,1.611,0.445,3.223,0.689,4.791l-4.677,1.788
	C393.794,153.399,395.162,151.177,396.607,149.068z M46.711,182.73c-14.524-29.671-10.376-65.351,10.568-90.898
	c16.145-19.692,40.008-30.987,65.473-30.987h16.553c1.394,0,2.528,1.134,2.528,2.529s-1.134,2.529-2.528,2.529h-16.284
	c-23.309,0-45.188,10.309-60.027,28.283c-20.005,24.231-23.504,57.871-8.914,85.701l15.171,28.937l-5,9.737L46.711,182.73z
	 M45.463,404.009H26.159l-8.288-56.554l10.912,9.548l1.309,34.021c0.155,4.027,3.465,7.212,7.495,7.212
	C41.274,398.235,44.406,400.666,45.463,404.009z M38.881,345.907l-17.325-15.159l41.088-16.885c3.631-1.492,5.498-5.533,4.278-9.266
	l-0.987-3.021c-2.736-8.379-3.81-17.144-3.304-25.807c7.336,23.407,22.213,44.195,42.369,58.551l-0.728,9.755L38.881,345.907z
	 M194.333,399.219c2.376,1.005,4.324,2.678,5.662,4.748c-23.711-0.577-46.736-7.178-67.139-19.2l20.475-2.799
	C161.344,385.339,192.246,398.336,194.333,399.219z M293.512,402.576h-22.375l-7.117-26.633l8.614,0.053l-0.335,2.093
	c-0.248,1.549-0.004,3.136,0.697,4.539l5.73,11.461c1.271,2.541,3.868,4.146,6.708,4.146
	C288.803,398.235,291.775,399.961,293.512,402.576z M362.146,322.435l11.845,33.409l-21.313,11.426l-24.246-27.859L362.146,322.435z
	 M394.32,398.236c3.162,0,6.133,1.23,8.367,3.463c0.281,0.281,0.546,0.573,0.795,0.877h-20.076l-20.627-23.701l16.284-8.73
	l8.19,23.098C388.313,396.236,391.145,398.236,394.32,398.236z M380.023,281.627c-0.865,10.275-7.26,19.251-16.688,23.425
	c-0.114,0.05-0.226,0.103-0.337,0.159l-69.443,34.968l1.551-9.693l23.125-11.875c3.685-1.892,5.138-6.413,3.246-10.098
	c-1.893-3.685-6.414-5.138-10.098-3.246l-26.504,13.61c-2.125,1.091-3.603,3.129-3.98,5.487l-5.863,36.646l-15.027-0.092
	l-8.861-33.156l18.102-36.873c1.825-3.718,0.291-8.212-3.427-10.038c-3.718-1.825-8.212-0.291-10.038,3.427l-19.341,39.398
	c-0.799,1.628-0.981,3.49-0.513,5.241l3.825,14.314c-29.136,3.176-49.633,0.455-58.942-1.355l1.8-32.388
	c0.23-4.136-2.937-7.675-7.072-7.905c-4.117-0.225-7.674,2.937-7.904,7.073l-2.031,36.54l-15.511,22.074l-30.641,4.189
	c-1.183-2.988-1.714-6.25-1.467-9.57l2.296-30.768c0.204-2.725-1.091-5.345-3.379-6.838c-25.168-16.43-41.646-44.124-44.076-74.082
	l-1.086-13.384l9.328-18.165c7.897,1.574,19.194-0.57,35.514-3.67c14.104-2.678,31.658-6.012,52.809-8.04
	c35.032-3.359,63.439-2.22,82.151,3.293c15.027,4.427,31.051,5.442,46.342,2.933c20.056-3.29,39.095-1.929,39.28-1.915
	c1.91,0.145,3.802-0.448,5.29-1.655c1.481-1.201,34.727-28.179,42.867-35.101l22.087-8.445c6.543-0.412,13.001,1.021,17.808,2.558
	l-1.704,2.553c-9.155,13.715-9.029,31.354,0.32,44.937l1.028,1.493C399.638,229.205,382.4,253.402,380.023,281.627z
	 M439.051,211.757l-2.865-4.161c-5.307-7.711-5.845-17.505-1.621-25.664c3.572,5.618,8.683,10.226,14.84,13.141
	C448.769,202.087,444.866,208.198,439.051,211.757z"/>
<g>
</g>
<g>
</g>
<g>
</g>
<g>
</g>
<g>
</g>
<g>
</g>
<g>
</g>
<g>
</g>
<g>
</g>
<g>
</g>
<g>
</g>
<g>
</g>
<g>
</g>
<g>
</g>
<g>
</g>
</svg>
