<?xml version="1.0" encoding="iso-8859-1"?>
<!-- Generator: Adobe Illustrator 18.0.0, SVG Export Plug-In . SVG Version: 6.00 Build 0)  -->
<!DOCTYPE svg PUBLIC "-//W3C//DTD SVG 1.1//EN" "http://www.w3.org/Graphics/SVG/1.1/DTD/svg11.dtd">
<svg version="1.1" id="Capa_1" xmlns="http://www.w3.org/2000/svg" xmlns:xlink="http://www.w3.org/1999/xlink" x="0px" y="0px"
	 viewBox="0 0 485.876 485.876" style="enable-background:new 0 0 485.876 485.876;" xml:space="preserve">
<path d="M391.793,444.209h-71.932l-2.862-117.89c-0.228-9.374,1.185-18.63,4.198-27.51l30.234-89.11
	c2.173-6.405,3.057-13.075,2.628-19.823l-4.439-69.826c0.074-0.058,0.152-0.119,0.225-0.177c7.394-5.846,11.529-14.95,11.063-24.355
	c-0.337-6.783-0.923-16.38-1.801-23.579c-0.079-0.644-0.24-1.274-0.481-1.876c-0.455-1.137-1.022-2.287-1.711-3.459l0.236-0.278
	c1.913-2.251,3.057-5.114,3.222-8.061c0.695-12.416,2.125-42.344,0.41-52.066c-0.401-2.272-1.826-4.234-3.863-5.318
	c-2.038-1.085-4.46-1.169-6.569-0.232c-2.927,1.301-8.006,4.331-18.322,15.571c-0.088,0.092-0.175,0.186-0.259,0.282
	c-5.862,6.404-11.674,13.539-16.095,19.172h-30.938c-4.42-5.633-10.232-12.767-16.093-19.17c-0.087-0.1-0.176-0.197-0.268-0.292
	c-10.312-11.235-15.39-14.264-18.315-15.564c-2.108-0.937-4.531-0.851-6.569,0.232c-2.038,1.083-3.462,3.045-3.863,5.317
	c-1.717,9.729-0.285,39.653,0.41,52.067c0.165,2.948,1.31,5.812,3.223,8.063l0.235,0.276c-0.688,1.172-1.256,2.321-1.711,3.458
	c-0.241,0.603-0.403,1.234-0.481,1.878c-0.878,7.2-1.463,16.796-1.8,23.579c-0.358,7.217,2.003,14.251,6.458,19.778l-18.695,34.27
	l-56.745,19.556c-39.332,13.555-68.792,47.302-76.886,88.071c-10.317,51.975-22.189,123.311-20.158,167.996
	c0.542,11.927,3.692,23.57,9.112,33.671c6.749,12.579,18.213,27.017,47.203,27.017h262c11.487,0,20.833-9.346,20.833-20.833
	S403.28,444.209,391.793,444.209z M257.359,26.389c0.067,0.077,0.137,0.152,0.207,0.226c6.972,7.616,14.039,16.564,17.641,21.235
	c1.731,2.245,4.507,3.256,7.153,2.822h35.694c2.649,0.434,5.422-0.578,7.153-2.822c3.62-4.694,10.74-13.71,17.746-21.351
	c0.013-0.015,0.027-0.029,0.04-0.043c1.315-1.435,2.516-2.701,3.612-3.82c-0.038,10-0.561,23.14-1.181,34.327l-3.708,4.362
	c-2.358,2.774-2.383,6.842-0.059,9.646c1.42,1.712,2.23,2.996,2.693,3.898c0.752,6.629,1.271,15.207,1.578,21.392
	c0.227,4.572-1.786,9-5.384,11.844c-8.547,6.757-24.719,19.016-36.992,25.2c-2.094,1.055-4.595,1.055-6.688,0
	c-12.276-6.186-28.446-18.443-36.991-25.2c-3.599-2.845-5.611-7.273-5.385-11.844c0.307-6.185,0.825-14.762,1.577-21.392
	c0.463-0.903,1.273-2.188,2.693-3.898c2.325-2.803,2.301-6.871-0.058-9.646l-3.708-4.362c-0.621-11.187-1.144-24.327-1.182-34.327
	C254.887,23.738,256.067,24.982,257.359,26.389z M391.793,470.876h-262c-19.763,0-27.655-7.312-33.985-19.108
	c-4.365-8.135-6.905-17.561-7.345-27.26c-1.963-43.183,9.731-113.233,19.887-164.394c7.058-35.555,32.754-64.987,67.061-76.811
	l59.493-20.503c1.768-0.609,3.245-1.857,4.14-3.499l18.542-33.989c10.089,7.666,22.269,16.22,32.527,21.389
	c3.161,1.592,6.627,2.389,10.094,2.389s6.934-0.796,10.094-2.389c7.802-3.931,16.716-9.824,24.98-15.794l3.809,59.919
	c0.304,4.784-0.323,9.513-1.863,14.053l-30.234,89.11c-3.581,10.553-5.259,21.553-4.988,32.693l2.853,117.526h-10.497
	l-16.466-123.491c-0.021-0.164-0.049-0.327-0.082-0.489l-21.333-106c-0.817-4.06-4.768-6.69-8.833-5.873
	c-4.061,0.817-6.69,4.771-5.873,8.833l21.285,105.757l2.145,16.087c-7.313-17.289-19.631-32.183-35.955-42.922
	c-3.458-2.275-8.11-1.317-10.388,2.144c-2.276,3.46-1.317,8.111,2.144,10.388c21.958,14.446,35.348,37.786,36.736,64.033
	c1.387,26.248-9.467,50.869-29.78,67.55l-4.851,3.984h-20.257c-25.435,0-50.231-7.204-71.707-20.833
	c-3.498-2.221-8.132-1.183-10.351,2.314s-1.184,8.131,2.314,10.351c23.882,15.156,51.458,23.167,79.744,23.167h188.942
	c3.216,0,5.833,2.617,5.833,5.833S395.009,470.876,391.793,470.876z M279.227,444.209h-33.483
	c14.467-14.908,23.563-33.744,26.263-54.156L279.227,444.209z"/>
<g>
</g>
<g>
</g>
<g>
</g>
<g>
</g>
<g>
</g>
<g>
</g>
<g>
</g>
<g>
</g>
<g>
</g>
<g>
</g>
<g>
</g>
<g>
</g>
<g>
</g>
<g>
</g>
<g>
</g>
</svg>
