<?xml version="1.0" encoding="iso-8859-1"?>
<!-- Generator: Adobe Illustrator 18.0.0, SVG Export Plug-In . SVG Version: 6.00 Build 0)  -->
<!DOCTYPE svg PUBLIC "-//W3C//DTD SVG 1.1//EN" "http://www.w3.org/Graphics/SVG/1.1/DTD/svg11.dtd">
<svg version="1.1" id="Capa_1" xmlns="http://www.w3.org/2000/svg" xmlns:xlink="http://www.w3.org/1999/xlink" x="0px" y="0px"
	 viewBox="0 0 475.859 475.859" style="enable-background:new 0 0 475.859 475.859;" xml:space="preserve">
<path d="M378.981,285.789c-15.009-40.689-31.888-73.089-36.598-81.865c10.297-61.291-19.063-129.949-25.584-144.177
	c1.093-11.694,0.393-23.542-2.142-35.169l-4.071-18.676c-0.619-2.838-2.82-5.063-5.651-5.713c-2.833-0.648-5.782,0.395-7.576,2.679
	l-37.133,47.304h-44.184L178.908,2.869c-1.793-2.284-4.741-3.328-7.576-2.679c-2.831,0.649-5.032,2.875-5.651,5.713l-4.071,18.676
	c-2.492,11.431-3.205,23.077-2.19,34.58c-2.945,6.4-12.324,27.823-19.465,55.74c-8.587,33.572-10.725,63.362-6.429,88.932
	c-4.643,8.645-21.588,41.132-36.647,81.959C73.41,349.412,66.502,400.099,76.345,436.44c2.907,10.734,11.414,19.136,22.202,21.928
	c38.04,9.844,58.179,12.167,67.93,12.527c1.046,2.913,3.824,4.964,7.052,4.964h43.84c8.336,0,15.775-3.9,20.603-9.965
	c4.827,6.066,12.266,9.965,20.603,9.965h43.84c3.23,0,6.008-2.053,7.053-4.968c9.783-0.37,29.915-2.708,67.844-12.523
	c10.787-2.791,19.295-11.193,22.203-21.928C409.358,400.099,402.448,349.412,378.981,285.789z M176.266,27.773l0.679-3.114
	l29.55,37.644c1.422,1.811,3.597,2.869,5.899,2.869h51.479c2.303,0,4.478-1.058,5.899-2.869l29.55-37.644L300,27.774
	c4.088,18.75,2.711,38.166-3.981,56.151c-0.407,1.095-0.554,2.271-0.426,3.433l4.234,38.638c0.438,3.999-1.505,7.88-4.96,9.926
	l-54.832,28.468c-1.191,0.618-2.613,0.618-3.803,0l-54.834-28.468c-3.454-2.047-5.398-5.927-4.96-9.927l4.234-38.637
	c0.128-1.162-0.019-2.337-0.426-3.433C173.555,65.94,172.178,46.523,176.266,27.773z M164.904,85.463
	c0.222,0.665,0.434,1.333,0.668,1.995l-4.044,36.901c-1.094,9.97,3.819,19.641,12.517,24.637c0.093,0.053,0.186,0.104,0.28,0.153
	l54.995,28.552c2.759,1.433,5.785,2.149,8.813,2.148c3.026,0,6.054-0.716,8.813-2.148l54.994-28.552
	c0.095-0.049,0.188-0.1,0.28-0.153c8.697-4.997,13.61-14.667,12.517-24.637l-4.044-36.902c0.187-0.527,0.353-1.059,0.532-1.588
	c3.34,9.069,7.086,20.408,10.303,33.032c12.432,48.798,8.105,81.085,1.668,100.281c-19.215,8.723-40.558,44.444-46.98,55.822
	c-15.796,27.982-28.997,60.423-38.244,93.548c-9.247-33.125-22.448-65.565-38.244-93.548c-6.424-11.378-27.77-47.104-46.985-55.824
	C137.359,173.55,153.605,116.147,164.904,85.463z M288.171,423.098l-1.836,8.131l-39.33,2.489l-1.067-34.7
	c8.563-40.882,23.938-82.269,43.341-116.639c13.263-23.494,25.092-37.712,33.178-44.748c1.235,24.94,1.471,85.146-19.643,138.651
	C296.409,392.512,291.62,407.825,288.171,423.098z M189.608,431.229l-1.836-8.132c-3.448-15.273-8.238-30.586-14.643-46.815
	c-21.126-53.539-20.877-113.785-19.641-138.697c2.328,2.01,5.137,4.773,8.448,8.575c7.96,9.139,16.512,21.664,24.729,36.219
	c19.402,34.371,34.778,75.757,43.341,116.639l-1.067,34.7L189.608,431.229z M164.939,455.794
	c-8.976-0.556-27.809-2.935-62.634-11.947c-5.581-1.444-9.98-5.785-11.481-11.328c-17.226-63.601,28.463-166.483,48.333-206.739
	c0.025,0.069,0.047,0.14,0.072,0.21c-1.201,12.802-6.784,88.054,19.947,155.798c6.119,15.506,10.688,30.099,13.965,44.613
	l1.912,8.469C168.438,439.773,164.68,447.522,164.939,455.794z M217.369,460.859h-36.973l-0.435-4.924
	c-0.341-3.867,1.505-7.526,4.817-9.55l0.64-0.391l43.277,2.739v0.8C228.696,455.778,223.615,460.859,217.369,460.859z
	 M295.982,455.935l-0.435,4.924h-36.973c-6.246,0-11.327-5.082-11.327-11.327v-0.8l43.277-2.739l0.641,0.392
	C294.477,448.409,296.322,452.069,295.982,455.935z M385.036,432.518c-1.502,5.543-5.901,9.884-11.482,11.329
	c-34.718,8.985-53.541,11.376-62.549,11.941c0.257-8.27-3.501-16.016-10.114-20.918l1.911-8.468
	c3.278-14.514,7.847-29.107,13.965-44.614c26.732-67.745,21.148-142.997,19.947-155.799c0.014-0.038,0.026-0.077,0.039-0.115
	C356.652,266.185,402.261,368.924,385.036,432.518z"/>
<g>
</g>
<g>
</g>
<g>
</g>
<g>
</g>
<g>
</g>
<g>
</g>
<g>
</g>
<g>
</g>
<g>
</g>
<g>
</g>
<g>
</g>
<g>
</g>
<g>
</g>
<g>
</g>
<g>
</g>
</svg>
