<?xml version="1.0" encoding="iso-8859-1"?>
<!-- Generator: Adobe Illustrator 18.0.0, SVG Export Plug-In . SVG Version: 6.00 Build 0)  -->
<!DOCTYPE svg PUBLIC "-//W3C//DTD SVG 1.1//EN" "http://www.w3.org/Graphics/SVG/1.1/DTD/svg11.dtd">
<svg version="1.1" id="Capa_1" xmlns="http://www.w3.org/2000/svg" xmlns:xlink="http://www.w3.org/1999/xlink" x="0px" y="0px"
	 viewBox="0 0 472.254 472.254" style="enable-background:new 0 0 472.254 472.254;" xml:space="preserve">
<path d="M470.68,127.69c-0.057-0.186-0.121-0.369-0.192-0.55l-8.485-21.575c6.188-10.745,6.035-28.826-0.476-53.875
	c-1.351-5.196-5.442-9.172-10.678-10.378c-5.234-1.207-10.651,0.579-14.136,4.659c-7.843,9.18-16.046,22.428-20.03,29.136
	c-6.51-0.464-13.06-0.464-19.57,0c-3.984-6.708-12.187-19.956-20.03-29.136c-3.486-4.079-8.903-5.864-14.136-4.659
	c-5.236,1.206-9.328,5.183-10.678,10.378c-6.51,25.049-6.664,43.13-0.476,53.875l-8.485,21.575c-0.071,0.181-0.135,0.364-0.192,0.55
	c-1.684,5.502-1.969,11.201-1.028,16.66c-6.335,6.066-14.768,9.488-23.641,9.488H145.281l-3.66-6.405
	c-9.2-16.101-24.747-28.101-42.653-32.921c-12.515-3.37-25.467,2.287-31.501,13.754c-6.401,12.162-2.771,27.323,8.444,35.267
	l18.729,13.266l-23.28,74.073c-5.956,18.952-15.641,36.114-28.785,51.011C24.7,322.14,12.34,346.827,6.829,373.276L0.487,403.72
	c-1.211,5.812-0.146,11.786,3.001,16.822c4.216,6.745,11.481,10.771,19.435,10.771h24.264c4.142,0,7.5-3.358,7.5-7.5v-4.616
	c0-10.955-6.559-20.358-16.152-24.354c1.959-10.2,9.611-18.505,19.661-21.264l30.807-8.457l39.66,46.27
	c6.596,7.695,16.191,12.108,26.326,12.108h28.124c2.31,0,4.49-1.064,5.912-2.884s1.925-4.194,1.364-6.435l-2.441-9.765
	c-2.771-11.082-11.665-19.548-22.657-21.918l-12.575-15.718l31.477-29.023l2.578,1.015c8.396,3.305,17.362,4.991,26.354,4.991
	c3.11,0,6.224-0.202,9.318-0.608l111.875-14.689l39.118,82.583c5.831,12.31,18.4,20.264,32.021,20.264h30.757
	c3.9,0,7.15-2.99,7.474-6.877c1.168-14.016-8.011-26.844-21.51-30.356l-17.843-79.605c-0.195-0.871-0.345-1.747-0.456-2.626
	l43.986-64.915c4.283-6.203,6.959-13.444,7.74-20.941l6.534-62.72C471.17,153.91,474.532,140.279,470.68,127.69z M357.382,132.338
	l9.854-25.056c1.046-2.659,0.49-5.68-1.433-7.793c-5.858-6.437-3.542-26.11,0.675-42.825c9.509,11.469,19.914,29.833,20.021,30.021
	c1.472,2.607,4.353,4.088,7.332,3.771c8.671-0.932,17.464-0.932,26.134,0c2.974,0.32,5.861-1.163,7.333-3.771
	c0.107-0.189,10.496-18.535,20.02-30.021c4.217,16.715,6.533,36.388,0.675,42.825c-1.923,2.113-2.479,5.134-1.433,7.793
	l9.854,25.056c2.298,7.866-0.189,16.389-6.379,21.783l-13.865,12.083c-0.675,0.588-1.565,0.827-2.444,0.661l-9.08-1.737
	c-2.637-0.505-5.345,0.439-7.096,2.477c-1.432,1.665-5.375,3.458-10.651,3.458c-5.276,0-9.22-1.792-10.651-3.457
	c-1.44-1.675-3.525-2.611-5.687-2.611c-0.468,0-0.94,0.044-1.41,0.133l-9.081,1.737c-0.881,0.168-1.77-0.074-2.444-0.661
	l-13.865-12.083C357.571,148.727,355.083,140.203,357.382,132.338z M137.407,360.492c-2.896,2.669-3.233,7.124-0.772,10.199
	l18.749,23.435c1.26,1.576,3.103,2.577,5.11,2.778c6.205,0.621,11.39,5.102,12.902,11.151l0.111,0.446h-18.518
	c-5.75,0-11.194-2.504-14.937-6.87l-35.212-41.081c10.177-3.608,19.606-9.291,27.524-16.643l20.084-18.649l16.238,6.394
	L137.407,360.492z M435.484,238.465l-27.905,41.182l4.808-32.855c0.6-4.099-2.236-7.907-6.335-8.507
	c-4.096-0.596-7.907,2.236-8.507,6.335l-8.431,57.614c-0.759,5.185-0.563,10.408,0.583,15.522l18.887,84.263
	c0.64,2.857,2.884,5.08,5.747,5.693l3.478,0.745c4.428,0.949,7.964,3.959,9.736,7.857h-22.089c-7.854,0-15.102-4.586-18.464-11.685
	l-45.223-95.471c-1.891-3.992-3.006-8.25-3.313-12.656l-4.125-59.13c-0.289-4.132-3.872-7.242-8.004-6.96
	c-4.132,0.289-7.248,3.872-6.96,8.004l4.125,59.13c0.403,5.782,1.795,11.381,4.115,16.674L220.49,328.283
	c-9.521,1.25-19.284,0.051-28.224-3.468l-27.626-10.878l20.451-18.991c3.035-2.819,3.211-7.564,0.393-10.6
	c-2.819-3.035-7.564-3.211-10.6-0.393l-52.726,48.961c-7.554,7.014-16.801,12.164-26.74,14.892l-41.192,11.308
	c-15.884,4.36-27.896,17.675-30.604,33.922l-1.018,6.107c-0.343,2.058,0.187,4.166,1.461,5.817s3.18,2.697,5.258,2.886
	c4.917,0.447,8.828,3.901,10.002,8.466H22.923c-2.748,0-5.258-1.392-6.714-3.721c-1.087-1.74-1.456-3.803-1.037-5.812l6.342-30.445
	c4.98-23.905,16.152-46.219,32.308-64.528c14.542-16.481,25.258-35.47,31.847-56.438l24.918-79.284
	c0.976-3.106-0.163-6.487-2.82-8.369L84.58,151.292c-5.101-3.613-6.752-10.509-3.841-16.041c2.746-5.216,8.637-7.787,14.328-6.256
	c14.076,3.79,26.297,13.222,33.529,25.879l5.82,10.184c1.335,2.337,3.82,3.779,6.512,3.779h177.518
	c10.815,0,21.176-3.535,29.633-9.921c1.655,2.366,3.591,4.564,5.827,6.513l13.865,12.083c4.172,3.636,9.679,5.125,15.117,4.085
	l5.441-1.041c4.774,3.5,11.397,5.505,18.569,5.505c7.17,0,13.794-2.006,18.568-5.505l5.439,1.041
	c5.228,1.001,10.517-0.343,14.625-3.679l-4.846,46.521C440.164,229.441,438.378,234.272,435.484,238.465z"/>
<g>
</g>
<g>
</g>
<g>
</g>
<g>
</g>
<g>
</g>
<g>
</g>
<g>
</g>
<g>
</g>
<g>
</g>
<g>
</g>
<g>
</g>
<g>
</g>
<g>
</g>
<g>
</g>
<g>
</g>
</svg>
