<?xml version="1.0" encoding="iso-8859-1"?>
<!-- Generator: Adobe Illustrator 18.0.0, SVG Export Plug-In . SVG Version: 6.00 Build 0)  -->
<!DOCTYPE svg PUBLIC "-//W3C//DTD SVG 1.1//EN" "http://www.w3.org/Graphics/SVG/1.1/DTD/svg11.dtd">
<svg version="1.1" id="Capa_1" xmlns="http://www.w3.org/2000/svg" xmlns:xlink="http://www.w3.org/1999/xlink" x="0px" y="0px"
	 viewBox="0 0 469.198 469.198" style="enable-background:new 0 0 469.198 469.198;" xml:space="preserve">
<path d="M456.732,186.335c0.853-9.797,0.753-18.045,0.593-22.421c3.063-3.678,4.547-7.599,4.414-11.745
	c-0.209-6.543-1.23-13.98-3.038-22.11c-0.693-5.193-0.128-10.595,1.639-15.641c6.769-19.329,1.775-37.849,0.135-43.935l-0.198-0.738
	c-0.563-2.143-2.046-3.926-4.049-4.873c-2.004-0.946-4.321-0.959-6.335-0.034c-15.43,7.089-25.11,20.416-29.922,28.692h-28.214
	c-4.812-8.276-14.492-21.603-29.922-28.692c-2.013-0.925-4.332-0.913-6.335,0.034s-3.485,2.73-4.049,4.873l-0.198,0.738
	c-1.641,6.086-6.634,24.606,0.135,43.935c1.767,5.046,2.332,10.448,1.639,15.641c-1.808,8.13-2.829,15.567-3.038,22.109
	c-0.192,5.976,2.973,11.484,9.4,16.468c-0.298,3.127-0.616,7.621-0.67,12.916c-7.762,1.58-23.919,5.07-58.578,12.748
	c-47.747,10.578-93.221,32.243-131.506,62.652c-29.131,23.139-65.009,37.553-103.755,41.686
	c-12.923,1.378-24.605,5.371-34.722,11.866c-14.953,9.6-25.539,24.918-29.045,42.029c-3.974,19.393,3.457,28.973,10.39,33.594
	c1.646,1.097,4.719,3.146,13.616,3.146c12.057,0,34.81-3.762,79.198-18.75c35.075-11.844,71.364-26.868,89.747-36.969
	c0.179,1.347,0.012,2.766-0.535,4.104c-1.057,2.582-2.102,5.179-3.063,7.592c-3.996,10.027-0.558,21.284,8.361,27.375l45.561,31.115
	c1.246,0.851,2.721,1.307,4.229,1.307h34.149c4.753,0,9.147-2.372,11.756-6.346c2.608-3.973,3.038-8.949,1.147-13.311l-0.482-1.113
	c-3.846-8.873-12.578-14.605-22.247-14.605h-2.463l-21.882-13.778l33.21-12.076c3.95-1.437,7.528-3.517,10.627-6.138
	c6.467,0.472,21.142,1.407,36.126,1.407c9.389,0,18.89-0.37,26.568-1.448l22.054,55.133c2.982,7.457,10.099,12.275,18.13,12.275
	h5.441h3.063h29.591c4.141,0,8.155-1.717,11.016-4.71s4.394-7.083,4.205-11.218c-0.321-7.083-4.546-13.273-11.026-16.153
	l-1.994-0.886l-5.334-50.974c6.46-8.06,25.931-34.042,35.39-65.375C475.72,222.408,461.627,194.572,456.732,186.335z M363.75,83.441
	c9.113,7.001,14.613,16.513,16.844,20.954c1.272,2.535,3.866,4.135,6.702,4.135h37.136c2.836,0,5.43-1.6,6.702-4.135
	c2.23-4.441,7.73-13.952,16.844-20.954c1.098,6.994,1.522,16.547-1.794,26.019c-2.59,7.393-3.383,15.342-2.294,22.988
	c0.027,0.196,0.063,0.391,0.106,0.583c1.644,7.332,2.569,13.931,2.751,19.617c0.026,0.813-2.3,4.903-14.153,10.062
	c-6.619,2.881-13.396,6.478-21.331,11.32c-1.396,0.852-3.363,1.34-5.398,1.34c-2.036,0-4.004-0.489-5.399-1.34
	c-7.935-4.842-14.712-8.439-21.331-11.32c-11.854-5.159-14.18-9.249-14.153-10.063c0.182-5.685,1.107-12.285,2.751-19.616
	c0.043-0.193,0.079-0.388,0.106-0.583c1.089-7.646,0.296-15.595-2.294-22.988C362.227,99.988,362.652,90.435,363.75,83.441z
	 M451.301,251.393c-10.256,33.97-34.264,62.199-34.502,62.477c-1.347,1.565-1.988,3.618-1.773,5.672l6.112,58.408
	c0.279,2.667,1.962,4.983,4.413,6.073l5.956,2.647c1.254,0.558,2.071,1.755,2.134,3.126c0.002,0.038,0.005,0.102-0.065,0.175
	c-0.07,0.073-0.133,0.073-0.171,0.073h-12.473c0.317-2.426,0.116-4.927-0.641-7.365c-2.164-6.978-7.959-12.202-15.123-13.634
	l-0.257-0.051l0.435-47.714c0.1-10.933,5.073-21.095,13.645-27.881c3.248-2.571,3.796-7.288,1.225-10.536
	c-2.571-3.248-7.289-3.794-10.535-1.225c-12.146,9.616-19.192,24.015-19.334,39.505l-0.49,53.92
	c-0.032,3.601,2.498,6.717,6.029,7.423l6.342,1.268c1.771,0.354,3.203,1.645,3.738,3.371c0.294,0.945-0.085,1.661-0.337,2.002
	c-0.252,0.342-0.823,0.917-1.813,0.917h-8.504c-1.861,0-3.511-1.117-4.202-2.846l-39.085-97.711
	c-1.538-3.846-5.905-5.716-9.749-4.178c-3.846,1.538-5.717,5.903-4.179,9.749l11.278,28.194
	c-14.104,1.456-34.124,0.746-46.851,0.033c3.159-8.407,2.966-17.517-0.585-25.847l-6.35-14.898c-1.624-3.81-6.029-5.583-9.84-3.959
	s-5.583,6.03-3.959,9.84l6.35,14.898c2.156,5.058,2.138,10.621-0.052,15.664c-2.189,5.043-6.24,8.856-11.407,10.735l-47.605,17.31
	c-2.69,0.979-4.59,3.403-4.894,6.25c-0.305,2.847,1.038,5.619,3.461,7.145l36.676,23.092c1.196,0.753,2.582,1.153,3.996,1.153h4.627
	c3.615,0,6.888,2.103,8.396,5.375h-30.403l-43.647-29.808c-3.076-2.101-4.263-5.981-2.886-9.437
	c0.944-2.371,1.972-4.924,3.011-7.464c3.059-7.476,1.984-16.02-2.801-22.297c-7.134-9.358-10.366-28.862-11.01-35.588
	c-0.392-4.121-4.05-7.147-8.171-6.757c-4.124,0.389-7.151,4.047-6.763,8.171c0.088,0.932,1.854,18.832,8.367,33.453
	c-16.998,9.44-52.173,24.004-86.484,35.642c-68.986,23.402-80.665,17.718-80.728,17.685c-4.51-3.006-5.86-9.096-4.015-18.103
	c2.698-13.173,10.883-24.989,22.453-32.417c8.137-5.224,17.627-8.445,28.209-9.574c41.578-4.434,80.132-19.944,111.494-44.855
	c36.513-29.002,79.883-49.665,125.42-59.753c31.997-7.088,48.002-10.543,55.977-12.214c1.368,13.848,5.236,29.229,14.692,40.036
	c1.483,1.694,3.56,2.561,5.647,2.561c1.753,0,3.514-0.611,4.936-1.855c3.117-2.728,3.434-7.466,0.706-10.583
	c-6.616-7.561-10.574-20.253-11.445-36.704c-0.262-4.945-0.204-9.56-0.03-13.398c5.753,2.55,11.744,5.752,18.784,10.048
	c3.791,2.314,8.36,3.537,13.214,3.537c4.853,0,9.422-1.223,13.213-3.537c7.333-4.475,13.53-7.771,19.503-10.37
	c1.323-0.576,2.57-1.165,3.781-1.76c-0.379,14.819-2.798,38.833-13.651,53.303c-2.485,3.313-1.813,8.015,1.5,10.5
	c1.35,1.012,2.929,1.5,4.494,1.5c2.28,0,4.532-1.036,6.006-3c5.044-6.726,8.593-14.854,11.081-23.267
	C454.42,224.027,455.586,237.201,451.301,251.393z"/>
<g>
</g>
<g>
</g>
<g>
</g>
<g>
</g>
<g>
</g>
<g>
</g>
<g>
</g>
<g>
</g>
<g>
</g>
<g>
</g>
<g>
</g>
<g>
</g>
<g>
</g>
<g>
</g>
<g>
</g>
</svg>
