<?xml version="1.0" encoding="iso-8859-1"?>
<!-- Generator: Adobe Illustrator 18.0.0, SVG Export Plug-In . SVG Version: 6.00 Build 0)  -->
<!DOCTYPE svg PUBLIC "-//W3C//DTD SVG 1.1//EN" "http://www.w3.org/Graphics/SVG/1.1/DTD/svg11.dtd">
<svg version="1.1" id="Capa_1" xmlns="http://www.w3.org/2000/svg" xmlns:xlink="http://www.w3.org/1999/xlink" x="0px" y="0px"
	 viewBox="0 0 469.545 469.545" style="enable-background:new 0 0 469.545 469.545;" xml:space="preserve">
<path d="M465.321,76.386c-3.311-2.855-7.95-3.536-12.109-2.186c-15.471,5.019-27.112,15.016-32.71,20.568
	c-10.336-3.176-21.51-3.177-31.847,0c-5.665-5.619-17.521-15.79-33.272-20.748c-4.695-1.476-9.786-0.011-12.985,3.83
	c-2.714,3.258-3.4,7.757-2.083,11.787c3.928,12.021,10.288,30.958,12.517,37.583c-0.99,3.303-1.593,6.767-1.797,10.333
	c-0.195,3.42-0.137,6.697,0.142,9.835l-4.397,9.325c-2.881,6.11-8.646,10.35-15.338,11.272
	c-24.34,3.357-71.717,10.134-115.565,17.82c-56.753,9.947-79.236,16.497-88.88,20.521c-8.229-12.502-19.95-22.684-33.589-29.063
	c-20.714-9.687-55.369-30.754-54.737-63.015c0.573-29.193,11.615-46.438,20.777-55.765c3.912-3.982,5.965-9.463,5.631-15.038
	c-0.334-5.585-3.032-10.794-7.404-14.292c-8.456-6.765-20.539-5.585-27.509,2.683C6.967,59.355,1.411,97.464,0.163,117.731
	c-1.257,20.43,4.744,39.332,17.838,56.182c9.39,12.083,22.207,22.851,38.094,32.004c15.404,8.874,26.537,23.038,31.35,39.883h0
	c0.423,1.481,0.623,3.016,0.593,4.556l-0.153,7.786c-0.075,3.808-0.377,7.608-0.906,11.38L81.7,307.197
	c-2.071,14.783-11.557,27.215-24.833,34.041c-9.225,4.743-14.497,14.839-13.118,25.12l9.648,71.922
	c0.499,3.723,3.677,6.503,7.434,6.503h39.684c1.604,0,3.205-0.426,4.512-1.356c2.667-1.896,3.746-5.166,2.917-8.152l-0.428-1.542
	c-3.116-11.22-11.649-19.811-22.496-23.115l-1.865-15.386c-0.523-4.315,1.927-8.44,5.965-10.046l37.914-15.078
	c-0.006,0.402-0.02,0.799-0.048,1.185c-0.003,0.046-0.006,0.093-0.009,0.14c-0.374,7.112-0.654,13.518-0.833,19.04
	c-0.246,7.583,2.652,14.925,8.017,20.29l31.822,31.822c1.406,1.407,3.314,2.197,5.303,2.197h46.009c3.958,0,7.296-3.239,7.509-7.191
	c0.743-13.751-8.938-25.655-22.568-27.72l-13.158-1.993l-5.435-8.54c-2.671-4.198-2.584-9.564,0.222-13.673l35.887-52.55
	c10.906-3.368,56.903-16.665,83.875-10.366c0.355,3.551,1.335,7.025,2.915,10.271l52.318,107.543
	c1.255,2.581,3.874,4.219,6.744,4.219l35.585,0c1.577,0,3.151-0.409,4.447-1.306c2.656-1.839,3.782-5.042,3.039-8.012l-2.416-9.663
	c-2.332-9.326-9.295-16.48-18.074-19.277l8.713-75.8c0.364-3.164,1.304-6.229,2.78-9.05c5.418-10.354,16.062-30.256,26.394-47.059
	c8.12-13.205,13.344-28.387,15.106-43.907c2.682-23.613,7.939-53.773,9.242-61.113c5.775-8.266,8.434-19.208,7.701-32.043
	c-0.204-3.566-0.807-7.03-1.797-10.333c2.248-6.68,8.696-25.882,12.616-37.886c0,0,0,0,0,0
	C470.457,84.69,469.072,79.622,465.321,76.386z M83.577,371.247c-10.358,4.12-16.655,14.725-15.313,25.79l2.508,20.692
	c0.417,3.437,3.131,6.142,6.569,6.546c4.358,0.513,8.263,2.503,11.171,5.506h-21.12l-8.775-65.419
	c-0.538-4.005,1.516-7.938,5.109-9.786c16.658-8.567,28.496-24.242,32.285-42.448c13.497,15.917,23.12,30.958,27.801,43.117
	L83.577,371.247z M413.295,266.757c-10.563,17.176-21.385,37.409-26.896,47.941c-2.345,4.481-3.826,9.297-4.403,14.313
	l-4.111,35.769l-9.058-44.838c-0.858-4.249,0.122-8.688,2.69-12.18l20.663-28.102c11.422-15.534,16.619-34.651,14.634-53.831
	c-0.426-4.12-4.114-7.113-8.232-6.688c-4.12,0.426-7.115,4.112-6.688,8.232c1.6,15.463-2.59,30.876-11.799,43.401l-20.663,28.102
	c-5.066,6.89-7.001,15.651-5.308,24.036l18.447,91.312c0.707,3.499,3.782,6.015,7.352,6.015c5.584,0,10.431,3.784,11.786,9.202
	l0.086,0.344h-21.498L320.03,326.457c-1.28-2.631-1.784-5.558-1.456-8.466l7.438-66.006c0.464-4.116-2.497-7.829-6.613-8.292
	c-4.122-0.462-7.828,2.497-8.292,6.613l-6.464,57.363c-24.48-4.633-58.124,2.537-77.232,7.63c1.549-10.06-0.982-20.562-7.531-29.021
	l-10.959-14.155c-2.536-3.275-7.246-3.875-10.522-1.339c-3.275,2.536-3.875,7.247-1.339,10.522l10.959,14.155
	c6.128,7.916,6.453,18.789,0.807,27.057l-37.348,54.688c-6.195,9.071-6.387,20.919-0.49,30.186l7.266,11.418
	c1.164,1.828,3.062,3.064,5.204,3.389l16.53,2.504c3.389,0.513,6.218,2.422,7.963,5.08h-33.559l-29.625-29.625
	c-2.419-2.419-3.742-5.771-3.631-9.196c0.175-5.407,0.45-11.689,0.817-18.675c1.662-24.011-21.802-55.131-35.947-71.555
	c-2.493-2.895-3.825-6.579-3.75-10.374l0.846-43.156c0.015-0.746-1.235-5.523-1.235-5.523
	c-5.889-20.613-19.485-37.929-38.285-48.759c-42.32-24.381-49.705-53.844-48.448-74.268c2.64-42.907,17.736-66.753,26.5-77.148
	c1.687-2,4.617-2.281,6.669-0.638c1.456,1.165,1.754,2.677,1.801,3.475c0.047,0.791-0.066,2.315-1.358,3.63
	c-11.069,11.267-24.404,31.86-25.074,65.983c-0.799,40.744,39.366,65.667,63.379,76.896c12.869,6.018,23.641,16.179,30.333,28.611
	c0,0,0.35,0.648,0.418,0.762c1.104,1.84,2.951,3.124,5.061,3.518c2.142,0.401,4.359-0.153,6.063-1.513
	c7.807-6.232,66.066-20.287,204.567-39.385c9.915-1.367,18.596-6.842,24.113-14.964c1.39,2.24,2.979,4.314,4.789,6.185
	c7.596,7.854,18.485,11.98,31.55,11.98c0.487,0,19.667-0.016,19.667-0.016c0.043,0,0.086,0,0.129-0.001
	c7.053,0.163,13.495-0.86,19.166-2.992c-2.136,12.932-4.904,30.759-6.633,45.979C424.759,242.363,420.27,255.414,413.295,266.757z
	 M441.375,124.614c-0.612,1.663-0.623,3.512,0.011,5.211c0.995,2.668,1.587,5.556,1.76,8.582
	c0.629,11.008-1.849,19.732-7.166,25.229c-4.896,5.063-12.486,7.617-21.94,7.395c-0.073-0.002-0.144-0.002-0.215-0.002
	c-0.071,0-18.584-0.017-18.934,0.007c-9.349,0.17-16.855-2.375-21.715-7.399c-5.317-5.497-7.795-14.221-7.166-25.228
	c0.173-3.025,0.766-5.913,1.761-8.583c0.627-1.684,0.622-3.515,0.025-5.166c-0.626-1.859-6.841-20.313-11.448-34.275
	c14.646,6.394,24.358,17.796,24.456,17.912c2.11,2.533,5.629,3.39,8.67,2.112c9.6-4.039,20.61-4.039,30.208,0
	c3.027,1.273,6.544,0.416,8.659-2.098c0.108-0.128,9.821-11.532,24.467-17.926C448.236,104.24,442.08,122.524,441.375,124.614z"/>
<g>
</g>
<g>
</g>
<g>
</g>
<g>
</g>
<g>
</g>
<g>
</g>
<g>
</g>
<g>
</g>
<g>
</g>
<g>
</g>
<g>
</g>
<g>
</g>
<g>
</g>
<g>
</g>
<g>
</g>
</svg>
