<?xml version="1.0" encoding="iso-8859-1"?>
<!-- Generator: Adobe Illustrator 18.0.0, SVG Export Plug-In . SVG Version: 6.00 Build 0)  -->
<!DOCTYPE svg PUBLIC "-//W3C//DTD SVG 1.1//EN" "http://www.w3.org/Graphics/SVG/1.1/DTD/svg11.dtd">
<svg version="1.1" id="Capa_1" xmlns="http://www.w3.org/2000/svg" xmlns:xlink="http://www.w3.org/1999/xlink" x="0px" y="0px"
	 viewBox="0 0 482.582 482.582" style="enable-background:new 0 0 482.582 482.582;" xml:space="preserve">
<path d="M481.133,65.566c-0.317-2.118-1.526-4-3.32-5.17c-1.795-1.17-4.005-1.517-6.07-0.954
	c-10.891,2.97-20.834,13.35-28.823,21.69c-0.379,0.396-0.754,0.787-1.124,1.172c-25.479-4.639-51.24-4.576-76.738,0.198
	c-0.351-0.366-0.704-0.737-1.063-1.112c-8.061-8.442-18.093-18.948-29.092-21.948c-2.065-0.563-4.275-0.217-6.07,0.953
	c-1.794,1.17-3.003,3.051-3.32,5.17c-3.146,20.968-1.147,37.315,5.904,48.828c-35.536-13.318-73.862-18.646-111.732-15.427
	l-76.105,6.467c2.235-10.987,2.722-27.792-9.798-41.048c-1.45-1.536-3.454-2.381-5.595-2.349c-2.112,0.04-4.11,0.97-5.502,2.56
	l-7.393,8.448c-9.195-11.814-29.322-31.253-61.165-29.707c-2.085,0.102-4.033,1.068-5.377,2.666c-1.343,1.598-1.959,3.684-1.7,5.755
	l1.14,9.113c-15.546,4.885-36.839,18.872-37.621,47.839c-0.055,2.023,0.711,3.983,2.123,5.434c1.411,1.45,3.35,2.269,5.374,2.269
	h0.465c-0.136,0.238-0.271,0.479-0.403,0.723c-4.898,8.98-8.512,24.136,2.091,45.341c1.271,2.542,3.868,4.146,6.708,4.146
	c0.017,0,0.033,0,0.05,0l0.161-0.001c-11.205,28.792-13.871,60.348-7.395,90.926l5.101,24.089L4.463,312.204
	c-4.741,7.112-5.775,16.133-2.766,24.131l30.616,81.396c4.86,12.919,17.399,21.6,31.202,21.6h78.097
	c5.666,0,11.026-2.744,14.339-7.34c3.313-4.596,4.222-10.55,2.43-15.925c-4.242-12.722-16.102-21.27-29.511-21.27h-5.154
	l-15.41-27.739c17.72-5.91,32.274-15.385,43.487-28.405c11.007-12.781,17.355-27.293,20.936-40.919l85.704,11.619l10.818,70.316
	c1.668,10.838,5.339,21.123,10.909,30.569l8.995,15.255c5.035,8.536,14.319,13.839,24.229,13.839h67.202
	c8.43,0,15.287-6.862,15.287-15.297c0-2.757-0.764-5.482-2.221-7.899c-2.676-4.407-6.451-8.068-10.919-10.586
	c-4.48-2.526-9.57-3.861-14.72-3.861c-0.886,0-1.501-0.386-1.861-0.709c-0.508-0.456-0.827-1.082-0.896-1.726
	c-0.426-7.33,14.322-54.829,28.892-96.73c1.293-2.41,2.854-4.681,4.641-6.755c1.911-2.218,4.069-4.204,6.423-5.912
	c9.801-7.134,16.899-17.506,19.965-29.122l12.493-45.209c18.907-5.469,38.375-16.914,40.813-40.827
	c2.323-22.77-4.021-45.287-7.238-54.875C481.482,108.288,484.809,90.073,481.133,65.566z M112.747,405.938
	c1.323,2.381,3.833,3.858,6.557,3.858h9.567c6.943,0,13.084,4.426,15.28,11.013c0.377,1.131-0.068,1.996-0.367,2.411
	c-0.3,0.415-0.979,1.111-2.171,1.111h-23.718c0.419-2.738,0.199-5.574-0.698-8.265c-4.242-12.722-16.102-21.27-29.511-21.27h-5.153
	l-11.57-20.825c7.882-0.494,15.332-1.495,22.39-2.943L112.747,405.938z M368.014,416.687c2.573,0,5.116,0.667,7.354,1.928
	c2.231,1.258,4.12,3.092,5.451,5.283c0.017,0.028,0.055,0.096,0.055,0.135c0,0.003-0.013,0.297-0.287,0.297h-16.322
	c0.051-2.833-0.675-5.675-2.188-8.18c-0.131-0.216-0.276-0.421-0.412-0.633C363.673,416.285,365.821,416.687,368.014,416.687z
	 M410.696,256.822c-2.209,8.372-7.292,15.797-14.302,20.899c-3.281,2.381-6.298,5.157-8.967,8.253
	c-2.66,3.087-4.959,6.483-6.833,10.095c-0.165,0.319-0.308,0.649-0.426,0.989c-0.077,0.222-7.808,22.454-15.278,45.882
	c-15.533,48.715-14.846,55.125-14.554,57.849c0.188,1.78,0.652,3.496,1.342,5.111c-4.562-2.699-9.82-4.212-15.247-4.212
	c-1.422,0-2.608-1.066-2.76-2.48c-1.196-11.166-0.094-22.259,3.279-32.971l27.921-88.689c1.243-3.951-0.951-8.162-4.902-9.406
	c-3.949-1.244-8.161,0.951-9.406,4.902l-27.921,88.689c-3.996,12.695-5.304,25.841-3.885,39.074
	c0.97,9.054,8.568,15.881,17.674,15.881c5.206,0,10.114,2.768,12.807,7.223c0.053,0.086,0.084,0.139,0.005,0.28
	c-0.079,0.141-0.141,0.141-0.241,0.141h-35.617c-4.626,0-8.959-2.475-11.31-6.459l-8.995-15.254
	c-4.598-7.796-7.627-16.285-9.003-25.23l-11.01-71.565c-1.47-9.552-0.99-19.137,1.424-28.492l11.729-45.448
	c1.035-4.011-1.377-8.101-5.388-9.136c-4.017-1.036-8.102,1.378-9.136,5.388l-11.729,45.447c-1.742,6.748-2.633,13.596-2.709,20.474
	l-81.582-11.06c2.725-19.306,0.607-34.242,0.434-35.394c-0.614-4.096-4.435-6.919-8.529-6.304c-4.097,0.615-6.919,4.433-6.305,8.53
	c0.07,0.467,6.686,47.064-20.849,79.037c-17.423,20.232-45.012,30.49-81.998,30.49c-2.657,0-5.116,1.406-6.464,3.697
	s-1.383,5.123-0.093,7.446l19.69,35.442c1.323,2.381,3.833,3.858,6.557,3.858h9.566c6.943,0,13.084,4.426,15.28,11.013
	c0.377,1.131-0.068,1.996-0.367,2.411c-0.3,0.415-0.979,1.111-2.171,1.111H63.516c-7.592,0-14.489-4.775-17.163-11.881
	l-30.616-81.396c-1.313-3.49-0.861-7.426,1.207-10.529l22.129-33.193c1.12-1.679,1.516-3.74,1.097-5.714l-5.755-27.176
	c-6.739-31.827-2.56-64.83,11.738-93.855c7.585,4.293,15.245,4.584,21.507,3.261l1.024,10.755c0.203,2.137,1.313,4.085,3.048,5.35
	c1.734,1.265,3.927,1.725,6.026,1.265c44.638-9.799,51.737-42.848,52.018-44.25c0.813-4.062-1.815-8.045-5.877-8.857
	c-4.065-0.815-8.006,1.791-8.819,5.852c-0.203,0.93-4.924,21.08-32.31,30.333l-1.123-11.789c-0.252-2.646-1.885-4.961-4.293-6.085
	c-2.408-1.124-5.23-0.89-7.422,0.616c-0.433,0.298-10.73,7.177-20.967-3.061c-1.654-1.655-3.984-2.442-6.308-2.129
	c-2.318,0.313-4.359,1.691-5.516,3.725c-1.127,1.982-2.205,3.986-3.242,6.005l-2.175,0.015
	c-10.211-24.775,5.804-35.016,7.703-36.121c2.987-1.66,4.475-5.129,3.617-8.438c-0.856-3.308-3.842-5.619-7.26-5.619H26.51
	c5.228-22.852,29.988-27.237,31.12-27.425c3.998-0.631,6.774-4.322,6.272-8.338l-0.893-7.136
	c29.545,2.916,44.283,29.146,44.937,30.339c1.168,2.161,3.32,3.613,5.762,3.887c2.44,0.271,4.862-0.666,6.48-2.514l7.349-8.399
	c5.592,13.175-1.068,28.798-1.141,28.965c-1.077,2.423-0.794,5.235,0.744,7.396c1.537,2.16,4.098,3.348,6.744,3.124l87.067-7.398
	c37.816-3.214,76.102,2.615,111.229,16.873c-2.899,11.392-5.688,27.584-4.022,43.912c2.84,27.843,28.765,38.792,50.013,43.073
	c8.344,1.681,16.746,2.522,25.149,2.522c5.946,0,11.893-0.43,17.819-1.272L410.696,256.822z M457.73,112.102
	c-2.473,2.083-3.33,5.522-2.132,8.525c0.106,0.266,10.583,26.876,7.964,52.548c-2.315,22.689-29.214,28.11-38.053,29.891
	c-14.724,2.967-29.651,2.967-44.373,0c-8.839-1.781-35.738-7.202-38.054-29.891c-2.614-25.617,7.81-52.158,7.963-52.545
	c1.205-3.004,0.347-6.443-2.13-8.528c-7.419-6.247-10.673-17.533-9.717-33.624c4.789,3.68,9.694,8.817,13.947,13.271
	c1.397,1.463,2.741,2.87,4.02,4.166c1.787,1.812,4.411,2.585,6.903,2.069c26.132-5.414,52.645-5.481,78.801-0.2
	c2.48,0.501,5.037-0.28,6.813-2.073c1.295-1.307,2.655-2.726,4.068-4.202c4.18-4.363,8.995-9.39,13.696-13.014
	C468.399,94.577,465.145,105.858,457.73,112.102z"/>
<g>
</g>
<g>
</g>
<g>
</g>
<g>
</g>
<g>
</g>
<g>
</g>
<g>
</g>
<g>
</g>
<g>
</g>
<g>
</g>
<g>
</g>
<g>
</g>
<g>
</g>
<g>
</g>
<g>
</g>
</svg>
