<?xml version="1.0" encoding="iso-8859-1"?>
<!-- Generator: Adobe Illustrator 18.0.0, SVG Export Plug-In . SVG Version: 6.00 Build 0)  -->
<!DOCTYPE svg PUBLIC "-//W3C//DTD SVG 1.1//EN" "http://www.w3.org/Graphics/SVG/1.1/DTD/svg11.dtd">
<svg version="1.1" id="Capa_1" xmlns="http://www.w3.org/2000/svg" xmlns:xlink="http://www.w3.org/1999/xlink" x="0px" y="0px"
	 viewBox="0 0 472.102 472.102" style="enable-background:new 0 0 472.102 472.102;" xml:space="preserve">
<path d="M470.947,199.019c-1.657-2.63-4.765-3.967-7.815-3.355l-35.142,7.028l-35.077-15.785
	c-16.075-7.233-33.839-10.097-51.367-8.284c-10.806,1.12-21.626-0.893-31.306-5.811c-49.92-25.37-106.936-30.429-160.542-14.245
	l-74.821,22.587c-2.166,0.654-4.406,1.112-6.657,1.363c-13.872,1.544-27.313-4.698-35.08-16.28c-0.095-0.141-0.456-0.71-1.141-2.108
	c-2.271-4.635-6.458-7.938-11.484-9.063c-5.003-1.121-10.173,0.076-14.178,3.28c-6.039,4.831-8.02,13.097-4.818,20.103
	c3.152,6.898,8.768,16.929,17.62,25.542c11.028,10.731,24.047,16.458,38.696,17.022c23.967,0.922,49.104-6.553,66.026-13.01
	l-12.832,24.059l-25.856,14.616c-9.192,5.196-14.405,15.338-13.281,25.838l4.673,43.618c0.409,3.811,3.625,6.701,7.458,6.701h18.143
	c4.38,0,8.267-2.459,10.142-6.417c1.876-3.958,1.318-8.523-1.456-11.913l-2.432-2.973l-0.651-16.927l26.057-4.51
	c9.552-1.653,18.59-5.143,26.691-10.242c-0.834,3.438-1.761,7.338-2.798,11.775c-0.785,3.359,0.823,6.821,3.897,8.388l51,26
	c1.077,0.549,2.244,0.818,3.405,0.818c1.689,0,3.366-0.57,4.73-1.679c5.514-4.479,8.363-11.372,7.622-18.438
	c-0.741-7.066-4.958-13.218-11.281-16.457l-14.129-7.237l24.384-28.069c5.168,0.579,10.299,1.645,15.071,3.412
	c7.626,2.825,19.079,6.929,31.649,10.97l-2.939,20.279l-14.154,8c-5.83,3.296-9.451,9.504-9.451,16.2v10.518
	c0,2.576,1.322,4.972,3.501,6.345c1.217,0.767,2.605,1.155,3.999,1.155c1.104,0,2.21-0.243,3.236-0.734l35.878-17.159
	c8.397-4.017,14.623-11.47,17.081-20.45l3.579-13.083c5.438,1.087,10.514,1.867,14.962,2.201c0.765,5.817,3.585,11.269,8.141,15.318
	l37.141,33.013c1.373,1.22,3.146,1.895,4.982,1.895h32c2.717,0,5.222-1.47,6.547-3.841c1.326-2.372,1.265-5.275-0.159-7.589
	l-1.517-2.465c-4.67-7.587-12.041-13.262-20.515-15.883l-17.514-23.145l15.28-15.917l1.56,1.009
	c8.113,5.251,18.085,6.909,27.448,4.586l2.536,2.156c11.058,9.398,27.452,9.822,38.979,1.006l1.909-1.46
	c1.943-1.486,3.04-3.826,2.938-6.27l-1-24c-0.076-1.829-0.818-3.567-2.087-4.886l-5.5-5.72l9.673-12.897
	C472.467,205.031,472.605,201.65,470.947,199.019z M183.66,276.758c0.438,2.264,1.892,4.2,3.944,5.251l22.651,11.602
	c2.586,1.325,3.101,3.707,3.202,4.67c0.032,0.311,0.054,0.774-0.008,1.322l-39.77-20.275c2.685-11.208,5.621-22.686,6.86-26.349
	l5.192-4.846c3.457-0.827,11.822-2.623,21.93-3.387l-22.299,25.669C183.849,272.156,183.222,274.495,183.66,276.758z
	 M296.75,279.532c-1.307,4.776-4.618,8.74-9.085,10.876l-24.791,11.857c0.314-0.66,0.826-1.221,1.482-1.592l17.357-9.811
	c2.021-1.142,3.399-3.156,3.732-5.454l3.133-21.614c3.881,1.133,7.769,2.214,11.598,3.21L296.75,279.532z M435.405,250.316
	l-5.524-4.696c-1.876-1.595-4.415-2.166-6.79-1.532l-3.212,0.856c-5.449,1.454-11.289,0.53-16.024-2.535l-6.757-4.372
	c-3.018-1.953-6.997-1.49-9.484,1.103l-24,25c-2.554,2.659-2.795,6.78-0.57,9.72l22.928,30.298c1.071,1.416,2.61,2.405,4.343,2.793
	c1.003,0.225,1.986,0.521,2.94,0.883h-10.379l-35.01-31.119c-2.721-2.419-3.882-6.101-3.046-9.637
	c0.026-0.098,0.051-0.198,0.073-0.297l8.407-33.628c1.004-4.019-1.438-8.09-5.457-9.095c-4.018-1.002-8.09,1.439-9.096,5.457
	l-7.054,28.218c-15.207-0.893-46.891-9.664-84.065-23.433c-28.939-10.719-66.046-0.628-67.612-0.193
	c-1.162,0.323-2.229,0.921-3.11,1.744l-15.551,14.515c-8.383,7.824-18.787,12.993-30.085,14.949l-32.525,5.629
	c-3.703,0.641-6.359,3.923-6.215,7.678l1,26c0.043,1.128,0.34,2.225,0.861,3.212h-3.627l-3.955-36.917
	c-0.487-4.544,1.769-8.934,5.747-11.182l27.756-15.689c1.241-0.702,2.256-1.742,2.927-3l23.999-44.998
	c1.544-2.896,1.025-6.459-1.28-8.795c-2.304-2.336-5.862-2.902-8.78-1.397c-0.418,0.216-42.25,21.58-78.765,20.168
	c-24.62-0.947-37.665-21.589-43.25-33.81c-0.338-0.741-0.114-1.626,0.546-2.154c0.563-0.451,1.143-0.442,1.532-0.355
	c0.331,0.074,0.938,0.306,1.29,1.025c0.796,1.625,1.499,2.886,2.151,3.86c10.896,16.248,29.743,24.994,49.197,22.837
	c3.157-0.351,6.298-0.994,9.335-1.911l74.821-22.587c49.89-15.062,102.953-10.353,149.412,13.257
	c12.257,6.229,25.965,8.774,39.644,7.359c14.908-1.542,30.006,0.895,43.668,7.042l37.27,16.771c1.426,0.642,3.018,0.821,4.549,0.515
	l18.249-3.65l-1.721,2.295c-2.206,2.941-1.954,7.048,0.594,9.698l7.951,8.269l0.716,17.181
	C448.506,255.345,440.751,254.859,435.405,250.316z"/>
<g>
</g>
<g>
</g>
<g>
</g>
<g>
</g>
<g>
</g>
<g>
</g>
<g>
</g>
<g>
</g>
<g>
</g>
<g>
</g>
<g>
</g>
<g>
</g>
<g>
</g>
<g>
</g>
<g>
</g>
</svg>
