<?xml version="1.0" encoding="iso-8859-1"?>
<!-- Generator: Adobe Illustrator 18.0.0, SVG Export Plug-In . SVG Version: 6.00 Build 0)  -->
<!DOCTYPE svg PUBLIC "-//W3C//DTD SVG 1.1//EN" "http://www.w3.org/Graphics/SVG/1.1/DTD/svg11.dtd">
<svg version="1.1" id="Capa_1" xmlns="http://www.w3.org/2000/svg" xmlns:xlink="http://www.w3.org/1999/xlink" x="0px" y="0px"
	 viewBox="0 0 468.231 468.231" style="enable-background:new 0 0 468.231 468.231;" xml:space="preserve">
<path d="M466.33,105.204l-25.444-52.161l9.688-33.215c0.838-2.876-0.114-5.975-2.424-7.883c-2.311-1.908-5.534-2.258-8.199-0.891
	c-39.487,20.25-75.586,46.26-107.294,77.307l-24.681,24.167c-8.05,6.088-135.382,102.689-200.881,169.137
	c-21.14,21.446-35.221,48.277-40.72,77.592c-2.168,11.555-5.438,21.06-7.001,25.244l-48.991,27.806
	c-4.264,2.421-7.521,6.297-9.171,10.916c-2.202,6.165-1.377,12.821,2.263,18.263c3.64,5.441,9.477,8.745,16.015,9.063l152.285,7.429
	c0.363,0.018,0.725,0.026,1.085,0.026c5.551,0,10.784-2.09,14.836-5.949c2.879-2.742,4.872-6.132,5.895-9.849h37.224
	c4.467,0,8.536-2.269,10.885-6.069c2.349-3.8,2.559-8.455,0.561-12.451c-5.44-10.88-15.613-18.21-27.354-20.035l33.593-30.299
	c7.065-6.373,9.843-15.81,7.444-24.91l34.701-30.37l52.875,119.664c1.201,2.716,3.891,4.469,6.86,4.469h45.037
	c5.139,0,9.727-2.871,11.974-7.493s1.67-10.003-1.505-14.045c-7.055-8.979-17.156-14.879-28.441-16.615l-0.072-0.011l-25.168-95.082
	l22.864-68.592c7.188-21.563,9.589-44.79,6.97-67.294c5.67-14.795,20.841-26.344,27.078-30.612l8.822,2.854
	c13.227,4.279,27.763,0.349,37.033-10.01l8.5-9.501C468.545,120.131,469.668,112.045,466.33,105.204z M452.29,115.801l-8.5,9.501
	c-5.315,5.941-13.65,8.195-21.237,5.741l-33.868-10.958c-3.94-1.277-8.169,0.886-9.444,4.827c-1.275,3.941,0.886,8.169,4.827,9.444
	l7.665,2.48c-8.772,7.363-19.742,18.825-24.471,33.011c-0.185,0.553-0.303,1.126-0.355,1.706c-0.02,0.223-0.03,0.448-0.03,0.671
	c0,0.32,0.021,0.639,0.061,0.956c2.679,20.839,0.569,42.432-6.102,62.443l-23.572,70.717c-0.462,1.386-0.509,2.878-0.135,4.291
	l26.999,101.995c0.763,2.883,3.162,5.04,6.11,5.493l4.926,0.758c6.299,0.969,12.043,3.888,16.501,8.329h-36.399l-54.054-122.331
	l1.487-7.225c5.883-28.575,3.097-57.927-8.058-84.883l-1.829-4.418c-1.584-3.827-5.971-5.644-9.798-4.062
	c-3.827,1.584-5.646,5.971-4.062,9.798l1.829,4.418c10.003,24.174,12.502,50.497,7.227,76.123l-1.462,7.101l-38.672,33.846
	c-3.678-3.095-8.258-5.109-13.331-5.682l-54.313-6.132c-4.108-0.462-7.829,2.495-8.294,6.611c-0.465,4.116,2.495,7.829,6.611,8.294
	l54.313,6.132c4.035,0.456,7.185,3.036,8.426,6.901c1.241,3.866,0.183,7.798-2.833,10.517l-47.589,42.923
	c-2.305,2.079-3.091,5.363-1.977,8.26c1.113,2.897,3.896,4.809,7,4.809h13.237c7.142,0,13.672,3.373,17.779,8.999h-34.653
	c-3.419-7.097-10.602-12.125-18.917-12.321l-82.004-1.929l41.024-43.607c2.838-3.017,2.693-7.764-0.323-10.602
	c-3.017-2.839-7.764-2.693-10.602,0.323L71.18,412.482l-11.611-0.273c-4.139-0.105-7.576,3.181-7.674,7.322
	c-0.097,4.141,3.181,7.577,7.322,7.674l113.763,2.677c3.533,0.083,6.407,3.026,6.407,6.56c0,1.813-0.723,3.501-2.036,4.751
	c-1.313,1.25-3.032,1.89-4.845,1.802L20.22,435.566c-1.746-0.085-3.306-0.967-4.278-2.421s-1.192-3.232-0.605-4.877
	c0.441-1.234,1.312-2.27,2.451-2.917l51.307-29.12c1.439-0.817,2.568-2.087,3.21-3.612c0.227-0.538,5.58-13.361,8.813-30.597
	c4.947-26.369,17.624-50.515,36.66-69.827c66.538-67.502,198.292-166.986,199.616-167.983c0.258-0.194,0.503-0.405,0.733-0.631
	l25.024-24.503c26.391-25.841,55.933-48.07,88.002-66.24l-5.48,18.787c-0.522,1.791-0.358,3.712,0.459,5.388l26.715,54.767
	C453.5,113.116,453.281,114.694,452.29,115.801z"/>
<g>
</g>
<g>
</g>
<g>
</g>
<g>
</g>
<g>
</g>
<g>
</g>
<g>
</g>
<g>
</g>
<g>
</g>
<g>
</g>
<g>
</g>
<g>
</g>
<g>
</g>
<g>
</g>
<g>
</g>
</svg>
