<?xml version="1.0" encoding="iso-8859-1"?>
<!-- Generator: Adobe Illustrator 18.0.0, SVG Export Plug-In . SVG Version: 6.00 Build 0)  -->
<!DOCTYPE svg PUBLIC "-//W3C//DTD SVG 1.1//EN" "http://www.w3.org/Graphics/SVG/1.1/DTD/svg11.dtd">
<svg version="1.1" id="Capa_1" xmlns="http://www.w3.org/2000/svg" xmlns:xlink="http://www.w3.org/1999/xlink" x="0px" y="0px"
	 viewBox="0 0 474.823 474.823" style="enable-background:new 0 0 474.823 474.823;" xml:space="preserve">
<path d="M473.754,170.285l-8.66-14.435c-1.162-1.936-1.876-4.032-2.126-6.23c-1.648-14.538-7.75-24.168-17.181-27.115
	c-5.782-1.807-10.359-2.833-13.724-3.415l-1.75-19.248c-0.195-2.15-1.309-4.112-3.054-5.384c-1.746-1.271-3.954-1.729-6.062-1.254
	c-1.401,0.315-33.348,7.887-41.756,42.193c-6.462,2.697-20.344,5.551-32.788,8.109c-17.04,3.503-34.66,7.126-45.741,12.153
	c-6.86,3.113-14.355,4.624-21.666,4.382c-6.776-0.229-14.889-0.39-24.283-0.577c-26.818-0.533-60.195-1.196-87.002-3.918
	c-25.022-2.542-49.568,0.04-72.96,7.671l-1.052,0.344c-31.46,10.312-57.863,31.59-74.344,59.916
	C4.501,249.437-1.927,274.131,0.499,296.874c2.348,22.014,5.22,36.575,7.317,47.207c3.423,17.354,3.587,19.891-1.02,25.419
	c-1.863,2.235-2.265,5.347-1.03,7.982s3.882,4.319,6.792,4.319H157.5c3.908,0,7.161-3,7.476-6.896l1.453-17.979
	c0.872-10.788-1.495-21.332-6.617-30.497c9.268-1.28,22.998-2.977,38.122-4.171c32.786-2.59,58.099-1.761,73.676,2.378
	l15.201,51.778c0.938,3.193,3.868,5.387,7.196,5.387h35.277c2.166,0,4.226-0.937,5.65-2.568c1.424-1.632,2.073-3.8,1.781-5.946
	l-0.382-2.799c-0.078-0.569-0.172-1.134-0.28-1.695l3.906,8.607c1.216,2.68,3.887,4.4,6.83,4.4h36.811
	c2.224,0,4.333-0.987,5.758-2.694c1.425-1.708,2.019-3.959,1.621-6.147c-2.109-11.6-10.481-21.043-21.458-24.699l-6.364-40.141
	c-1.141-7.196,2.679-14.363,9.288-17.428l28.186-13.072c7.266-3.37,12.743-9.706,15.025-17.383l8.661-29.133l8.286,1.09
	c0.33,0.043,0.657,0.064,0.982,0.064c3.057,0,5.854-1.871,6.986-4.781l7.19-18.479c3.128,0.833,6.476-0.439,8.246-3.209
	l17.638-27.608C475.175,175.784,475.219,172.725,473.754,170.285z M321.423,347.549l1.526-7.629l6.922,15.252
	C327.542,352.172,324.693,349.575,321.423,347.549z M366.134,277.084c-12.662,5.872-19.978,19.6-17.793,33.384l7.145,45.068
	c0.502,3.167,2.963,5.665,6.122,6.215l0.744,0.129c3.611,0.628,6.84,2.397,9.297,4.92h-20.028l-23.633-52.075l1.608-8.041
	c1.614-8.07,6.633-15.047,13.771-19.142l31.37-17.999c1.184,0.632,2.412,1.247,3.669,1.849L366.134,277.084z M446.609,192.635
	l-17.349-6.361c-3.961-1.453-8.357,0.645-9.7,4.678c-1.297,3.896,0.976,8.1,4.832,9.514l9.27,3.399l-4.938,12.69l-7.585-0.998
	c-8.735-1.149-16.915-4.926-23.455-10.83l-1.431-1.292c-9.895-8.933-14.61-21.889-14.226-35.214
	c0.116-4.024-2.981-7.444-7.029-7.697c-4.122-0.256-7.694,2.883-7.953,7.018c-1.119,17.891,5.873,35.04,19.181,47.05l1.415,1.277
	c6.359,5.739,13.794,9.945,21.859,12.437l-8.222,27.658c-0.781,2.627-2.373,4.91-4.506,6.555
	c-47.721-15.014-47.016-53.354-46.957-55.092c0.168-4.124-3.028-7.611-7.154-7.798c-4.132-0.192-7.644,3.015-7.832,7.153
	c-0.026,0.564-0.54,13.984,6.939,29.433c3.597,7.429,9.474,16.137,19.026,24.037l-24.891,14.282
	c-10.892,6.25-18.552,16.896-21.015,29.211l-9.298,46.494c-0.705,3.527,1.192,7.058,4.523,8.416l0.89,0.363
	c3.741,1.525,6.767,4.317,8.618,7.786h-19.998l-18.511-63.053c-2.116-7.209-0.648-14.995,3.949-20.938l12.255-15.842
	c7.446-9.625,9.893-22.208,6.598-33.922l-2.602-9.25c-1.112-3.953-5.128-6.544-9.112-5.551c-4.123,1.027-6.554,5.249-5.412,9.31
	l2.687,9.552c2.009,7.143,0.517,14.815-4.023,20.683l-12.255,15.842c-7.54,9.747-9.949,22.518-6.478,34.342l0.094,0.319
	c-27.443-4.728-66.288-1.835-92.663,1.185c1.344-3.698,1.913-7.735,1.535-11.894c-3.013-33.155-31.519-62.982-32.731-64.236
	c-2.877-2.976-7.619-3.055-10.597-0.181s-3.063,7.621-0.191,10.602c0.26,0.271,26.051,27.336,28.581,55.172
	c0.612,6.739-4.395,12.038-11.063,13.796c-0.208,0.055-0.404,0.109-0.601,0.162c-11.294-10.318-26.185-15.287-41.328-13.836
	c-2.041,0.196-4.094,0.251-6.145,0.251l0,0c-10.947,0-21.408-4.685-28.699-12.853c-7.267-8.141-10.728-19.02-9.496-29.846
	c3.236-28.427,10.124-39.921,15.362-44.554c2.953-2.612,3.486-7.183,1.068-10.298c-2.671-3.44-7.642-3.882-10.873-1.056
	c-10.531,9.215-17.416,27.455-20.461,54.212c-1.715,15.068,3.1,30.206,13.209,41.532c10.134,11.353,24.673,17.863,39.889,17.863
	h0.135c2.777,0,5.548-0.19,8.318-0.392c11.017-0.803,21.788,3.085,29.814,10.889c8.426,8.193,12.494,19.889,11.547,31.603
	l-0.84,10.386H24.724c1.495-6.933-0.008-14.553-2.191-25.623c-2.043-10.357-4.841-24.542-7.119-45.896
	c-2.08-19.501,3.692-41.122,17.155-64.261c14.63-25.145,38.088-44.041,66.054-53.207l1.034-0.338
	c21.388-6.978,43.86-9.334,66.789-7.007c27.415,2.784,61.129,3.454,88.22,3.993c9.338,0.186,17.402,0.346,24.075,0.571
	c9.612,0.321,19.418-1.652,28.369-5.713c9.55-4.333,27.089-7.939,42.563-11.121c20.794-4.275,33.872-7.12,40.532-11.567
	c1.736-1.159,2.852-3.036,3.244-5.087c3.351-17.56,14.799-26.373,22.821-30.492l1.405,15.455c0.351,3.863,3.516,6.82,7.395,6.82
	c0.054,0.001,5.532,0.146,16.243,3.494c3.905,1.22,6.048,8.284,6.751,14.488c0.493,4.345,1.895,8.47,4.168,12.258l6.271,10.452
	L446.609,192.635z"/>
<g>
</g>
<g>
</g>
<g>
</g>
<g>
</g>
<g>
</g>
<g>
</g>
<g>
</g>
<g>
</g>
<g>
</g>
<g>
</g>
<g>
</g>
<g>
</g>
<g>
</g>
<g>
</g>
<g>
</g>
</svg>
