<?xml version="1.0" encoding="iso-8859-1"?>
<!-- Generator: Adobe Illustrator 18.0.0, SVG Export Plug-In . SVG Version: 6.00 Build 0)  -->
<!DOCTYPE svg PUBLIC "-//W3C//DTD SVG 1.1//EN" "http://www.w3.org/Graphics/SVG/1.1/DTD/svg11.dtd">
<svg version="1.1" id="Capa_1" xmlns="http://www.w3.org/2000/svg" xmlns:xlink="http://www.w3.org/1999/xlink" x="0px" y="0px"
	 viewBox="0 0 466.46 466.46" style="enable-background:new 0 0 466.46 466.46;" xml:space="preserve">
<path d="M443.138,24.205c-8.069-3.528-17.2-1.685-23.26,4.696l-26.285,27.676c-2.033,2.142-3.583,4.629-4.627,7.382
	c-10.334-2.407-21.137-2.408-31.471,0c-1.045-2.755-2.595-5.241-4.629-7.384l-26.283-27.674c-6.06-6.381-15.19-8.224-23.26-4.696
	c-8.049,3.52-12.883,11.452-12.316,20.212c2.096,32.158,9.308,55.604,22,71.638l4.188,15.707
	c3.567,13.379,12.679,24.679,24.999,31.001c0.728,0.374,1.471,0.719,2.217,1.055c-0.982,0.833-2.262,1.735-3.907,2.679
	c-8.652,4.963-19.084,6.508-29.377,4.349c-16.556-3.471-43.424-6.52-77.41-1.327c-32.979,5.039-66.606,19.716-93.626,31.51
	c-16.709,7.294-31.141,13.593-41.844,16.203c-8.777,2.141-18.818-0.378-28.264-7.098c-16.821-11.966-28.695-34.353-30.987-58.426
	c-2.404-25.239,4.579-42.027,11.332-58.263c4.797-11.533,9.758-23.46,11.023-37.696c1.398-15.729-4.949-30.332-18.354-42.232
	C33.327,4.933,23.272,0.74,22.849,0.565c-3.455-1.423-7.426-0.08-9.318,3.143c-1.892,3.223-1.117,7.351,1.81,9.675
	c0.214,0.17,21.394,17.217,23.878,38.95c0.932,8.155-2.446,14.593-7.56,24.338c-7.95,15.151-18.839,35.902-20.601,76.869
	c-1.277,29.7,10.157,56.499,33.068,77.5c12.137,11.126,24.424,17.825,30.766,20.868c2.214,21.49,10.504,41.725,24.124,58.778
	c4.266,5.342,7.085,9.153,8.949,11.856c-8.044,4.673-16.893,6.776-23.442,7.721c-8.324,1.201-15.073,7.225-17.193,15.349
	l-9.552,36.619c-1.117,4.279-0.724,8.853,1.106,12.88c2.809,6.181,3.381,13.195,1.61,19.748l-0.75,2.775
	c-2.441,9.033-1.081,18.816,3.734,26.841c4.2,6.999,11.663,11.192,19.741,11.192c0.506,0,1.016-0.017,1.526-0.05l23.699-1.546
	c3.944-0.257,7.012-3.531,7.012-7.484v-10.073c0-8.574-5.298-15.992-12.866-19.042l-2.083-19.271
	c-1.331-12.312,7.159-23.758,19.327-26.058l11.255-2.127c1.566,5.921,5.047,11.238,10.088,15.083
	c0.033,0.025,0.065,0.05,0.099,0.074l55.315,40.773c1.289,0.95,2.849,1.463,4.45,1.463h25.424c4.262,0,8.206-2.308,10.294-6.023
	c2.087-3.715,2.008-8.285-0.208-11.925c-5.061-8.314-13.871-13.781-23.568-14.625l-2.034-0.177l-32.642-34.593
	c6.725-2.981,12.532-7.884,16.549-14.151l16.858-26.298l48.235,2.631c1.325,14.535,4.724,29.727,8.186,42.356
	c5.003,18.251,9.176,36.843,12.404,55.258c0.011,0.062,0.022,0.124,0.035,0.185l6.111,30.365
	c1.874,9.31,10.109,16.048,19.599,16.048c0.024,0,0.05,0,0.075,0l31.624-0.117c4.131-0.015,7.472-3.369,7.472-7.5v-7.811
	l7.491-0.572c3.909-0.299,6.929-3.558,6.929-7.478v-6.229c0-6.037-2.361-11.704-6.648-15.958c-4.288-4.253-9.954-6.585-16.016-6.538
	c-1.568-19.035,1.546-60.455,6.965-73.701c5.334-13.037,22.498-38.895,26.937-45.494l8-4.133c0.071-0.037,0.142-0.075,0.212-0.114
	c25.715-14.349,38.105-43.449,35.83-84.155c-1.043-18.656-4.887-35.555-7.664-45.725c10.676-6.546,18.53-16.99,21.778-29.171
	l4.189-15.708c12.691-16.034,19.904-39.48,22-71.64C456.021,35.658,451.187,27.725,443.138,24.205z M309.332,37.949
	c0.854-0.374,3.84-1.386,6.375,1.282l26.281,27.672c0.674,0.711,1.187,1.537,1.525,2.458l0.36,0.981
	c-0.214,0.239-0.425,0.481-0.626,0.734l-23.035,29.044c-7.949-13.376-12.632-32.03-14.237-56.675
	C305.739,39.81,308.484,38.319,309.332,37.949z M206.802,409.356l4.879,0.424c2.681,0.233,5.229,1.157,7.414,2.629h-15.591
	l-53.275-39.27c-2.017-1.552-3.473-3.62-4.301-5.929l15.695-2.966l40.373,42.787C203.259,408.369,204.969,409.197,206.802,409.356z
	 M337.282,429.257c2.081-0.021,3.94,0.761,5.377,2.187c1.256,1.246,2.015,2.855,2.179,4.592l-2.952,0.225
	c-1.043-1.715-2.302-3.315-3.766-4.765c-0.809-0.801-1.663-1.539-2.557-2.212C336.077,429.272,336.632,429.262,337.282,429.257z
	 M330.289,334.876c-5.478,13.391-8.724,46.954-8.432,70.091c-4.986-22.735-10.987-55.348-8.903-72.854
	c0.324-2.721,1.409-5.617,3.235-8.679l28.191-14.564C338.795,317.987,333.159,327.862,330.289,334.876z M372.113,277.659
	l-8.379,4.329c14.818-14.966,23.95-35.126,25.148-56.571c0.231-4.135-2.934-7.676-7.07-7.906c-4.13-0.233-7.675,2.934-7.907,7.07
	c-1.272,22.778-13.339,43.797-32.278,56.226c-27.879,18.295-41.723,34.035-43.568,49.534c-2.959,24.853,7.864,73.467,12.861,93.999
	h-0.86c-4.142,0-7.5,3.358-7.5,7.5s3.358,7.5,7.5,7.5h10.484h0c0.025,0,0.05,0,0.075,0c2.653-0.023,5.085,0.974,6.946,2.817
	s2.886,4.299,2.886,6.917v2.298l-24.151,0.09c-0.006,0-0.013,0-0.019,0c-2.37,0-4.427-1.682-4.895-4.007l-6.093-30.272
	c-3.306-18.846-7.578-37.87-12.696-56.542c-8.293-30.254-10.434-54.196-6.026-67.417c1.31-3.93-0.814-8.177-4.744-9.487
	c-3.929-1.311-8.177,0.814-9.487,4.743c-1.841,5.524-2.729,11.899-2.929,18.718l-38.397-2.094l2.844-4.437
	c2.235-3.487,1.221-8.126-2.267-10.362s-8.126-1.22-10.361,2.267l-29.006,45.249c-3.368,5.254-8.816,8.931-14.948,10.09
	l-50.231,9.493c-19.805,3.743-33.621,22.371-31.455,42.409l1.837,16.992l-5.631,0.564c-4.122,0.413-7.128,4.089-6.715,8.21
	c0.387,3.867,3.647,6.753,7.454,6.753c0.25,0,0.502-0.012,0.756-0.038l12.332-1.236c2.733,0.348,4.829,2.661,4.829,5.454v3.046
	l-16.688,1.088c-3.023,0.196-5.869-1.294-7.428-3.892c-2.728-4.547-3.499-10.091-2.116-15.209l0.75-2.775
	c2.679-9.913,1.814-20.521-2.435-29.869c-0.41-0.902-0.498-1.927-0.248-2.886l9.552-36.619c0.592-2.269,2.484-3.952,4.82-4.289
	c9.894-1.427,24.178-5.1,36.041-14.491c2.725-2.157,3.611-5.903,2.141-9.052c-1.945-4.167-6.56-10.788-14.109-20.241
	c-12.647-15.837-19.996-34.828-21.251-54.922c-0.182-2.912-2.036-5.453-4.752-6.517c-0.565-0.221-52.159-21.015-58.195-72.015
	c5.437,22.521,18.058,42.612,34.751,54.487c13.048,9.282,27.435,12.637,40.513,9.448c11.962-2.917,26.943-9.457,44.29-17.028
	c26.22-11.444,58.851-25.687,89.892-30.43c33.442-5.109,59.506-1.454,72.066,1.18c13.896,2.914,28.072,0.777,39.918-6.019
	c5.891-3.379,9.948-7.252,12.152-11.563c1.486,0.137,2.976,0.228,4.469,0.228h17.285c3.91,0,7.817-0.479,11.615-1.405
	C400.14,192.228,411.862,255.361,372.113,277.659z M414.772,127.898c-2.477,9.288-8.802,17.132-17.355,21.521v0
	c-4.788,2.457-10.164,3.756-15.545,3.756h-17.285c-5.382,0-10.757-1.299-15.545-3.756c-8.552-4.389-14.877-12.233-17.354-21.521
	l-3.613-13.552L355,80.397c0.079-0.1,0.185-0.175,0.306-0.218c11.559-4.059,24.29-4.058,35.85,0
	c0.121,0.042,0.227,0.118,0.305,0.218l26.925,33.949L414.772,127.898z M440.485,43.442c-1.606,24.648-6.29,43.302-14.238,56.678
	l-23.036-29.045c-0.2-0.252-0.41-0.494-0.624-0.732l0.361-0.985c0.336-0.918,0.849-1.744,1.521-2.453l26.283-27.674
	c2.535-2.669,5.521-1.656,6.375-1.282C437.976,38.319,440.721,39.81,440.485,43.442z"/>
<g>
</g>
<g>
</g>
<g>
</g>
<g>
</g>
<g>
</g>
<g>
</g>
<g>
</g>
<g>
</g>
<g>
</g>
<g>
</g>
<g>
</g>
<g>
</g>
<g>
</g>
<g>
</g>
<g>
</g>
</svg>
