<?xml version="1.0" encoding="iso-8859-1"?>
<!-- Generator: Adobe Illustrator 18.0.0, SVG Export Plug-In . SVG Version: 6.00 Build 0)  -->
<!DOCTYPE svg PUBLIC "-//W3C//DTD SVG 1.1//EN" "http://www.w3.org/Graphics/SVG/1.1/DTD/svg11.dtd">
<svg version="1.1" id="Capa_1" xmlns="http://www.w3.org/2000/svg" xmlns:xlink="http://www.w3.org/1999/xlink" x="0px" y="0px"
	 viewBox="0 0 469.769 469.769" style="enable-background:new 0 0 469.769 469.769;" xml:space="preserve">
<path d="M469.597,156.325c-0.738-13.444-3.766-25.656-6.175-33.534c-1.095-3.577-2.288-7.031-3.548-10.265
	c-0.217-0.557-0.422-1.083-0.621-1.581c1.455-6.906,2.112-14.182,1.905-21.2c-0.193-6.546-3.765-12.275-9.554-15.323
	c-5.789-3.049-12.534-2.751-18.041,0.793c-3.551,2.285-7.077,5.037-10.524,8.209c-31.686-8.541-64.893-8.541-96.58,0
	c-3.446-3.171-6.974-5.923-10.523-8.209c-5.509-3.546-12.254-3.842-18.042-0.793c-5.789,3.048-9.36,8.776-9.554,15.323
	c-0.206,7.015,0.45,14.292,1.906,21.2c-1.338,3.27-3.732,9.613-5.901,17.846h-39.381c-51.335,0-100.505,19.04-138.452,53.613
	c-7.047,6.42-13.587,13.283-19.612,20.518c11.528-28.872,26.716-59.514,45.846-83.799c8.677-11.014,8.784-26.52,0.26-37.708
	c-6.26-8.217-16.152-12.735-26.459-12.09c-10.312,0.647-19.564,6.37-24.752,15.309c-14.252,24.56-34.784,63.415-51.661,109.052
	C10.139,247.756,0,298.329,0,344.003l0.002,0.825c0.188,30.699,25.393,55.675,56.187,55.675H409.8c2.188,0,4.268-0.956,5.692-2.616
	c1.425-1.661,2.053-3.861,1.721-6.024c-1.193-7.755-5.84-14.695-13.811-20.626c-5.08-3.781-10.45-6.356-14.466-7.965
	c-4.478-14.449-11.656-28.381-19.053-40.356c69.121-39.403,74.257-85.654,73.992-100.285
	C466.444,203.811,470.758,177.478,469.597,156.325z M304.919,114.772c0.697-1.527,0.861-3.244,0.467-4.875
	c-1.535-6.351-2.245-13.167-2.052-19.709c0.043-1.482,0.989-2.198,1.549-2.493c0.309-0.163,0.79-0.35,1.369-0.35
	c0.471,0,1.005,0.124,1.564,0.483c3.745,2.412,7.514,5.526,11.201,9.256c1.941,1.965,4.808,2.703,7.455,1.921
	c31.584-9.314,64.971-9.314,96.553,0c2.645,0.782,5.513,0.043,7.455-1.921c3.688-3.731,7.456-6.845,11.202-9.256
	c1.249-0.803,2.373-0.429,2.934-0.134c0.56,0.294,1.505,1.01,1.548,2.492c0.193,6.546-0.517,13.362-2.052,19.709
	c-0.413,1.708-0.205,3.423,0.479,4.905c0.61,1.37,18.714,42.729,5.123,75.318c-6.368,15.27-18.97,26.484-37.454,33.33
	c-11.921,4.414-63.104,4.414-75.022,0c-18.483-6.846-31.084-18.059-37.453-33.327C286.033,157.15,304.732,115.185,304.919,114.772z
	 M15.002,344.754L15,344.003c0-42.717,10.363-132.238,79.77-251.839c2.705-4.663,7.341-7.53,12.717-7.867
	c5.366-0.34,10.323,1.926,13.588,6.21c4.377,5.745,4.331,13.695-0.111,19.334c-53.208,67.545-76.184,177.353-77.136,181.994
	c-0.01,0.051-0.014,0.101-0.023,0.152c-1.607,7.651-2.797,15.423-3.531,23.292l-2.241,24.027C38.011,339.538,38,339.77,38,340.003
	v41.255C24.476,374.582,15.099,360.727,15.002,344.754z M282.239,353.191l-0.114-0.367l0.562,0.462
	C282.539,353.252,282.388,353.223,282.239,353.191z M304.35,371.098l17.52,14.405h-14.767l0.016-1.172
	C307.182,379.634,306.182,375.147,304.35,371.098z M422.612,250.254c-9.958,22.426-31.009,43.148-60.997,60.107
	c-9.966-14.227-18.58-23.659-19.299-24.44c-2.806-3.046-7.548-3.241-10.595-0.437s-3.243,7.548-0.44,10.596
	c0.338,0.367,33.913,37.188,44.287,74.91c0.663,2.412,2.486,4.335,4.859,5.126c4.809,1.603,11.898,4.89,16.737,9.385h-51.678
	l-71.454-58.752l-12.975-41.809c-14.037-45.231-58.392-74.359-105.485-69.262C105.078,221.148,67,263.572,67,314.363v24.64
	c0,4.142,3.357,7.5,7.5,7.5s7.5-3.358,7.5-7.5v-24.64c0-43.115,32.324-79.128,75.188-83.77c39.96-4.33,77.628,20.399,89.544,58.795
	l19.361,62.386c-22.631-2.913-48.408-13.569-48.707-13.694v0c-3.818-1.593-8.213,0.211-9.808,4.033
	c-1.596,3.822,0.209,8.215,4.032,9.81c1.519,0.634,37.415,15.485,64.64,15.575c8.871,0.295,15.989,7.754,15.869,16.628l-0.019,1.376
	H56.188c-1.074,0-2.135-0.054-3.188-0.135v-45.016l2.209-23.679c4.419-47.384,26.227-91.13,61.405-123.18
	c35.178-32.05,80.761-49.701,128.35-49.701h36.241c-2.427,15.725-2.545,34.592,4.705,52.029
	c8.027,19.305,23.544,33.333,46.119,41.694c7.785,2.883,25.252,4.325,42.72,4.325s34.936-1.442,42.721-4.325
	c3.76-1.393,7.24-2.929,10.504-4.569C427.134,237.736,425.548,243.642,422.612,250.254z"/>
<g>
</g>
<g>
</g>
<g>
</g>
<g>
</g>
<g>
</g>
<g>
</g>
<g>
</g>
<g>
</g>
<g>
</g>
<g>
</g>
<g>
</g>
<g>
</g>
<g>
</g>
<g>
</g>
<g>
</g>
</svg>
