<?xml version="1.0" encoding="iso-8859-1"?>
<!-- Generator: Adobe Illustrator 18.0.0, SVG Export Plug-In . SVG Version: 6.00 Build 0)  -->
<!DOCTYPE svg PUBLIC "-//W3C//DTD SVG 1.1//EN" "http://www.w3.org/Graphics/SVG/1.1/DTD/svg11.dtd">
<svg version="1.1" id="Capa_1" xmlns="http://www.w3.org/2000/svg" xmlns:xlink="http://www.w3.org/1999/xlink" x="0px" y="0px"
	 viewBox="0 0 465.099 465.099" style="enable-background:new 0 0 465.099 465.099;" xml:space="preserve">
<path d="M461.747,50.597c-1.572-5.308-6.143-9.162-11.644-9.819c-5.519-0.661-10.875,2.017-13.659,6.816l-18.717,32.259
	c-1.156,1.991-2.007,4.138-2.533,6.364c-3.767-0.65-7.614-0.65-11.383,0c-0.525-2.226-1.376-4.373-2.531-6.364l-18.719-32.259
	c-2.785-4.8-8.154-7.472-13.659-6.816c-5.501,0.657-10.071,4.512-11.644,9.819c-2.655,8.965-3.741,21.973-3.229,38.662
	c0.259,8.416,4.021,17.116,7.526,23.469l-13.571,3.236c-7.294,1.74-14.857-0.342-20.232-5.569l-10.645-10.349
	c-22.806-22.173-57.106-27.107-85.351-12.279c-36.791,19.315-87.406,53.063-119.611,104.154c-1.444,2.292-2.811,4.68-4.062,7.099
	c-5.701,11.033-9.112,23.321-10.137,36.525l-7.672,98.878c-1.283,16.541-9.573,31.814-22.744,41.903
	c-13.171,10.089-30.08,14.116-46.381,11.049c-9.408-1.771-18.495,4.145-20.683,13.466c-1.125,4.793-0.203,9.892,2.528,13.988
	c2.732,4.096,7.085,6.905,11.942,7.708l4.137,0.684c4.872,0.805,9.773,1.202,14.657,1.201c20.02,0,39.722-6.66,55.685-19.109
	c19.857-15.486,32.436-38.761,34.508-63.858l6.428-77.834c10.908,8.217,24.162,16.253,32.637,21.162l-14.883,9.78
	c-9.844,6.468-13.49,18.963-8.673,29.71l33.296,74.276c1.209,2.697,3.889,4.432,6.844,4.432h35.999c3.537,0,6.593-2.471,7.334-5.929
	c1.62-7.562,0.157-15.275-4.118-21.72c-0.542-0.817-1.12-1.599-1.732-2.346h9.012c3.532,0,6.586-2.465,7.331-5.918
	c0.424-1.963,0.639-3.983,0.639-6.002c0-13.65-9.739-25.412-23.158-27.968l-6.078-1.157l-4.865-14.596l10.756-6.011
	c12.419-6.939,23.393-15.949,32.617-26.778c8.246-9.679,14.82-20.52,19.574-32.127l38.926,5.657
	c-0.031,8.197,0.932,16.407,2.903,24.462l28.068,114.716c0.821,3.356,3.83,5.717,7.285,5.717h38.998c4.143,0,7.5-3.358,7.5-7.5v-3
	c0-2.667-0.381-5.245-1.07-7.695h9.003c4.143,0,7.5-3.358,7.5-7.5v-3c0-13.513-9.454-24.859-22.094-27.774l-11.023-61.525
	c-2.546-14.245-0.162-28.838,6.693-41.493c14.901-1.926,28.854-8.586,39.727-19.082c12.104-11.684,19.611-27.346,21.138-44.1
	l1.62-17.782l9.376-10.126c5.164-5.577,7.703-13.115,6.966-20.682l-1.18-12.085c3.642-5.375,11.381-18.177,11.755-30.377
	C465.488,72.57,464.402,59.563,461.747,50.597z M191.963,340.857c0.859,2.577,3.044,4.488,5.713,4.996l10.398,1.98
	c5.314,1.012,9.41,5.072,10.606,10.152h-23.747l-12.28-30.983l3.954-2.21L191.963,340.857z M373.498,360.785
	c5.867,0,10.872,3.762,12.729,9h-10.949c-3.155-2.399-6.821-4.159-10.806-5.078l-11.021-61.531
	c-1.3-7.259-1.323-14.553-0.161-21.612c0.202,2.024,0.465,4.047,0.825,6.064l12,66.98
	C366.756,358.183,369.866,360.785,373.498,360.785z M404.883,213.619c-9.516,9.185-22.028,14.647-35.233,15.381
	c-2.022,0.112-3.914,1.038-5.243,2.567l-7.659,8.808c-15.694,18.049-22.277,41.903-18.062,65.446l11.997,66.983
	c0.641,3.575,3.751,6.178,7.383,6.178c5.866,0,10.87,3.761,12.728,8.999h-24.841l-26.669-108.999
	c-3.87-15.814-3.194-32.338,1.955-47.786l10.944-32.833c1.31-3.93-0.814-8.177-4.743-9.487c-3.933-1.31-8.178,0.814-9.487,4.744
	l-10.944,32.833c-1.818,5.453-3.151,11.022-4.017,16.647l-35.251-5.123c1.339-5.022,2.37-10.144,3.049-15.349l0.218-1.668
	c0.537-4.107-2.358-7.872-6.466-8.408c-4.093-0.534-7.871,2.358-8.407,6.466l-0.218,1.669
	c-2.614,20.038-10.922,38.759-24.024,54.141c-8.065,9.468-17.659,17.345-28.516,23.412l-33.459,18.698
	c-3.145,1.757-4.596,5.501-3.457,8.918l14.999,44.998c0.859,2.577,3.044,4.488,5.712,4.996l10.402,1.981
	c3.597,0.685,6.692,2.743,8.717,5.793c0.897,1.354,1.533,2.825,1.896,4.356h-23.755l-31.31-69.844
	c-1.79-3.993-0.435-8.635,3.223-11.039l40.849-26.843c3.461-2.274,4.424-6.925,2.148-10.386c-2.274-3.461-6.924-4.424-10.387-2.149
	l-11.879,7.806c-6.336-3.521-30.429-17.199-44.102-29.021c-1.064-0.92-3.037-2.789-3.707-3.431
	c-2.089-2.001-5.141-2.624-7.847-1.598c-2.705,1.024-4.579,3.513-4.817,6.396l-7.626,92.349
	c-1.754,21.241-11.976,40.157-28.783,53.264c-16.807,13.107-37.643,18.413-58.672,14.937l-4.137-0.684
	c-1.063-0.175-1.652-0.847-1.908-1.232c-0.257-0.385-0.65-1.187-0.404-2.236c0.35-1.49,1.807-2.437,3.306-2.153
	c20.484,3.856,41.729-1.205,58.276-13.882c16.549-12.677,26.965-31.867,28.577-52.65l7.672-98.878
	c0.869-11.194,3.731-21.557,8.507-30.798c1.055-2.041,2.208-4.055,3.426-5.987c30.429-48.274,78.731-80.412,113.895-98.872
	c22.483-11.803,49.781-7.885,67.921,9.752l10.645,10.349c9.079,8.827,21.855,12.342,34.169,9.405l13.57-3.236l-0.43,4.403
	c-0.737,7.565,1.802,15.103,6.966,20.681l18.244,19.703c3.877,4.188,15.961,7.385,19.688,7.385c2.247,0,7.53-1.167,12.223-3.009
	l-0.225,2.468C420.301,192.121,414.398,204.434,404.883,213.619z M449.983,88.797c-0.27,8.761-7.671,20.505-10.494,24.283
	c-1.127,1.5-1.65,3.367-1.469,5.233l1.45,14.864c0.322,3.306-0.786,6.599-3.042,9.035l-17.866,19.294
	c-1.784,1.014-7.161,2.724-9.06,2.97c-1.898-0.246-7.275-1.957-9.061-2.971l-17.864-19.293c-2.256-2.437-3.365-5.73-3.043-9.035
	l1.45-14.864c0.182-1.86-0.344-3.728-1.463-5.225c-2.829-3.786-10.229-15.53-10.5-24.291c-0.412-13.412,0.238-23.925,1.934-31.315
	l17.351,29.9c0.739,1.275,1.131,2.73,1.131,4.207v4.864c0,2.647,1.396,5.098,3.672,6.449s5.095,1.402,7.42,0.135
	c5.619-3.066,12.33-3.065,17.947,0c2.324,1.267,5.145,1.217,7.42-0.135c2.276-1.351,3.672-3.802,3.672-6.449v-4.864
	c0-1.476,0.392-2.93,1.133-4.207l17.349-29.899C449.745,64.873,450.396,75.385,449.983,88.797z"/>
<g>
</g>
<g>
</g>
<g>
</g>
<g>
</g>
<g>
</g>
<g>
</g>
<g>
</g>
<g>
</g>
<g>
</g>
<g>
</g>
<g>
</g>
<g>
</g>
<g>
</g>
<g>
</g>
<g>
</g>
</svg>
