<?xml version="1.0" encoding="iso-8859-1"?>
<!-- Generator: Adobe Illustrator 18.0.0, SVG Export Plug-In . SVG Version: 6.00 Build 0)  -->
<!DOCTYPE svg PUBLIC "-//W3C//DTD SVG 1.1//EN" "http://www.w3.org/Graphics/SVG/1.1/DTD/svg11.dtd">
<svg version="1.1" id="Capa_1" xmlns="http://www.w3.org/2000/svg" xmlns:xlink="http://www.w3.org/1999/xlink" x="0px" y="0px"
	 viewBox="0 0 478.637 478.637" style="enable-background:new 0 0 478.637 478.637;" xml:space="preserve">
<path d="M340.162,29.253c-3.964-2.782-9.112-3.151-13.436-0.963c-12.673,6.418-28.289,19.1-35.701,25.394
	c-5.818-3.164-12.259-5.151-18.848-5.815c-2.578-9.376-8.335-28.651-15.19-41.094c-2.337-4.243-6.761-6.838-11.643-6.774
	c-4.824,0.065-9.195,2.767-11.406,7.049c-9.336,18.078-14.08,46.245-10.837,63.66l-1.434,11.672
	c-1.185,9.65,0.326,19.078,4.043,27.459c-0.755,6.317-4.313,27.231-19.328,42.693c-4.214,4.34-7.55,9.439-9.915,15.156
	c-8.642,20.893-15.017,52.999-17.488,88.085c-0.232,3.291-0.427,6.568-0.587,9.826c-3.679-5.955-8.635-11.866-15.013-15.257
	c-5.999-3.189-12.615-3.778-19.133-1.705c-2.978,0.948-5.057,3.643-5.216,6.764c-0.159,3.122,1.634,6.015,4.5,7.261
	c14.339,6.235,17.92,31.955,18.198,43.285l-24.345,50.591c-7.117,14.793-5.633,32.296,3.875,45.679l12.085,17.008l-5.419,19.644
	c-0.989,3.589-0.372,7.424,1.695,10.521s5.372,5.138,9.067,5.6l12.9,1.612c0.54,0.067,1.075,0.101,1.605,0.101
	c6.123,0,11.496-4.385,12.597-10.562l1.633-9.142c2.37,1.683,4.523,3.018,6.307,4.042c-0.385,3.986-0.983,6.53-1.644,7.576
	c-5.521,5.635-5.652,13.056-0.329,19.408c5.521,6.585,14.316,9.529,22.954,7.676l5.313-1.138l7.669,2.707
	c2.592,0.915,5.272,1.367,7.939,1.367c4.338,0,8.638-1.196,12.444-3.539l6.377-3.924c1.705-1.049,2.914-2.745,3.368-4.694
	c0.454-1.949,0.104-4.008-0.961-5.703c-2.122-3.375-4.881-9.896-4.062-13.171c0.1-0.4,0.258-1.037,0.463-1.867l26.981,3.468
	c0.454,0.058,0.907,0.086,1.359,0.086c2.598,0,5.128-0.943,7.101-2.681c2.319-2.042,3.649-4.981,3.649-8.065
	c0-0.36-0.021-0.689-0.055-1.036c-1.094-11.399-8.835-21.079-19.7-24.651l-10.411-3.46c0.14-0.571,0.28-1.144,0.421-1.719
	l9.363-5.121c10.638-5.818,16.514-17.773,14.621-29.748l-6.195-39.214c4.323-22.103,16.443-86.411,19.854-129.373
	c1.294-16.292-1.59-32.171-8.341-45.923c-3.539-7.21-4.549-17.396-4.828-23.455c11.043-4.578,20.434-12.959,26.23-24.191
	l5.392-10.45c12.49-12.562,24.441-38.506,26.913-58.702C346.201,36.718,344.111,32.024,340.162,29.253z M153.487,393.531
	c-6.346-8.932-7.337-20.613-2.587-30.487l27.406-56.952c0.739,15.138,2.383,28.91,4.89,40.306
	c7.386,33.572,10.252,59.431,10.851,76.822c-8.637-6.689-19.514-18.637-20.029-36.648c-0.118-4.14-3.607-7.375-7.711-7.283
	c-4.141,0.119-7.401,3.571-7.283,7.711c0.214,7.478,1.727,14.128,4.04,20.007L153.487,393.531z M171.388,441.462l-8.331-1.041
	l5.693-20.639c0.134-0.486,0.21-0.98,0.245-1.475c1.666,2.499,3.451,4.797,5.296,6.902L171.388,441.462z M267.888,427.102
	c3.359,1.104,6.096,3.416,7.764,6.392l-18.786-2.415c0.543-2.21,1.123-4.573,1.734-7.064L267.888,427.102z M267.593,387.341
	c1.279-5.219,2.533-10.335,3.713-15.153l0.468,2.964C272.495,379.715,270.856,384.266,267.593,387.341z M278.444,164.911
	c5.563,11.334,7.934,24.518,6.853,38.125c-3.935,49.564-20.296,131.144-21.097,135.114c-1.064,4.346-24.018,98.069-25.955,105.817
	c-1.579,6.317,0.324,13.124,2.426,18.074l-0.457,0.282c-2.27,1.396-5.014,1.69-7.529,0.802l-4.027-1.421l2.239-19.406l3.257-10.933
	c7.144-23.979,11.955-48.772,14.303-73.688l9.532-101.187c0.389-4.124-2.64-7.782-6.764-8.17c-4.134-0.401-7.781,2.64-8.17,6.763
	l-9.532,101.187c-1.352,14.343-3.552,28.642-6.575,42.756c-0.771-18.094-0.213-36.24,1.679-54.276l9.354-89.181
	c0.433-4.119-2.557-7.809-6.677-8.241c-4.109-0.432-7.809,2.558-8.241,6.677l-9.354,89.181c-3.411,32.521-2.649,65.39,2.251,97.715
	l-2.271,19.68l-2.121,0.455c-3.082,0.658-6.28-0.327-8.204-2.515c3.696-4.138,7.373-13.341,5.266-43.998
	c-1.42-20.647-5.35-46.652-10.782-71.347c-10.304-46.835-4.237-129.331,12.482-169.751c1.636-3.955,3.929-7.468,6.815-10.439
	c11.35-11.688,17.295-25.65,20.398-36.478c4.177,3.918,9.057,7.203,14.543,9.644c1.329,0.591,5.025,1.66,6.342,1.885
	c2.967,0.507,5.927,0.754,8.855,0.754c1.677,0,3.343-0.086,4.994-0.246C272.825,145.99,274.341,156.552,278.444,164.911z
	 M307.429,90.25c-0.61,0.578-1.118,1.255-1.503,2.002l-5.946,11.525c-7.239,14.028-22.354,21.819-37.887,19.649
	c-0.83-0.116-4.335-1.16-5.185-1.577c-14.145-6.932-22.288-21.879-20.352-37.639l1.581-12.873c0.098-0.799,0.081-1.612-0.092-2.398
	c-2.779-12.621,0.803-36.101,7.56-51.511c7.404,15.328,13.391,39.252,13.455,39.511c0.846,3.405,3.971,5.779,7.448,5.691
	c7.417-0.176,14.843,2.121,20.884,6.443c2.854,2.042,6.742,1.831,9.36-0.506c0.198-0.177,18.624-16.571,33.377-25.063
	C327.038,59.997,316.815,81.343,307.429,90.25z"/>
<g>
</g>
<g>
</g>
<g>
</g>
<g>
</g>
<g>
</g>
<g>
</g>
<g>
</g>
<g>
</g>
<g>
</g>
<g>
</g>
<g>
</g>
<g>
</g>
<g>
</g>
<g>
</g>
<g>
</g>
</svg>
