<?xml version="1.0" encoding="iso-8859-1"?>
<!-- Generator: Adobe Illustrator 18.0.0, SVG Export Plug-In . SVG Version: 6.00 Build 0)  -->
<!DOCTYPE svg PUBLIC "-//W3C//DTD SVG 1.1//EN" "http://www.w3.org/Graphics/SVG/1.1/DTD/svg11.dtd">
<svg version="1.1" id="Capa_1" xmlns="http://www.w3.org/2000/svg" xmlns:xlink="http://www.w3.org/1999/xlink" x="0px" y="0px"
	 viewBox="0 0 450.497 450.497" style="enable-background:new 0 0 450.497 450.497;" xml:space="preserve">
<path d="M449.59,138.42c-1.438-3.963-4.486-7.173-8.364-8.806c-8.561-3.606-18.203-3.234-26.456,1.017l-21.373,11.011
	c-4.068,2.096-7.336,5.351-9.448,9.411l-1.165,2.238c-0.116,0.223-0.277,0.414-0.47,0.56c-0.206,0.156-0.44,0.263-0.706,0.319
	c-0.308,0.066-0.71,0.03-1.042-0.12c-5.675-3.909-12.307-5.973-19.212-5.973s-13.536,2.063-19.21,5.973
	c-0.335,0.15-0.701,0.194-1.062,0.117c-0.502-0.106-0.925-0.426-1.163-0.885l-1.159-2.229c-2.114-4.062-5.382-7.316-9.45-9.412
	l-21.372-11.011c-8.253-4.251-17.897-4.623-26.454-1.017c-3.88,1.633-6.93,4.844-8.366,8.807c-1.441,3.977-1.155,8.413,0.786,12.172
	l19.934,38.609c2.226,4.308,5.479,8.089,9.41,10.938l2.368,1.714l-3.469,1.587c-11.132,5.091-23.629,5.585-35.191,1.391
	c-29.759-10.797-90.051-29.552-159.484-33.854c-1.611-0.1-2.445-1.12-2.798-1.72c-0.358-0.607-0.853-1.847-0.148-3.33
	c9.093-19.123,25.439-48.565,44.05-73.85c28.006-38.05,47.058-48.144,58.11-49.913c13.403-2.145,22.415,1.787,28.352,12.373
	c2.042,3.642,5.558,6.288,9.646,7.261c4.155,0.989,8.569,0.188,12.111-2.197c5.184-3.49,7.645-9.886,6.126-15.914
	c-2.679-10.643-13.432-35.3-55.577-34.427c-29.723,0.619-62.385,31.751-84.552,57.758c-24.739,29.026-46.716,64.177-53.444,85.482
	c-1.496,4.738-2.463,9.58-2.875,14.392c-1.029,12.023-6.446,23.671-15.255,32.8c0,0-4.21,5.003-4.933,6.198
	c-6.946,11.479-7.434,25.951-1.015,37.951l15.081,28.194c-2.808,8.84-13.341,36.819-35.046,40.32
	c-2.837,0.458-5.164,2.497-5.989,5.249C7.366,357.439,0.234,390.87,0.163,391.203c-0.321,1.513-0.166,3.089,0.443,4.511l9,21
	c1.188,2.772,3.911,4.545,6.891,4.545c0.192,0,0.385-0.007,0.578-0.022l26-2c4.078-0.314,7.152-3.836,6.912-7.918l-0.234-3.983
	c-0.495-8.422-4.225-16.293-10.246-22.012l7.845-20.049l19.931,70.524c0.913,3.23,3.861,5.46,7.217,5.46h33
	c3.441,0,6.441-2.342,7.276-5.681l3-12c0.419-1.677,0.247-3.448-0.49-5.012l-3.316-7.047c-3.298-7.009-9.702-12.011-17.098-13.666
	L83.673,363.69c6.492-4.377,18.231-12.591,30.104-22.399c16.434-13.576,27.327-25.36,32.875-35.619
	c37.358-1.872,88.753,14.101,105.593,19.748c-0.221,8.705,3.196,17.133,9.501,23.24c-0.049,13.022,1.141,57.424,18.782,80.637
	c1.055,1.387,2.559,2.364,4.254,2.763c9.926,2.335,18.408,3.506,25.359,3.506c3.727,0,7.014-0.337,9.846-1.011
	c7.996-1.904,10.612-6.054,11.366-7.75c0.885-1.991,0.86-4.268-0.067-6.239l-2.023-4.3c-4.094-8.7-12.462-14.622-21.801-15.829
	c-1.603-3.964-3.989-10.712-5.696-19.219l39.019,31.566l15.327,24.907c1.365,2.218,3.783,3.569,6.388,3.569h29
	c3,0,5.712-1.788,6.894-4.546l0.553-1.289c4.558-10.633,1.337-22.986-7.833-30.041L376.73,394.32l-47.078-56.494l3.835-16.434
	c0.781-3.348,3.342-5.928,6.684-6.735c14.583-3.52,25.168-15.934,26.339-30.89l1.885-24.09c4.566-1.784,8.444-5.268,10.881-9.929
	c0.182-0.138,0.359-0.28,0.534-0.426c6.057-5.048,9.941-12.134,10.939-19.954c0.604-4.73,2.906-9.062,6.484-12.197
	c3.981-3.489,7.22-6.158,9.373-7.723l0.072-0.052c0.043-0.031,0.085-0.062,0.127-0.094l12.658-9.164
	c3.931-2.849,7.184-6.631,9.407-10.938l19.934-38.607C450.745,146.834,451.031,142.397,449.59,138.42z M26.474,394.087
	c3.9,2.482,6.67,6.372,7.788,10.784l-12.983,0.999l-5.938-13.857c1.725-7.789,7.808-34.408,17.091-65.886
	c19.341-5.383,30.977-23.15,37.236-36.677l2.32,4.337c4.059,7.588,2.187,17.071-4.452,22.547l-23.807,19.641
	c-1.006,0.83-2.211,3.052-2.211,3.052l-18,46C22.209,388.365,23.449,392.162,26.474,394.087z M295.812,411.152
	c1.365,2.692,4.198,4.301,7.223,4.088c4.402-0.31,8.644,1.679,11.258,5.11c-3.961,0.479-11.101,0.399-23.332-2.27
	c-6.136-9.329-10.514-24.135-12.712-43.078c-0.574-4.944-0.932-9.627-1.154-13.745l7.801,6.311
	C286.374,392.265,295.409,410.359,295.812,411.152z M336.863,300.026c-8.989,2.086-15.891,8.987-17.983,17.958l-4.684,20.07
	c-0.534,2.291,0.036,4.699,1.542,6.506l50,60c0.354,0.424,0.752,0.807,1.188,1.144l15.04,11.569c2.825,2.173,4.265,5.58,3.997,8.986
	h-19.272l-13.804-22.431c-0.445-0.724-1.01-1.366-1.671-1.9l-77.944-63.056c-4.671-3.778-6.882-9.794-5.77-15.699l10.367-55.026
	c0.768-4.071-1.911-7.992-5.981-8.759c-4.073-0.77-7.991,1.911-8.759,5.981l-8.483,45.028c-7.554-2.494-19.658-6.26-33.974-9.87
	c-27.369-6.902-50.733-10.238-69.676-9.984c-0.074-27.498-14.286-54.214-14.893-55.341c-1.964-3.648-6.514-5.011-10.159-3.048
	c-3.647,1.964-5.012,6.512-3.048,10.159c0.131,0.244,13.104,24.611,13.104,48.444c0,15.075-38.302,46.298-65.512,63.663
	c-3.018,1.926-4.275,5.7-2.984,9.04l17,44c1.136,2.939,3.99,4.86,7.15,4.795c3.782-0.077,7.181,2.328,8.792,5.751l2.129,4.525
	l-0.932,3.726h-21.47l-23.126-81.83l20.032-16.526c12.173-10.043,15.576-27.277,8.132-41.193l-26.715-49.945
	c-3.373-6.306-3.613-13.734-0.896-20.143c1.031-2.433,2.577-4.614,4.412-6.516l0,0c11.192-11.599,18.084-26.492,19.406-41.937
	c0.318-3.714,1.069-7.467,2.233-11.153c5.223-16.54,24.266-49.423,50.556-80.268c28.103-32.972,54.874-52.105,73.448-52.492
	c30.03-0.63,38.386,14.031,40.68,22.942c-0.111,0.037-0.208,0-0.216,0c-6.306-11.242-19.021-23.811-43.805-19.846
	C150.269,36.001,93.374,154.448,90.979,159.486c-3.105,6.53-2.175,14.334,2.64,20.013c3.341,3.94,8.279,6.157,13.435,6.482
	c67.342,4.245,125.859,22.456,154.787,32.952c15.283,5.545,31.813,4.888,46.547-1.851l11.036-5.048
	c1.73,1.408,3.763,3.131,6.048,5.134c3.484,3.052,5.68,7.267,6.439,11.836c1.079,6.491,3.725,12.624,8.152,17.495
	c1.14,1.254,2.167,2.336,3.365,3.247c2.269,4.343,5.788,7.67,9.95,9.548l-1.815,23.201
	C350.907,290.876,345.054,298.125,336.863,300.026z M415.543,182.318c-1.153,2.233-2.841,4.195-4.879,5.672l-12.751,9.231
	c-0.102,0.072-0.202,0.146-0.311,0.228c-2.535,1.859-5.983,4.697-10.255,8.441c-6.334,5.55-10.41,13.214-11.478,21.58
	c-0.517,4.048-2.528,7.717-5.66,10.328c-0.028,0.023-0.079,0.06-0.168,0.103c-1.803,0.891-3.112,2.43-3.747,4.225
	c-0.977,2.369-2.898,3.889-4.941,3.889c-2.026,0-3.933-1.492-4.917-3.824c-0.626-1.822-1.947-3.388-3.771-4.289
	c-0.09-0.044-0.138-0.08-0.164-0.101c-3.136-2.613-5.147-6.282-5.664-10.33c-1.067-8.365-5.143-16.029-11.477-21.58
	c-4.331-3.795-7.813-6.658-10.354-8.513l-0.072-0.054c-0.034-0.025-0.067-0.05-0.102-0.075l-12.786-9.256
	c-2.04-1.478-3.729-3.44-4.882-5.673c0,0-19.89-38.867-19.858-38.88c4.452-1.876,9.47-1.683,13.763,0.528l21.372,11.01
	c1.297,0.668,2.339,1.706,3.014,3.002l1.156,2.223c2.315,4.458,6.464,7.608,11.364,8.64c3.976,0.848,8.318,0.163,11.889-1.917
	c0.193-0.113,0.383-0.234,0.565-0.364c3.209-2.278,6.986-3.482,10.925-3.482s7.717,1.204,10.927,3.483
	c0.182,0.129,0.37,0.25,0.563,0.363c2.558,1.491,5.473,2.28,8.43,2.28c1.169,0,2.333-0.122,3.449-0.359
	c2.396-0.507,4.694-1.556,6.655-3.041c1.958-1.487,3.59-3.425,4.716-5.596l1.161-2.229c0.674-1.295,1.716-2.334,3.013-3.002
	l21.372-11.01c4.295-2.211,9.311-2.404,13.765-0.528C435.433,143.451,415.543,182.318,415.543,182.318z"/>
<g>
</g>
<g>
</g>
<g>
</g>
<g>
</g>
<g>
</g>
<g>
</g>
<g>
</g>
<g>
</g>
<g>
</g>
<g>
</g>
<g>
</g>
<g>
</g>
<g>
</g>
<g>
</g>
<g>
</g>
</svg>
