<?xml version="1.0" encoding="iso-8859-1"?>
<!-- Generator: Adobe Illustrator 18.0.0, SVG Export Plug-In . SVG Version: 6.00 Build 0)  -->
<!DOCTYPE svg PUBLIC "-//W3C//DTD SVG 1.1//EN" "http://www.w3.org/Graphics/SVG/1.1/DTD/svg11.dtd">
<svg version="1.1" id="Capa_1" xmlns="http://www.w3.org/2000/svg" xmlns:xlink="http://www.w3.org/1999/xlink" x="0px" y="0px"
	 viewBox="0 0 481.237 481.237" style="enable-background:new 0 0 481.237 481.237;" xml:space="preserve">
<g>
	<path d="M264.165,305.015c-9.828,5.84-19.269,10.129-23.776,12.07c-6.144-2.644-21.448-9.651-34.517-19.072
		c-3.359-2.422-8.047-1.662-10.47,1.698s-1.662,8.047,1.698,10.47c18.211,13.128,39.633,21.651,40.536,22.008
		c0.885,0.349,1.819,0.523,2.753,0.523c0.934,0,1.869-0.175,2.753-0.523c0.566-0.224,14.032-5.571,28.685-14.279
		c3.561-2.116,4.732-6.718,2.616-10.279C272.327,304.071,267.726,302.897,264.165,305.015z"/>
	<path d="M311.859,253.718c-3.698-1.862-8.208-0.373-10.071,3.327c-2.629,5.222-5.034,11.425-7.354,18.962
		c-1.429,4.644-5.079,9.69-10.849,14.999c-3.048,2.805-3.246,7.549-0.441,10.598c1.479,1.607,3.497,2.422,5.521,2.422
		c1.815,0,3.635-0.655,5.076-1.98c7.752-7.133,12.809-14.409,15.03-21.626c2.041-6.632,4.199-12.227,6.415-16.629
		C317.048,260.089,315.559,255.58,311.859,253.718z"/>
	<path d="M395.556,294.986c-0.629-20.765-13.748-47.957-24.643-67.113c-6.076-10.682-7.292-23.144-3.338-34.189
		c2.594-7.246,3.747-14.665,3.524-22.679c-0.455-16.376-10.567-39.326-30.056-68.212c-11.635-17.246-23.031-31.286-27.039-36.112
		l0-0.004c-1.451-12.981-1.036-26.109,1.268-38.965c1.206-6.729,2.627-13.074,3.935-18.091c0.401-1.54,0.41-3.18-0.141-4.673
		C317.94,1.894,315.09,0,312.009,0c-11.492,0-38.273,17.263-50.22,25.375c-13.799-4.794-28.998-4.794-42.797,0
		C207.046,17.263,180.265,0,168.773,0c-3.081,0-5.931,1.894-7.057,4.946c-0.551,1.493-0.543,3.133-0.141,4.673
		c1.308,5.018,2.729,11.362,3.935,18.092c2.303,12.857,2.718,25.985,1.268,38.966v0c-4.006,4.824-15.404,18.866-27.041,36.115
		c-19.489,28.886-29.601,51.836-30.056,68.212c-0.224,8.067,0.945,15.532,3.576,22.823c4.013,11.123,2.871,23.585-3.132,34.194
		c-10.804,19.093-23.815,46.209-24.443,66.965c-0.811,26.73,10.308,99.389,15.125,129.387c1.667,10.38,8.38,19.215,17.958,23.633
		c13.729,6.334,34.535,14.099,58.419,16.945c0.203,3.551,0.981,6.511,2.334,8.909c2.323,4.117,5.558,5.308,6.842,5.628
		c0.22,0.055,0.442,0.1,0.666,0.135c0.453,0.071,10.511,1.614,21.705,1.614c0.823,0,1.653-0.008,2.484-0.026
		c14.625-0.314,24.401-3.549,29.204-9.635c4.803,6.087,14.579,9.321,29.204,9.635c0.833,0.018,1.661,0.026,2.484,0.026
		c11.192,0,21.252-1.543,21.705-1.614c0.224-0.035,0.446-0.08,0.666-0.135c1.284-0.321,4.519-1.511,6.842-5.628
		c1.347-2.387,2.123-5.332,2.33-8.86c24.056-2.805,45.019-10.624,58.825-16.994c9.578-4.418,16.292-13.253,17.958-23.633
		C385.249,394.375,396.367,321.716,395.556,294.986z M213.721,39.95c2.112,1.466,4.838,1.744,7.206,0.743
		c12.373-5.229,26.564-5.228,38.936,0.003c2.368,1.001,5.085,0.719,7.198-0.747c11.512-7.992,25.175-16.368,34.641-21.096
		c-2.173,10.72-4.046,23.238-4.291,33.794c-0.008,0.336,1.938,17.947,1.938,17.947c0.064,0.571,2.476,7.07,3.697,9.987
		c6.533,15.604,10.424,27.245,0.926,34.946c-7.826,6.345-16.27,9.118-21.976,10.327c-8.377,1.775-17.2,3.997-28.608,7.206
		c-7.019,1.975-11.839,2.907-12.975,2.939c-1.18-0.031-5.998-0.964-13.016-2.937c-11.401-3.207-20.227-5.43-28.615-7.208
		c-5.705-1.209-14.148-3.982-21.973-10.326c-9.498-7.7-5.607-19.341,0.926-34.945c1.221-2.917,3.633-9.417,3.697-9.988
		c0,0,1.945-17.611,1.938-17.947c-0.245-10.557-2.118-23.073-4.291-33.792C188.544,23.584,202.208,31.959,213.721,39.95z
		 M365.621,421.995c-0.873,5.437-4.399,10.069-9.432,12.391c-12.769,5.891-32.114,13.119-54.175,15.704
		c-0.581-2.531-1.309-5.223-2.189-8.084c-1.541-5.005-3.893-26.511,7.514-117.864c0.513-4.11-2.403-7.858-6.513-8.372
		c-4.106-0.507-7.858,2.403-8.372,6.513c-8.772,70.257-11.051,110.862-6.966,124.135c3.438,11.174,3.408,16.56,3.086,18.773
		c-3.915,0.471-11.224,1.177-18.631,1.023c-14.249-0.307-17.755-3.536-17.915-4.384c-1.6-8.532,2.354-31.55,5.241-48.357
		c2.172-12.644,3.887-22.63,3.887-28.261c0-4.142-3.358-7.5-7.5-7.5s-7.5,3.358-7.5,7.5c0,4.352-1.783,14.732-3.671,25.721
		c-0.689,4.01-1.396,8.129-2.069,12.24c-0.673-4.111-1.38-8.229-2.069-12.24c-1.888-10.989-3.671-21.369-3.671-25.721
		c0-4.142-3.358-7.5-7.5-7.5s-7.5,3.358-7.5,7.5c0,5.631,1.715,15.617,3.887,28.261c2.887,16.807,6.841,39.825,5.241,48.357
		c-0.158,0.842-3.633,4.053-17.754,4.38c-7.43,0.172-14.84-0.546-18.792-1.021c-0.322-2.214-0.352-7.601,3.085-18.771
		c4.085-13.273,1.807-53.878-6.966-124.135c-0.514-4.11-4.261-7.022-8.372-6.513c-4.11,0.513-7.026,4.261-6.513,8.372
		c11.407,91.353,9.055,112.859,7.514,117.865c-0.875,2.842-1.6,5.519-2.179,8.035c-21.897-2.624-41.089-9.8-53.783-15.656
		c-5.032-2.322-8.558-6.954-9.431-12.392c-3.706-23.075-15.735-100.396-14.942-126.555c0.418-13.804,8.411-35.124,22.505-60.032
		c2.906-5.135,4.954-10.601,6.159-16.197c9.377,16.487,10.339,23.757,10.339,26.001c0,2.439,1.186,4.726,3.18,6.131
		c1.994,1.405,4.546,1.752,6.843,0.932c3.347-1.196,5.314-0.578,6.653,0.093c3.79,1.899,9.582,8.308,15.656,28.049
		c0.992,3.225,3.96,5.296,7.166,5.296c0.73,0,1.474-0.107,2.208-0.333c3.959-1.218,6.181-5.415,4.963-9.374
		c-6.3-20.476-13.695-32.248-23.271-37.048c-3.092-1.55-6.325-2.34-9.674-2.371c-3.116-11.781-11.939-28.107-26.321-48.707
		c-1.772-5.228-2.568-10.621-2.406-16.461c0.369-13.273,9.849-34.063,27.417-60.122c1.35-2.002,2.7-3.963,4.039-5.875
		c0.356,7.753,3.337,15.352,11.232,21.754c8.029,6.51,17.818,11.125,28.31,13.349c8.057,1.708,16.588,3.858,27.664,6.974
		c4.644,1.306,13.035,3.498,17.054,3.498c4.022,0,12.415-2.192,17.06-3.499c11.081-3.117,19.61-5.267,27.656-6.971
		c10.494-2.223,20.285-6.84,28.314-13.35c7.895-6.401,10.876-14,11.232-21.752c1.311,1.873,2.635,3.794,3.958,5.756
		c17.619,26.115,27.127,46.946,27.496,60.24c0.161,5.8-0.622,11.157-2.368,16.35c-18.327,26.328-27.635,45.659-27.635,57.441
		c0,4.142,3.358,7.5,7.5,7.5s7.5-3.358,7.5-7.5c0-5.194,3.768-14.45,10.507-26.255c1.232,5.632,3.317,11.144,6.266,16.331
		c14.212,24.989,22.27,46.351,22.688,60.151C381.356,321.598,369.327,398.92,365.621,421.995z"/>
</g>
<g>
</g>
<g>
</g>
<g>
</g>
<g>
</g>
<g>
</g>
<g>
</g>
<g>
</g>
<g>
</g>
<g>
</g>
<g>
</g>
<g>
</g>
<g>
</g>
<g>
</g>
<g>
</g>
<g>
</g>
</svg>
