<?xml version="1.0" encoding="iso-8859-1"?>
<!-- Generator: Adobe Illustrator 18.0.0, SVG Export Plug-In . SVG Version: 6.00 Build 0)  -->
<!DOCTYPE svg PUBLIC "-//W3C//DTD SVG 1.1//EN" "http://www.w3.org/Graphics/SVG/1.1/DTD/svg11.dtd">
<svg version="1.1" id="Capa_1" xmlns="http://www.w3.org/2000/svg" xmlns:xlink="http://www.w3.org/1999/xlink" x="0px" y="0px"
	 viewBox="0 0 476.279 476.279" style="enable-background:new 0 0 476.279 476.279;" xml:space="preserve">
<g>
	<path d="M398.095,277.503c7.837-7.586,12.23-18.369,11.716-29.511c-1.821-39.533-17.633-82.603-22.379-94.739
		c6.569-13.182,10.006-28.731,10.006-45.707c0-14.37-9.458-36.326-17.393-52.214c-2.789-5.583-4.02-11.841-3.559-18.097
		c0.32-4.336,0.666-9.061,0.93-12.73c0.726-10.106-5.426-19.561-14.96-22.994c-1.738-0.626-3.527-1.036-5.317-1.219
		c-9.145-0.933-39.364-1.458-57.202,28.627h-16.502C265.597-1.165,235.378-0.64,226.232,0.293c-1.791,0.183-3.58,0.594-5.315,1.219
		c-9.534,3.432-15.686,12.887-14.96,22.992c0.263,3.669,0.608,8.394,0.929,12.731c0.461,6.256-0.77,12.514-3.559,18.098
		c-7.935,15.888-17.393,37.843-17.393,52.213c0,16.864,3.389,32.321,9.873,45.447c-4.62,11.776-20.646,55.183-22.481,94.997
		c-0.518,11.227,3.949,22.087,11.899,29.682c-0.955,3.127-2.307,7.736-3.839,13.478c-5.318-21.372-15.348-45.104-33.339-68.774
		c-7.72-10.156-10.7-24.697-8.858-43.219c0.259-2.602-0.855-5.151-2.942-6.727c-2.086-1.576-4.843-1.952-7.274-0.992
		c-2.763,1.091-67.666,28.171-67.666,154.936c0,51.689,27.886,91.49,80.642,115.101c34.911,15.625,69.321,19.167,77.192,19.799
		c0.185,0.661,0.401,1.317,0.687,1.959c1.798,4.034,5.298,6.911,9.604,7.895c9.971,2.278,25.568,5.15,40.813,5.15
		c7.469,0,14.847-0.698,21.442-2.485c6.596,1.786,13.973,2.485,21.443,2.485c15.244,0,30.844-2.872,40.814-5.15
		c4.306-0.984,7.806-3.861,9.604-7.895c0.302-0.677,0.526-1.371,0.715-2.07c15.602-2.584,27.839-10.286,36.433-22.976
		C430.992,393.446,404.668,298.987,398.095,277.503z M76.306,326.377c0-33.556,5.085-80.701,29.309-114.743
		c6.437-9.046,12.909-15.258,18.09-19.357c0.454,15.786,4.605,28.923,12.401,39.178c30.046,39.528,35.997,79.144,35.638,105.641
		c-5.227,34.846-6.146,75.869,10.935,101.092c0.429,0.634,0.879,1.238,1.326,1.847c-11.165-2.796-23.766-6.774-36.282-12.407
		C100.334,406.301,76.306,372.235,76.306,326.377z M284.186,460.147c-16.581,3.139-39.098-0.918-49.944-3.311
		c1.677-2.806,4.131-6.273,7.398-9.401c10.245,0.011,31.297,1.921,42.547,10.729V460.147z M299.186,460.147v-1.983
		c11.253-8.808,32.305-10.716,42.548-10.729c3.265,3.128,5.72,6.594,7.396,9.401C338.285,459.229,315.769,463.286,299.186,460.147z
		 M388.274,429.777c-6.501,9.599-15.661,15.114-27.893,16.801c-3.17-4.778-6.886-8.999-10.927-12.361
		c-4.773-3.97-6.729-10.26-4.985-16.022c6.716-22.177,20.193-55.937,20.329-56.275c1.538-3.846-0.333-8.21-4.179-9.749
		c-3.843-1.537-8.21,0.332-9.749,4.178c-0.563,1.406-13.852,34.696-20.757,57.499c-1.937,6.397-1.618,13.092,0.647,19.125
		c-9.135,0.817-21.176,2.857-31.574,7.784v-60.252c0-4.142-3.357-7.5-7.5-7.5s-7.5,3.358-7.5,7.5v60.252
		c-10.398-4.927-22.439-6.967-31.573-7.784c2.265-6.033,2.585-12.728,0.648-19.125c-6.905-22.803-20.194-56.093-20.757-57.499
		c-1.538-3.846-5.902-5.717-9.749-4.178c-3.846,1.538-5.717,5.903-4.179,9.749c0.136,0.338,13.61,34.087,20.329,56.275
		c1.744,5.763-0.212,12.052-4.985,16.023c-4.733,3.936-8.326,8.438-10.927,12.361c-12.23-1.687-21.387-7.199-27.888-16.794
		c-11.946-17.632-14.84-49.207-8.369-91.31c3.33-21.667,8.4-41.038,11.476-51.75c0.738,0.438,1.479,0.874,2.229,1.305
		c1.179,0.678,2.464,1.001,3.733,1.001c2.596,0,5.12-1.349,6.508-3.76c2.065-3.59,0.83-8.175-2.761-10.241
		c-3.21-1.847-6.313-3.762-9.223-5.69c-6.787-4.499-10.768-12.414-10.388-20.655c1.364-29.597,11.477-62.341,17.692-79.981
		c10.974,13.144,25.995,22.171,43.765,26.199c4.044,0.915,8.057-1.617,8.973-5.656c0.916-4.04-1.617-8.057-5.656-8.972
		c-32.655-7.402-52.15-34.589-52.15-72.725c0-8.802,5.764-25.39,15.813-45.511c3.994-7.998,5.758-16.955,5.098-25.903
		c-0.318-4.327-0.664-9.041-0.927-12.702c-0.246-3.43,1.843-6.64,5.081-7.806c0.59-0.212,1.183-0.35,1.76-0.409
		c7.144-0.731,31.466-1.114,44.562,24.608c1.279,2.514,3.862,4.097,6.684,4.097h25.365c2.821,0,5.404-1.583,6.684-4.097
		c13.096-25.722,37.419-25.338,44.562-24.608c0.578,0.059,1.171,0.197,1.762,0.41c3.237,1.166,5.326,4.375,5.08,7.805
		c-0.264,3.661-0.609,8.375-0.928,12.703c-0.66,8.948,1.104,17.905,5.098,25.902c10.049,20.122,15.813,36.71,15.813,45.512
		c0,38.136-19.495,65.323-52.15,72.725c-4.039,0.916-6.572,4.933-5.656,8.972c0.789,3.482,3.882,5.844,7.308,5.844
		c0.549,0,1.106-0.061,1.665-0.187c17.681-4.008,32.64-12.965,43.6-26.003c6.221,17.687,16.264,50.298,17.623,79.785
		c0.38,8.241-3.601,16.156-10.387,20.655c-2.91,1.928-6.014,3.843-9.224,5.69c-3.591,2.066-4.826,6.651-2.761,10.241
		c1.388,2.411,3.912,3.76,6.508,3.76c1.269,0,2.555-0.322,3.733-1.001c0.818-0.47,1.628-0.946,2.432-1.424
		c3.061,10.64,8.128,29.961,11.476,51.659C403.116,380.468,400.236,412.112,388.274,429.777z"/>
	<path d="M348.167,289.223c-35.366,16.937-77.594,16.938-112.962,0c-3.733-1.789-8.214-0.211-10.004,3.525
		c-1.789,3.736-0.211,8.215,3.525,10.004c19.487,9.333,41.259,14.265,62.959,14.265c21.701,0,43.473-4.933,62.96-14.265
		c3.736-1.789,5.314-6.268,3.525-10.004C356.381,289.012,351.903,287.434,348.167,289.223z"/>
</g>
<g>
</g>
<g>
</g>
<g>
</g>
<g>
</g>
<g>
</g>
<g>
</g>
<g>
</g>
<g>
</g>
<g>
</g>
<g>
</g>
<g>
</g>
<g>
</g>
<g>
</g>
<g>
</g>
<g>
</g>
</svg>
