<?xml version="1.0" encoding="iso-8859-1"?>
<!-- Generator: Adobe Illustrator 18.0.0, SVG Export Plug-In . SVG Version: 6.00 Build 0)  -->
<!DOCTYPE svg PUBLIC "-//W3C//DTD SVG 1.1//EN" "http://www.w3.org/Graphics/SVG/1.1/DTD/svg11.dtd">
<svg version="1.1" id="Capa_1" xmlns="http://www.w3.org/2000/svg" xmlns:xlink="http://www.w3.org/1999/xlink" x="0px" y="0px"
	 viewBox="0 0 478.281 478.281" style="enable-background:new 0 0 478.281 478.281;" xml:space="preserve">
<g>
	<path d="M365.346,439.139c-1.17-22.385-5.715-109.875-6.678-136.44c20.812-73.378,9.319-132.881,8.817-135.391
		c-0.058-0.291-0.134-0.578-0.226-0.86l-16.714-51.121c7.551-14.313,8.277-29.667,7.945-38.168
		c-0.122-3.133-1.3-11.481-2.302-13.991c5.684-17.946,11.025-47.67,3.167-59.757c-1.444-2.221-3.958-3.511-6.599-3.406
		c-5.069,0.211-12.891,3.293-32.475,24.563c-0.738,0.801-1.787,1.261-2.878,1.261h-39.263c-1.092,0-2.141-0.459-2.878-1.26
		c-19.584-21.27-27.407-24.353-32.477-24.564c-2.635-0.103-5.155,1.185-6.599,3.406c-7.859,12.087-2.518,41.813,3.167,59.76
		c-1.001,2.509-2.179,10.856-2.302,13.989c-0.371,9.472,0.57,27.449,10.804,43.015c-3.851,7.353-15.375,18.533-31.886,30.802
		c-9.151,6.8-16.848,15.741-22.26,25.857L115.31,323.391c-6.379,10.828-9.513,23.185-9.064,35.747l1.057,29.606l-12.219,20.945
		c-4.313,7.395-6.153,16.15-5.181,24.654l1.107,9.687c1.36,11.905,10.565,21.594,22.384,23.564l9.617,1.603
		c15.451,2.575,31.115,3.855,46.781,3.855c29.214,0,58.434-4.452,86.286-13.259l9.907-3.132l4.971,16.306
		c0.962,3.156,3.874,5.313,7.174,5.313h41c3.981,0,7.268-3.11,7.488-7.085l0.092-1.654c0.657-11.817-5.114-23.097-14.886-29.532
		l-18.036-90.179l1.456-2.434c0.047-0.078,0.092-0.157,0.136-0.237c1.715-3.118,3.366-6.272,4.965-9.452l29.458,134.674
		c0.753,3.443,3.802,5.897,7.327,5.897h44c4.142,0,7.5-3.358,7.5-7.5C388.631,456.169,379.282,443.481,365.346,439.139z
		 M247.315,18.401c3.488,2.735,8.896,7.621,16.913,16.329c3.569,3.877,8.64,6.1,13.914,6.1h39.263
		c5.272,0,10.344-2.224,13.914-6.101c8.016-8.706,13.423-13.592,16.911-16.328c0.54,9.394-1.493,26.113-7.084,42.507
		c-0.451,1.153-0.612,2.403-0.464,3.636c0.113,0.941,2.582,9.433,2.703,11.233c0.498,7.384,0.489,27.234-12.046,41.118
		c-9.271,10.269-26.48,11.386-33.52,11.386c-0.018,0-0.036,0-0.053,0c-0.018,0-0.035,0-0.053,0c-7.028,0-24.237-1.118-33.507-11.386
		c-12.534-13.884-12.544-33.734-12.046-41.118c0.12-1.78,2.59-10.292,2.703-11.232c0.147-1.226-0.012-2.47-0.459-3.619
		C248.808,44.526,246.775,27.798,247.315,18.401z M251.556,445.492c-40.539,12.819-84.136,15.9-126.079,8.91l-9.617-1.603
		c-5.252-0.875-9.342-5.181-9.947-10.471l-1.107-9.687c-0.607-5.31,0.542-10.776,3.234-15.393l0.264-0.453l0.331,9.254
		c0.122,3.413,2.534,6.313,5.868,7.054c19.907,4.424,40.169,6.626,60.414,6.626c27.743,0,55.446-4.15,82.131-12.379l4.562,14.963
		L251.556,445.492z M343.168,463.279l-32.486-148.52c12.298-30.75,19.462-63.6,20.942-96.643c0.185-4.138-3.019-7.643-7.157-7.828
		c-4.151-0.188-7.643,3.019-7.828,7.157c-1.687,37.673-11.154,75.083-27.508,109.089l-0.348-1.739
		c-1.255-6.277-0.9-12.822,1.028-18.926l8.473-26.83c1.248-3.95-0.943-8.163-4.894-9.41c-3.952-1.248-8.164,0.944-9.41,4.893
		l-8.473,26.83c-2.688,8.51-3.183,17.634-1.433,26.385l23.703,118.514c0.44,2.201,1.844,4.09,3.825,5.146l0.556,0.297
		c4.571,2.438,7.814,6.702,9.051,11.586h-27.523l-43.727-143.424c-2.675-8.774-3.083-18.155-1.179-27.129
		c2.706-12.757,1.768-25.973-2.713-38.219l-8.892-24.304c-1.423-3.891-5.731-5.889-9.62-4.467c-3.89,1.423-5.89,5.73-4.467,9.62
		l8.892,24.305c3.512,9.597,4.247,19.955,2.126,29.952c-2.429,11.45-1.908,23.42,1.505,34.616l27.066,88.777
		c-41.843,12.912-86.335,15.196-129.26,6.644l-2.181-61.048c-0.348-9.742,2.095-19.324,7.064-27.711
		c0.056-0.094,0.109-0.189,0.161-0.285l78.476-146.697c4.375-8.179,10.592-15.403,17.979-20.892
		c15.944-11.848,27.087-22.315,33.321-31.273c12.687,9.906,29.678,11.536,39.458,11.536c0.046,0,0.093,0,0.141,0
		c10.374,0,28.829-1.838,41.685-13.403l13.329,40.769c0.96,5.266,10.456,61.676-8.928,129.059c-0.218,0.757-0.315,1.544-0.288,2.332
		c0.991,28.735,6.946,141.995,7.006,143.136c0.166,3.15,2.285,5.859,5.302,6.78l4.822,1.471c5.149,1.568,9.167,5.21,11.263,9.855
		H343.168z"/>
	<path d="M186.808,303.57c-31.755,0-57.59,25.834-57.59,57.59c0,4.142,3.358,7.5,7.5,7.5s7.5-3.358,7.5-7.5
		c0-23.484,19.106-42.59,42.59-42.59c4.142,0,7.5-3.358,7.5-7.5S190.95,303.57,186.808,303.57z"/>
</g>
<g>
</g>
<g>
</g>
<g>
</g>
<g>
</g>
<g>
</g>
<g>
</g>
<g>
</g>
<g>
</g>
<g>
</g>
<g>
</g>
<g>
</g>
<g>
</g>
<g>
</g>
<g>
</g>
<g>
</g>
</svg>
