<?xml version="1.0" encoding="iso-8859-1"?>
<!-- Generator: Adobe Illustrator 18.0.0, SVG Export Plug-In . SVG Version: 6.00 Build 0)  -->
<!DOCTYPE svg PUBLIC "-//W3C//DTD SVG 1.1//EN" "http://www.w3.org/Graphics/SVG/1.1/DTD/svg11.dtd">
<svg version="1.1" id="Capa_1" xmlns="http://www.w3.org/2000/svg" xmlns:xlink="http://www.w3.org/1999/xlink" x="0px" y="0px"
	 viewBox="0 0 475.24 475.24" style="enable-background:new 0 0 475.24 475.24;" xml:space="preserve">
<path d="M426.712,435.448c-9.317-7.233-19.732-13.416-30.394-18.681c8.953-5.377,13.137-16.368,9.776-26.451
	c-2.089-6.266-6.807-11.287-12.942-13.775c-5.691-2.308-12.815-4.106-21.201-5.353c-41.645-37.084-57.117-89.156-55.781-107.846
	c0.456-6.39,11.057-21.12,39.441-43.298c10.013-7.824,16.517-19.528,17.845-32.111l7.193-68.156
	c1.642-2.141,3.547-4.056,5.713-5.681c8.705-6.529,14.714-15.994,16.919-26.65l3.047-14.725c2.262-4.73,13.586-28.542,21.549-47.634
	c2.957-7.087,1.223-15.037-4.419-20.252c-5.631-5.206-13.68-6.31-20.497-2.813c-18.259,9.359-34.513,24.238-41.092,30.659
	c-11.106-2.303-22.61-2.304-33.717,0c-6.579-6.421-22.832-21.3-41.09-30.659c-6.823-3.496-14.866-2.392-20.498,2.813
	c-5.642,5.215-7.376,13.165-4.419,20.251c7.963,19.093,19.287,42.905,21.549,47.635l2.165,10.461l-29.936,26.401
	c-4.477,3.948-10.229,5.997-16.19,5.766l-39.933-1.536c-44.663-1.71-86.306,23.153-106.035,63.364
	c-24.436,49.804-53.563,123.563-53.563,192.125c0,24.418,0,40.549,7.115,53.487c7.302,13.274,20.733,21.333,47.909,28.745
	c21.449,5.85,64.749,5.061,114.881,4.144c63.026-1.15,141.47-2.583,163.262,12.753c6.464,4.548,14.953,6.809,25.71,6.809
	c5.463,0,11.512-0.583,18.175-1.746c8.491-1.481,15.056-7.589,17.132-15.939C436.46,449.204,433.521,440.734,426.712,435.448z
	 M260.349,382.625c-3.892-7.198-14.394-12.661-32.707-16.915c18.969-15.286,32.27-37.096,39.038-49.958
	c17.451,20.21,39.521,46.951,47.345,61.542c3.387,6.313,8.186,11.664,13.878,15.473c0.358,0.239,0.733,0.499,1.098,0.745
	C308.016,388.626,285.096,384.993,260.349,382.625z M275.989,19.311c-0.724-1.734,0.164-2.914,0.758-3.462
	c0.4-0.371,1.102-0.854,2.031-0.854c0.434,0,0.916,0.105,1.441,0.374c20.979,10.754,39.949,30.54,40.136,30.735
	c1.886,1.984,4.698,2.781,7.347,2.085c11.323-2.983,23.294-2.984,34.617,0c2.648,0.696,5.462-0.102,7.347-2.084
	c0.188-0.198,19.089-19.947,40.138-30.736c1.648-0.847,2.885-0.064,3.472,0.479c0.594,0.548,1.481,1.728,0.758,3.463
	c-8.684,20.819-21.494,47.474-21.622,47.741c-0.266,0.551-0.463,1.133-0.587,1.732l-3.232,15.621
	c-1.463,7.073-5.451,13.355-11.229,17.689c-3.965,2.973-7.386,6.563-10.169,10.669l-11.827,17.461
	c-2.33,3.439-6.201,5.492-10.355,5.492c-4.153,0-8.024-2.053-10.354-5.492l-11.829-17.463c-2.782-4.105-6.203-7.694-10.168-10.667
	c-5.778-4.334-9.767-10.617-11.229-17.689l-3.232-15.621c-0.124-0.6-0.321-1.181-0.587-1.733
	C297.483,66.787,284.675,40.141,275.989,19.311z M419.828,453.935c-0.236,0.952-1.308,4.111-5.153,4.782
	c-15.226,2.656-26.525,1.773-32.674-2.554c-25.801-18.155-100.211-16.796-172.169-15.483c-46.941,0.857-91.281,1.667-110.659-3.618
	c-22.467-6.127-33.683-12.357-38.713-21.502c-5.259-9.562-5.259-24.16-5.259-46.258c0-65.685,28.294-137.141,52.03-185.518
	c17.12-34.892,53.235-56.462,91.992-54.982l39.932,1.536c9.818,0.373,19.309-2.998,26.689-9.505l24.928-21.984
	c3.063,5.944,7.449,11.168,12.887,15.248c2.632,1.974,4.903,4.357,6.749,7.081l11.829,17.462
	c5.124,7.563,13.638,12.079,22.772,12.079c6.699,0,13.058-2.436,17.997-6.714l-4.47,42.354c-0.903,8.562-5.336,16.532-12.162,21.866
	c-29.03,22.683-44.228,40.867-45.169,54.049c-1.582,22.156,15.146,80.598,62.566,121.696c1.106,0.959,2.47,1.573,3.921,1.767
	c10.12,1.35,16.364,3.304,19.821,4.705c2.064,0.837,3.649,2.521,4.349,4.619c1.202,3.605-0.479,7.558-3.91,9.195l-9.533,4.548
	c-2.473-0.991-4.932-1.936-7.37-2.836c-4.102-3.216-21.531-16.783-34.805-25.666c-3.659-2.448-6.771-5.939-9.001-10.096
	c-11.08-20.662-46.08-61.071-65.957-83.319c-5.221-5.845-8.097-13.384-8.097-21.228v-82.347c0-4.142-3.357-7.5-7.5-7.5
	s-7.5,3.358-7.5,7.5v82.347c0,11.535,4.23,22.623,11.911,31.221c1.724,1.93,3.727,4.183,5.918,6.666
	c-5.687,11.673-23.455,44.467-49.463,58.275c-3.497-0.518-7.155-1.015-11.014-1.489c-29.983-3.686-59.411-4.493-60.649-4.526
	c-4.13-0.099-7.585,3.159-7.694,7.3c-0.109,4.14,3.159,7.585,7.3,7.695c0.274,0.007,27.792,0.762,55.917,4.025
	c13.978,1.621,24.529,3.442,32.493,5.243c-21.356-0.913-43.854-1.006-67.449-0.262c-28.3,0.888-54.027-4.434-76.512-15.82
	c-3.695-1.871-8.208-0.393-10.079,3.302c-1.872,3.695-0.394,8.208,3.302,10.08c24.753,12.536,52.941,18.405,83.76,17.431
	c162.213-5.099,233.508,30.703,261.582,52.499C420.597,449.691,420.064,452.983,419.828,453.935z"/>
<g>
</g>
<g>
</g>
<g>
</g>
<g>
</g>
<g>
</g>
<g>
</g>
<g>
</g>
<g>
</g>
<g>
</g>
<g>
</g>
<g>
</g>
<g>
</g>
<g>
</g>
<g>
</g>
<g>
</g>
</svg>
