<?xml version="1.0" encoding="iso-8859-1"?>
<!-- Generator: Adobe Illustrator 18.0.0, SVG Export Plug-In . SVG Version: 6.00 Build 0)  -->
<!DOCTYPE svg PUBLIC "-//W3C//DTD SVG 1.1//EN" "http://www.w3.org/Graphics/SVG/1.1/DTD/svg11.dtd">
<svg version="1.1" id="Capa_1" xmlns="http://www.w3.org/2000/svg" xmlns:xlink="http://www.w3.org/1999/xlink" x="0px" y="0px"
	 viewBox="0 0 464.439 464.439" style="enable-background:new 0 0 464.439 464.439;" xml:space="preserve">
<path d="M452.168,4.425c-3.102-3.428-7.753-5.01-12.425-4.229c-14.603,2.433-29.228,5.69-45.943,10.235h-88.614
	c-16.716-4.545-31.341-7.803-45.943-10.235c-4.676-0.782-9.322,0.801-12.426,4.229c-2.853,3.151-3.902,7.444-2.809,11.481
	c5.755,21.243,18.157,41.912,23.954,50.855c-2.538,3.348-6.023,7.894-8.258,10.598c-2.15,2.602-5.507,7.646-5.882,8.212
	c-0.772,1.166-1.204,2.524-1.246,3.921l-0.29,9.775c-0.034,1.156-0.413,2.311-1.095,3.339l-1.265,1.907
	c-0.518,0.782-0.981,1.588-1.388,2.412l-0.388,0.067c-9.363,1.608-17.228,8.141-20.524,17.049c-0.645,1.742-1.707,3.317-3.098,4.578
	c-1.365,1.249-3.04,2.167-4.843,2.653c-0.085,0.023-0.17,0.047-0.254,0.074l-0.011,0.003c-8.982,2.471-16.114,9.566-18.621,18.513
	l-0.049,0.172c-1.025,3.648-3.755,6.586-7.304,7.86c-0.084,0.03-0.189,0.071-0.293,0.114c-8.751,3.226-15.256,10.907-17.006,20.124
	l-0.025,0.133c-0.693,3.654-3.099,6.782-6.444,8.39c-0.057,0.025-0.114,0.051-0.17,0.077c-8.6,4.03-14.458,12.408-15.289,21.865
	c-0.007,0.083-0.013,0.167-0.018,0.25l-0.002,0.035c-0.355,3.606-2.382,6.879-5.449,8.804c-0.059,0.034-0.118,0.068-0.176,0.104
	c-8.17,4.983-13.072,13.995-12.814,23.542v0.081c0,0.083,0.001,0.166,0.004,0.248c0.121,3.65-1.507,7.197-4.354,9.488
	c-0.059,0.047-0.118,0.097-0.177,0.147c-7.49,6.126-11.085,15.829-9.399,25.299l0.043,0.252c0.624,3.505-0.415,7.179-2.779,9.849
	c-0.023,0.024-0.045,0.049-0.068,0.074c-6.612,7.334-8.64,17.642-5.304,26.925l0.022,0.065c0.021,0.062,0.042,0.124,0.064,0.185
	c1.218,3.349,0.864,7.007-0.967,10.052c-0.021,0.032-0.041,0.064-0.06,0.096c-5.231,8.537-5.269,19.17-0.098,27.751l0.502,0.832
	c-23.675,1.853-46.702,6.199-64.962,10.456c-22.479,5.242-38.58,25.018-39.154,48.093l-0.023,0.961
	c-0.302,13.252,4.485,25.907,13.479,35.632c9.021,9.754,21.277,15.478,34.51,16.117c7.133,0.344,14.225,0.5,21.223,0.5
	c34.678,0,66.951-3.818,89.45-7.367c12.081-1.905,22.267-9.125,28.362-19.013l80.908-0.684c5.588,6.474,13.859,10.536,23.105,10.536
	h61.921c8.378,0,16.177-3.339,21.959-9.401c5.783-6.063,8.75-14.01,8.354-22.379l-0.772-16.375l0.543-10.81
	c0.166-3.365,1.937-6.478,4.742-8.352l0.064-0.039c0.078-0.047,0.155-0.095,0.231-0.145c7.308-4.754,11.67-12.802,11.67-21.526
	c0-0.812-0.034-1.592-0.101-2.31c-0.316-3.488,1.097-6.901,3.781-9.13c0.044-0.037,0.088-0.073,0.131-0.111l0.094-0.082
	c7.147-5.994,10.483-15.391,8.698-24.594c-0.678-3.498,0.424-7.077,2.945-9.576c0.078-0.077,0.154-0.155,0.228-0.235l0.02-0.021
	c6.465-6.498,8.974-16.01,6.549-24.871c-0.008-0.026-0.021-0.077-0.035-0.123c-0.934-3.463-0.083-7.127,2.28-9.812
	c0.041-0.046,0.081-0.093,0.12-0.14l0.049-0.059c5.999-6.877,7.896-16.503,4.95-25.146c-0.014-0.041-0.036-0.102-0.059-0.163
	c-1.13-3.389-0.501-7.081,1.689-9.905l0.036-0.044c0.031-0.038,0.062-0.076,0.091-0.114c5.573-7.091,7.001-16.674,3.757-25.08
	c-0.043-0.127-0.089-0.253-0.139-0.378c-1.35-3.376-0.895-7.162,1.216-10.127c0.064-0.091,0.127-0.183,0.188-0.277
	c5.176-7.387,6.085-17.051,2.363-25.279l-0.054-0.117c-1.524-3.355-1.215-7.189,0.829-10.255c4.985-7.477,5.586-17.116,1.567-25.152
	l-0.275-0.553c-0.623-1.237-0.993-2.585-1.107-3.963c1.078-3.248,1.369-6.731,0.764-10.217l-0.062-0.357
	c-0.213-1.225-0.036-2.488,0.51-3.651l0.809-1.724c3.169-6.754,2.58-14.532-1.576-20.804l-1.262-1.905
	c-0.684-1.031-1.063-2.187-1.1-3.415l-0.39-9.844c-0.054-1.352-0.472-2.664-1.21-3.798c-0.365-0.56-3.627-5.546-5.816-8.191
	c-2.233-2.704-5.719-7.25-8.257-10.599c5.797-8.944,18.199-29.613,23.954-50.855C456.071,11.869,455.02,7.577,452.168,4.425z
	 M165.376,442.255c-26.345,4.155-66.399,8.691-107.613,6.701c-19.028-0.918-34.153-17.258-33.716-36.433l0.022-0.921
	c0.405-16.245,11.74-30.167,27.565-33.857c30.252-7.054,73.964-14.397,110.411-9.322c10.53,1.466,18.978,8.959,21.521,19.09
	c2.223,8.851,3.433,18.522,3.598,28.746C187.372,429.087,178.005,440.263,165.376,442.255z M285.492,422.628h37.435v10.283h-22.84
	C293.343,432.911,287.625,428.655,285.492,422.628z M362.008,432.911h-24.081v-10.283h38.568c-0.71,2.033-1.842,3.915-3.381,5.528
	C370.189,431.222,366.246,432.911,362.008,432.911z M433.94,187.391l0.048,0.104c1.554,3.436,1.158,7.48-1.033,10.555
	c-0.066,0.093-0.13,0.187-0.192,0.282c-4.924,7.034-6.007,15.949-2.914,23.95c0.042,0.126,0.088,0.25,0.138,0.374
	c1.396,3.498,0.831,7.505-1.474,10.475l-0.037,0.045c-0.032,0.039-0.063,0.078-0.094,0.117c-5.389,6.865-6.921,15.892-4.098,24.148
	c0.013,0.038,0.034,0.096,0.056,0.154c1.188,3.583,0.384,7.56-2.111,10.397c-0.04,0.045-0.079,0.091-0.117,0.137l-0.047,0.055
	c-5.672,6.495-7.693,15.333-5.406,23.665c0.007,0.024,0.02,0.069,0.032,0.112c0.992,3.694-0.07,7.65-2.779,10.337
	c-0.077,0.076-0.152,0.154-0.226,0.233l-0.019,0.02c-5.998,6.024-8.609,14.593-6.979,23.011c0.739,3.813-0.658,7.729-3.647,10.219
	c-0.041,0.034-0.081,0.068-0.121,0.103l-0.09,0.079c-6.441,5.386-9.83,13.592-9.067,21.98c0.025,0.271,0.038,0.587,0.038,0.941
	c0,3.591-1.773,6.904-4.751,8.888l-0.067,0.041c-0.08,0.048-0.158,0.097-0.236,0.147c-6.879,4.482-11.229,12.05-11.635,20.238
	l-0.561,11.17c-0.013,0.243-0.013,0.486-0.001,0.729l0.355,7.53h-38.977v-31.607l28.562-28.562c2.929-2.929,2.929-7.678,0-10.606
	c-2.93-2.929-7.678-2.929-10.607,0l-25.454,25.455l-25.454-25.455c-2.93-2.929-7.678-2.929-10.607,0
	c-2.929,2.929-2.929,7.678,0,10.606l28.562,28.562v31.607h-38.706l-0.028-0.765c-0.556-14.966-8.147-25.63-20.308-28.525
	c-0.113-0.027-0.228-0.052-0.343-0.073l-0.174-0.033c-1.871-0.354-3.267-1.929-3.395-3.829c-0.535-7.941-5.786-14.618-13.378-17.008
	c-0.016-0.005-0.038-0.012-0.062-0.019c-1.781-0.574-2.966-2.265-2.896-4.133c0.001-0.024,0.002-0.048,0.004-0.073
	c0.373-7.954-4.087-15.186-11.38-18.432c-1.735-0.772-2.732-2.621-2.438-4.427c0.004-0.022,0.014-0.085,0.018-0.108
	c1.281-7.839-2.304-15.526-9.151-19.594c-1.636-0.972-2.41-2.928-1.871-4.79c2.203-7.615-0.428-15.666-6.639-20.462
	c-0.021-0.017-0.061-0.048-0.082-0.064c-1.508-1.165-2.038-3.202-1.274-4.986c3.116-7.279,1.498-15.586-4.122-21.163l-6.444-6.396
	c-2.94-2.917-7.688-2.9-10.607,0.04c-2.918,2.94-2.9,7.689,0.04,10.607l6.445,6.397c1.225,1.215,1.578,3.026,0.885,4.644
	c-3.441,8.039-1.011,17.386,5.846,22.681c0.021,0.017,0.061,0.047,0.082,0.064c1.368,1.056,1.941,2.811,1.451,4.505
	c-2.426,8.387,1.122,17.36,8.646,21.831c1.489,0.884,2.271,2.561,2.002,4.202c-0.004,0.023-0.014,0.085-0.018,0.108
	c-1.404,8.597,3.173,17.076,11.148,20.625c1.573,0.701,2.543,2.257,2.479,3.975c-0.001,0.024-0.003,0.048-0.004,0.072
	c-0.409,8.69,5.102,16.584,13.4,19.197c0.017,0.005,0.04,0.012,0.064,0.02c1.639,0.529,2.771,1.978,2.887,3.699
	c0.587,8.708,6.98,15.924,15.552,17.556c7.116,1.799,8.472,9.814,8.644,14.453l0.412,11.126c0.049,1.322,0.189,2.617,0.397,3.888
	l-68.35,0.578c0.362-2.284,0.539-4.621,0.501-6.996c-0.184-11.372-1.545-22.191-4.047-32.157
	c-4.04-16.089-17.386-27.979-34.001-30.293c-10.917-1.52-22.385-2.006-33.932-1.756l-4.647-7.707
	c-2.254-3.74-2.252-8.369-0.002-12.1c0.023-0.036,0.045-0.072,0.067-0.108c4.245-6.945,5.098-15.312,2.346-22.973l-0.022-0.066
	c-0.021-0.062-0.042-0.124-0.064-0.186c-1.475-4.054-0.611-8.561,2.251-11.787c0.025-0.027,0.05-0.054,0.075-0.082
	c5.479-6.087,7.894-14.529,6.472-22.51l-0.043-0.252c-0.75-4.216,0.853-8.502,4.183-11.186c0.056-0.045,0.112-0.092,0.168-0.141
	c6.374-5.206,10.025-13.187,9.795-21.413v-0.076c0-0.08-0.001-0.159-0.004-0.239c-0.132-4.157,1.97-8.091,5.495-10.306
	c0.057-0.033,0.114-0.066,0.17-0.101c7.224-4.4,11.982-12.057,12.729-20.482c0.007-0.085,0.014-0.171,0.018-0.257l0.002-0.04
	c0.396-4.068,2.914-7.667,6.602-9.438c0.057-0.025,0.114-0.051,0.17-0.077c7.744-3.63,13.32-10.816,14.92-19.25l0.025-0.132
	c0.771-4.066,3.66-7.457,7.538-8.851c0.083-0.03,0.187-0.07,0.29-0.113c8.008-2.949,14.159-9.605,16.465-17.815l0.05-0.177
	c1.11-3.961,4.263-7.084,8.227-8.151c0.087-0.023,0.174-0.048,0.261-0.075l0.013-0.004c3.918-1.081,7.567-3.068,10.575-5.73
	c-0.709,4-0.283,8.207,1.395,12.155l0.153,0.36c0.228,0.537,0.382,1.08,0.459,1.613c0.259,1.784-0.25,3.612-1.402,5.025
	c-5.777,7.102-6.422,17.1-1.614,24.864l0.398,0.647c1.167,1.877,1.291,4.195,0.333,6.201c-1.786,3.737-0.205,8.215,3.532,10.001
	c1.044,0.499,2.145,0.735,3.229,0.735c2.799,0,5.484-1.574,6.771-4.268c3.177-6.646,2.755-14.342-1.11-20.561l-0.393-0.637
	c-1.454-2.349-1.258-5.369,0.483-7.509c3.793-4.651,5.477-10.72,4.616-16.651c-0.262-1.808-0.765-3.597-1.495-5.318l-0.155-0.366
	c-0.85-1.998-0.599-4.285,0.548-6.059c1.174,4.27,3.689,8.184,7.369,11.222c1.24,1.023,2.091,2.296,2.464,3.683
	c0.003,0.012,0.006,0.024,0.01,0.037c1.925,7.304,7.608,13.196,15.209,15.775c0.024,0.009,0.049,0.017,0.074,0.025
	c1.762,0.592,3.243,1.599,4.283,2.911c4.693,5.924,12.185,9.351,20.205,9.15c1.948-0.033,3.882,0.416,5.518,1.342l3.783,2.142
	c5.211,2.951,11.384,3.967,17.376,2.859l4.421-0.816c1.929-0.357,3.912-0.198,5.728,0.458l4.186,1.513
	c2.841,1.027,5.825,1.541,8.81,1.54c2.985,0,5.971-0.513,8.812-1.54l4.185-1.513c1.815-0.656,3.798-0.815,5.729-0.458l4.419,0.815
	c5.993,1.108,12.163,0.092,17.378-2.859l3.78-2.141c1.638-0.927,3.543-1.385,5.559-1.342c7.924,0.196,15.475-3.228,20.167-9.151
	c1.04-1.312,2.521-2.318,4.282-2.91c0.023-0.008,0.047-0.016,0.071-0.024c5.877-1.993,10.599-5.972,13.333-11.048
	c-0.283,0.954-0.693,1.876-1.259,2.726C431.007,170.026,430.257,179.291,433.94,187.391z M415.703,62.68
	c-1.879,2.653-1.834,6.215,0.11,8.82c0.318,0.426,7.83,10.484,11.906,15.418c0.988,1.193,2.547,3.44,3.682,5.125l0.304,7.67
	c0.118,3.951,1.358,7.818,3.587,11.181l1.262,1.904c1.259,1.901,1.441,4.142,0.5,6.148l-0.809,1.723
	c-1.859,3.963-2.45,8.316-1.712,12.573l0.062,0.357c0.394,2.267-0.572,4.613-2.585,6.274c-3.688,3.044-6.256,7.007-7.429,11.462
	c-0.003,0.011-0.006,0.022-0.009,0.033c-0.649,2.417-2.72,4.423-5.543,5.372c-0.024,0.008-0.049,0.017-0.072,0.025
	c-4.491,1.523-8.361,4.216-11.195,7.792c-1.758,2.219-4.837,3.536-8.079,3.47c-4.7-0.112-9.278,1.021-13.279,3.285l-3.781,2.141
	c-2.117,1.2-4.764,1.625-7.263,1.162l-4.419-0.816c-4.546-0.839-9.232-0.459-13.552,1.103l-4.184,1.513
	c-2.358,0.852-5.065,0.853-7.424,0l-4.185-1.513c-2.824-1.021-5.806-1.537-8.803-1.537c-1.586,0-3.176,0.144-4.748,0.435
	l-4.421,0.816c-2.497,0.462-5.144,0.038-7.262-1.162l-3.783-2.142c-3.998-2.264-8.571-3.398-13.313-3.284
	c-3.187,0.069-6.285-1.252-8.045-3.473c-2.832-3.574-6.7-6.266-11.191-7.789c-0.024-0.009-0.049-0.017-0.074-0.025
	c-2.823-0.949-4.894-2.956-5.543-5.372c-0.003-0.011-0.006-0.022-0.009-0.034c-1.173-4.456-3.742-8.419-7.429-11.462
	c-2.013-1.661-2.979-4.007-2.587-6.269l0.061-0.347c0.741-4.272,0.15-8.625-1.709-12.588l-0.809-1.723
	c-0.941-2.006-0.759-4.247,0.499-6.146l1.264-1.906c2.229-3.362,3.468-7.229,3.586-11.181l0.226-7.606
	c1.265-1.849,2.841-4.08,3.761-5.193c4.073-4.929,11.587-14.988,11.904-15.414c1.945-2.605,1.99-6.167,0.111-8.82
	c-0.171-0.242-16.391-23.311-23.788-47.226c13.48,2.344,27.135,5.451,42.707,9.711c0.646,0.176,1.311,0.266,1.979,0.266h90.624
	c0.669,0,1.334-0.089,1.979-0.266c15.572-4.261,29.226-7.367,42.707-9.711C432.107,39.31,415.873,62.44,415.703,62.68z"/>
<g>
</g>
<g>
</g>
<g>
</g>
<g>
</g>
<g>
</g>
<g>
</g>
<g>
</g>
<g>
</g>
<g>
</g>
<g>
</g>
<g>
</g>
<g>
</g>
<g>
</g>
<g>
</g>
<g>
</g>
</svg>
