<?xml version="1.0" encoding="iso-8859-1"?>
<!-- Generator: Adobe Illustrator 18.0.0, SVG Export Plug-In . SVG Version: 6.00 Build 0)  -->
<!DOCTYPE svg PUBLIC "-//W3C//DTD SVG 1.1//EN" "http://www.w3.org/Graphics/SVG/1.1/DTD/svg11.dtd">
<svg version="1.1" id="Capa_1" xmlns="http://www.w3.org/2000/svg" xmlns:xlink="http://www.w3.org/1999/xlink" x="0px" y="0px"
	 viewBox="0 0 467.345 467.345" style="enable-background:new 0 0 467.345 467.345;" xml:space="preserve">
<path d="M464.116,119.166l-2.266-4.835c10.021-34.414-5.604-66.8-6.292-68.199c-0.958-1.947-2.713-3.383-4.812-3.938
	c-2.098-0.556-4.333-0.174-6.129,1.044c-10.26,6.962-18.479,16.571-23.766,27.787l-6.682,14.173c-5.829-1.013-11.767-1.013-17.596,0
	l-6.682-14.173c-5.287-11.216-13.505-20.824-23.766-27.787c-1.796-1.219-4.032-1.6-6.129-1.044
	c-2.098,0.555-3.853,1.991-4.812,3.938c-0.604,1.228-12.703,26.313-8.892,55.691l-22.255,8.298
	c-7.2,2.595-14.951,3.069-22.414,1.374l-43.216-9.822c-29.01-6.593-58.565-7.265-87.844-1.994L66.672,118.379l-10.206-8.636
	c-6.345-5.369-15.206-6.352-22.571-2.508l-18.851,9.835c-7.441,3.883-11.784,12.083-10.807,20.405
	c1.371,11.673,3.486,35.052,2.26,60.469c-0.297,6.156,0.626,12.241,2.746,18.084c11.667,32.166,19.984,57.343,22.946,66.446
	L6.863,316.042c-7.657,10.149-9.011,23.581-3.535,35.053l33.43,70.038c1.245,2.608,3.878,4.269,6.769,4.269h40.498
	c3.587,0,6.672-2.541,7.361-6.061l0.761-3.893c1.355-6.934-0.444-14.039-4.936-19.493c-3.561-4.324-8.464-7.186-13.864-8.186
	l-16.324-25.03l28.895-17.602l-1.103,5.637c-2.807,14.347,3.288,28.783,15.527,36.778l56.077,36.629
	c1.22,0.796,2.645,1.221,4.102,1.221h40.498c3.587,0,6.673-2.541,7.361-6.062c3.258-16.674-7.599-33.17-24.202-36.771l-25.374-5.504
	c-4.381-1.706-7.838-4.995-9.765-9.303c-1.99-4.448-2.083-9.387-0.263-13.906l13.758-34.159
	c10.965-27.225,37.016-44.816,66.366-44.816h21.471c1.304,8.244,4.864,15.99,10.435,22.441l44.428,51.442l-10.082,37.301
	c-1.561,5.775-0.732,11.785,2.333,16.923c3.065,5.137,7.959,8.721,13.782,10.091c1.687,0.396,3.379,0.588,5.051,0.588
	c8.088,0,15.664-4.492,19.465-11.962c2.457-4.83,5.833-11.415,9.321-18.065l25.132,38.372c1.386,2.116,3.745,3.391,6.274,3.391
	h40.498c3.587,0,6.672-2.541,7.361-6.062l0.761-3.893c1.355-6.934-0.444-14.039-4.936-19.493c-3.553-4.314-8.442-7.173-13.827-8.179
	c-13.466-21.356-23.276-44.619-29.176-69.201l-7.554-31.476l3.344-4.374c21.81-28.52,37.982-60.377,48.145-94.743
	c32.039-5.802,39.77-29.303,44.18-42.728l0.316-0.96C468.357,135.997,467.823,127.073,464.116,119.166z M44.215,370.563
	l18.527,28.408c1.385,2.123,3.748,3.403,6.282,3.403c2.566,0,4.975,1.136,6.606,3.118c1.163,1.412,1.829,3.129,1.938,4.911H48.256
	l-31.392-65.768c-3.056-6.401-2.3-13.895,1.973-19.557l27.675-36.681c1.465-1.941,1.897-4.473,1.16-6.791
	c-0.04-0.127-1.821-5.71-5.012-15.268c3.061,2.786,6.262,5.438,9.615,7.929l19.355,14.378c11.653,8.657,18.163,22.639,17.595,36.913
	l-40.42,24.624c-3.384,2.074-5.728,5.349-6.601,9.221C41.333,363.273,42.047,367.237,44.215,370.563z M361.065,273.614l-5.513,7.209
	c-1.372,1.793-1.862,4.11-1.335,6.306l8.387,34.947c6.579,27.411,17.723,53.282,33.122,76.895c1.385,2.123,3.748,3.403,6.282,3.403
	c2.566,0,4.975,1.136,6.606,3.118c1.163,1.412,1.829,3.129,1.938,4.911h-29.989l-27.382-41.808c1.383-2.493,2.668-4.747,3.783-6.613
	c4.455-7.452,4.715-16.499,0.697-24.2l-27.141-52.02c-0.927-1.778-0.504-3.923,1.03-5.214l25.265-21.275
	c17.131-14.426,28.873-34.486,33.063-56.486c0.775-4.069-1.896-7.996-5.964-8.771c-4.07-0.778-7.996,1.896-8.771,5.964
	c-3.547,18.624-13.487,35.607-27.99,47.819l-25.265,21.275c-6.951,5.854-8.87,15.569-4.667,23.626l27.141,52.021
	c1.589,3.045,1.487,6.621-0.273,9.565c-5.61,9.386-14.883,27.269-21.675,40.617c-1.442,2.834-4.612,4.303-7.711,3.574
	c-1.832-0.431-3.371-1.558-4.335-3.174c-0.964-1.617-1.225-3.507-0.734-5.324l11.121-41.146c0.65-2.404,0.064-4.974-1.564-6.859
	l-47.031-54.456c-5.15-5.963-7.746-13.58-7.309-21.447l2.154-38.772c0.23-4.136-2.937-7.675-7.072-7.904
	c-4.132-0.219-7.674,2.937-7.904,7.072l-1.856,33.414h-21.271c-35.504,0-67.016,21.279-80.28,54.212L134.86,348.25
	c-3.356,8.333-3.184,17.437,0.484,25.636c3.668,8.2,10.342,14.396,18.791,17.447c0.313,0.113,0.632,0.205,0.958,0.275l25.904,5.619
	c6.64,1.44,11.522,6.822,12.693,13.174h-30.937l-54.208-35.409c-7.102-4.639-10.638-13.015-9.01-21.34l3.649-18.649
	c4.318-22.068-4.556-44.992-22.607-58.402l-19.356-14.378c-17.483-12.987-30.568-30.701-37.846-51.229
	c-0.01-0.028-0.02-0.055-0.03-0.083c-1.438-3.965-2.066-8.085-1.865-12.246c1.278-26.496-0.92-50.807-2.345-62.941
	c-0.256-2.182,0.888-4.334,2.848-5.356l18.852-9.835c1.533-0.8,3.307-0.794,4.81-0.063c5.332,5.691,9.728,15.176,7.897,22.056
	c-2.113,7.936-5.821,14.983-8.373,18.173c-2.587,3.234-2.063,7.954,1.171,10.542c1.383,1.106,3.037,1.644,4.68,1.644
	c2.2,0,4.38-0.964,5.861-2.815c4.416-5.519,8.794-14.816,11.155-23.684c1.16-4.355,1.449-8.825,0.95-13.182l104.237-18.763
	c27.285-4.911,54.828-4.286,81.863,1.858l43.216,9.822c10.263,2.333,20.921,1.68,30.823-1.888l18.201-6.558l-0.699,1.491
	c-3.707,7.908-4.241,16.832-1.505,25.128l0.316,0.96c5.045,15.357,14.432,43.902,59.589,44.05
	C395.321,219.781,380.571,248.105,361.065,273.614z M451.376,139.596l-0.321,0.977c-4.938,15.031-11.084,33.738-45.683,33.738
	c-34.599,0-40.745-18.707-45.683-33.738l-0.321-0.977c-1.531-4.644-1.232-9.639,0.842-14.064l3.502-7.471
	c0.816-1.741,0.932-3.73,0.324-5.555c-6.565-19.696-2.381-39.579,1.173-50.717c4.585,4.492,8.359,9.783,11.117,15.631l9.276,19.677
	c1.591,3.376,5.423,5.069,8.989,3.97c7.053-2.17,14.51-2.17,21.563,0c3.567,1.098,7.398-0.595,8.989-3.97l9.276-19.677
	c2.761-5.857,6.542-11.155,11.138-15.652c3.566,11.102,7.754,30.931,1.152,50.738c-0.608,1.825-0.492,3.813,0.324,5.555l3.501,7.471
	C452.609,129.958,452.908,134.952,451.376,139.596z"/>
<g>
</g>
<g>
</g>
<g>
</g>
<g>
</g>
<g>
</g>
<g>
</g>
<g>
</g>
<g>
</g>
<g>
</g>
<g>
</g>
<g>
</g>
<g>
</g>
<g>
</g>
<g>
</g>
<g>
</g>
</svg>
