<?xml version="1.0" encoding="iso-8859-1"?>
<!-- Generator: Adobe Illustrator 18.0.0, SVG Export Plug-In . SVG Version: 6.00 Build 0)  -->
<!DOCTYPE svg PUBLIC "-//W3C//DTD SVG 1.1//EN" "http://www.w3.org/Graphics/SVG/1.1/DTD/svg11.dtd">
<svg version="1.1" id="Capa_1" xmlns="http://www.w3.org/2000/svg" xmlns:xlink="http://www.w3.org/1999/xlink" x="0px" y="0px"
	 viewBox="0 0 482.904 482.904" style="enable-background:new 0 0 482.904 482.904;" xml:space="preserve">
<path d="M482.131,107.162c1.629-4.188,0.638-8.956-2.526-12.148c-3.163-3.191-7.921-4.226-12.125-2.635l-4.674,1.77
	c-12.024,4.553-24.616,7.421-37.424,8.526c-9.943,0.857-20.027,0.857-29.971,0c-12.809-1.104-25.401-3.973-37.424-8.526
	l-4.674-1.769c-4.202-1.592-8.962-0.557-12.125,2.634c-3.164,3.192-4.155,7.96-2.526,12.147l3.128,8.044
	c-16.374-2.123-47.378-5.815-80.103-7.991c-63.729-4.237-103.181-1.082-120.379,9.647c-36.427,2.028-75.945,25.922-80.043,87.401
	c-1.737,26.049-4.163,43.964-11.424,58.447c-6.758,13.481-18.314,25.016-39.888,39.817c-5.067,3.476-8.466,8.722-9.572,14.77
	c-1.106,6.052,0.218,12.165,3.73,17.213c4.404,6.331,11.515,9.843,18.826,9.843c3.168,0,6.373-0.659,9.411-2.035
	c10.804-4.89,29.267-14.723,46.989-31.047c1.077,4.741,2.624,10.21,4.842,15.857c8.188,20.847,21.763,34.533,39.365,39.799
	c3.994,5.801,8.845,11.012,14.448,15.471c7.182,5.716,16.192,8.864,25.371,8.864h1.886c10.201,0,18.5-8.299,18.5-18.5
	c0-10.025-8.015-18.213-17.973-18.493c-1.759-4.571-4.292-11.996-5.171-18.818c-0.402-3.121,1.686-5.963,4.758-6.47l0.631-0.104
	c27.223-4.49,49.241-23.64,57.461-49.977c0.12-0.383,0.224-0.769,0.337-1.153l79.212,8.964c0.757,5.737,2.536,11.335,5.301,16.467
	l41.098,76.267c3.928,7.289,11.512,11.817,19.792,11.817h13.485c8.666,0,15.92-6.134,17.664-14.287l2.225-0.055
	c4.769-0.115,9.246-2.039,12.594-5.405c3.368-3.368,5.277-7.849,5.375-12.614c0.204-9.604-6.84-17.641-16.378-18.693l-1.973-0.22
	l-5.441-62.408c26.776-5.611,46.928-28.143,49.89-55.009c4.121-1.331,8.092-3.217,11.813-5.656
	c15.354-10.062,23.703-27.61,21.789-45.796c-0.678-6.438-2.078-12.927-3.431-19.202c-0.564-2.616-1.147-5.319-1.657-7.934
	l-0.314-1.961c-1.194-7.465-0.377-15.135,2.362-22.18L482.131,107.162z M92.215,297.948c8.755-10.207,16.731-22.289,22.78-36.438
	c0.614,1.058,1.26,2.097,1.945,3.109c-5.684,17.87-9.846,32.325-11.888,39.599c-1.4,4.986-1.319,10.236,0.235,15.18l7.816,24.871
	C97.503,330.398,93.238,306.173,92.215,297.948z M402.506,355.116c1.768,0.195,3.072,1.685,3.034,3.471
	c-0.023,1.128-0.548,1.885-0.999,2.335c-0.439,0.442-1.201,0.974-2.337,1.001l-5.311,0.131c-2.892-3.689-7.188-6.247-12.162-6.815
	l-2.118-0.242l-5.479-55.116c-0.632-6.36,0.008-12.746,1.776-18.8l3.033-0.592l5.834,66.924c0.311,3.56,3.09,6.407,6.641,6.802
	L402.506,355.116z M393.029,263.042l-5.343,1.043c0.398-0.501,0.797-1.002,1.216-1.489l2.326-2.704
	c2.679-3.114,2.616-7.893-0.416-10.664c-3.137-2.867-7.998-2.556-10.748,0.641l-2.532,2.943
	c-11.479,13.342-17.065,31.038-15.324,48.552l6.078,61.139c0.35,3.514,3.103,6.309,6.612,6.709l7.992,0.913
	c1.4,0.16,2.61,1.191,2.822,2.585c0.291,1.905-1.182,3.551-3.033,3.551h-13.485c-2.752,0-5.281-1.51-6.586-3.933l-41.098-76.268
	c-3.497-6.489-4.717-14.061-3.436-21.32l8.006-45.37c0.714-4.044-1.783-8.12-5.805-8.952c-4.161-0.861-8.18,1.886-8.913,6.04
	l-7.976,45.199l-76.877-8.7c1.717-22.21-6.879-44.451-23.869-59.692l-2.651-2.378c-3.057-2.742-7.835-2.778-10.668,0.196
	c-2.931,3.077-2.722,7.944,0.418,10.761l2.884,2.588c16.723,15.001,23.204,38.552,16.511,59.998
	c-6.521,20.893-23.987,36.084-45.582,39.646l-0.642,0.106c-11.075,1.831-18.624,12.016-17.184,23.186
	c1.674,12.994,7.924,26.902,8.189,27.488c1.215,2.683,3.887,4.406,6.832,4.406h4.4c1.67,0,3.19,1.129,3.525,2.765
	c0.46,2.25-1.255,4.235-3.425,4.235h-1.886c-5.83,0-11.488-1.982-16.048-5.615c-8.899-7.089-15.406-16.572-18.817-27.427
	l-8.9-28.319c-0.677-2.155-0.713-4.456-0.103-6.631c2.151-7.664,6.687-23.4,12.892-42.708c0.777-2.416,0.268-5.052-1.319-7.033
	c-21.713-27.1-4.786-87.086-4.613-87.689c1.148-3.978-1.146-8.134-5.124-9.284c-3.979-1.15-8.137,1.144-9.288,5.122
	c-0.602,2.083-11.22,39.646-5.065,72.233c-14.48,54.53-61.335,80.923-80.815,89.74c-3.462,1.566-7.556,0.427-9.738-2.708
	c-1.307-1.879-1.737-4.186-1.185-6.434c0.482-1.963,1.776-3.636,3.441-4.781C64.428,283.288,72.45,261.98,76.232,205.26
	c3.217-48.25,29.772-64.944,49.704-70.643c-0.781,3.459,0.982,7.091,4.358,8.538c0.963,0.413,1.965,0.608,2.951,0.608
	c2.156,0,4.234-0.935,5.662-2.577c0.476-0.547,2.679-3.903,4.154-5.528c4.629-5.099,10.638-8.724,17.295-10.487
	c14.692-3.891,43.558-6.76,100.25-2.996c37.404,2.483,72.549,6.976,85.657,8.753c0.379,3.682,0.284,7.414-0.306,11.096l-0.313,1.961
	c-0.51,2.614-1.093,5.317-1.657,7.932c-1.353,6.275-2.752,12.764-3.431,19.202c-1.914,18.186,6.435,35.734,21.789,45.796
	c10.917,7.153,23.963,9.619,36.737,6.943l11.315-2.37l11.315,2.37c3.134,0.656,6.282,0.991,9.413,1.035
	C427.409,243.827,412.44,259.254,393.029,263.042z M450.227,204.369c-7.559,4.954-16.595,6.661-25.439,4.808l-12.853-2.692
	c-0.507-0.106-1.022-0.159-1.538-0.159s-1.031,0.053-1.538,0.159l-12.853,2.692c-8.846,1.853-17.88,0.145-25.44-4.808
	c-10.633-6.968-16.417-19.106-15.093-31.679c0.593-5.635,1.848-11.452,3.176-17.611c0.588-2.729,1.197-5.552,1.742-8.354
	c0.016-0.082,0.03-0.165,0.043-0.248l0.333-2.085c1.615-10.092,0.511-20.462-3.194-29.987l-2.01-5.168
	c12.438,4.429,25.395,7.246,38.559,8.381c10.798,0.931,21.749,0.931,32.547,0c13.164-1.135,26.12-3.952,38.559-8.381l-2.01,5.168
	c-3.704,9.525-4.809,19.895-3.194,29.987l0.334,2.086c0.013,0.082,0.028,0.164,0.043,0.246c0.545,2.802,1.154,5.624,1.742,8.354
	c1.328,6.158,2.583,11.975,3.176,17.61C466.644,185.263,460.86,197.401,450.227,204.369z"/>
<g>
</g>
<g>
</g>
<g>
</g>
<g>
</g>
<g>
</g>
<g>
</g>
<g>
</g>
<g>
</g>
<g>
</g>
<g>
</g>
<g>
</g>
<g>
</g>
<g>
</g>
<g>
</g>
<g>
</g>
</svg>
